<svg xmlns="http://www.w3.org/2000/svg" width="760" height="250" viewBox="0 0 760 250" font-family='system-ui,-apple-system,"Segoe UI","Malgun Gothic","Apple SD Gothic Neo",sans-serif'>
<rect width="760" height="250" fill="#1a1a19"/>
<text x="20" y="28" font-size="14.5" font-weight="700" fill="#ffffff">ADX / DMI (14)</text>
<text x="20" y="46" font-size="11" fill="#c3c2b7">ADX 25 이상 = 추세 강함. +DI/-DI 교차가 방향 신호.</text>
<line x1="551" y1="24" x2="569" y2="24" stroke="#c3c2b7" stroke-width="2"/>
<text x="574" y="28" font-size="10.5" fill="#c3c2b7">ADX</text>
<line x1="614" y1="24" x2="632" y2="24" stroke="#e66767" stroke-width="2"/>
<text x="637" y="28" font-size="10.5" fill="#c3c2b7">+DI</text>
<line x1="677" y1="24" x2="695" y2="24" stroke="#3987e5" stroke-width="2"/>
<text x="700" y="28" font-size="10.5" fill="#c3c2b7">-DI</text>
<line x1="64" y1="220.0" x2="740" y2="220.0" stroke="#2c2c2a" stroke-width="1"/>
<text x="58" y="223.5" font-size="10" fill="#898781" text-anchor="end" style="font-variant-numeric:tabular-nums">1</text>
<line x1="64" y1="168.0" x2="740" y2="168.0" stroke="#2c2c2a" stroke-width="1"/>
<text x="58" y="171.5" font-size="10" fill="#898781" text-anchor="end" style="font-variant-numeric:tabular-nums">23</text>
<line x1="64" y1="116.0" x2="740" y2="116.0" stroke="#2c2c2a" stroke-width="1"/>
<text x="58" y="119.5" font-size="10" fill="#898781" text-anchor="end" style="font-variant-numeric:tabular-nums">44</text>
<line x1="64" y1="64.0" x2="740" y2="64.0" stroke="#2c2c2a" stroke-width="1"/>
<text x="58" y="67.5" font-size="10" fill="#898781" text-anchor="end" style="font-variant-numeric:tabular-nums">66</text>
<line x1="64" y1="162.5" x2="740" y2="162.5" stroke="#898781" stroke-width="1" stroke-dasharray="3 4"/>
<text x="742" y="165.5" font-size="9" fill="#898781">25</text>
<path d="M69.1,184.6 L79.4,181.7 L89.6,179.0 L99.8,176.9 L110.1,174.5 L120.3,171.1 L130.6,167.8 L140.8,164.0 L151.1,160.4 L161.3,155.7 L171.5,151.1 L181.8,147.7 L192.0,144.5 L202.3,139.3 L212.5,132.9 L222.8,126.6 L233.0,120.6 L243.2,113.6 L253.5,108.1 L263.7,102.9 L274.0,98.1 L284.2,99.3 L294.5,102.2 L304.7,104.9 L314.9,109.0 L325.2,110.2 L335.4,111.3 L345.7,110.7 L355.9,108.0 L366.2,106.8 L376.4,105.2 L386.6,103.5 L396.9,103.0 L407.1,102.5 L417.4,107.0 L427.6,115.0 L437.8,120.4 L448.1,125.5 L458.3,130.8 L468.6,133.8 L478.8,136.4 L489.1,137.9 L499.3,137.9 L509.5,136.0 L519.8,133.3 L530.0,130.4 L540.3,131.3 L550.5,133.5 L560.8,133.2 L571.0,135.2 L581.2,138.2 L591.5,140.4 L601.7,143.1 L612.0,148.1 L622.2,151.3 L632.5,154.9 L642.7,156.2 L652.9,157.4 L663.2,158.5 L673.4,160.1 L683.7,158.7 L693.9,156.3 L704.2,157.3 L714.4,156.4 L724.6,155.1 L734.9,153.8" fill="none" stroke="#c3c2b7" stroke-width="1.8"/>
<path d="M69.1,128.0 L79.4,123.5 L89.6,126.9 L99.8,130.7 L110.1,130.1 L120.3,121.9 L130.6,125.1 L140.8,125.1 L151.1,130.8 L161.3,120.1 L171.5,121.4 L181.8,125.8 L192.0,128.1 L202.3,112.1 L212.5,91.4 L222.8,92.0 L233.0,98.7 L243.2,74.8 L253.5,93.0 L263.7,111.8 L274.0,115.7 L284.2,130.4 L294.5,140.2 L304.7,145.5 L314.9,149.9 L325.2,133.3 L335.4,135.6 L345.7,123.1 L355.9,103.6 L366.2,113.8 L376.4,109.3 L386.6,113.3 L396.9,122.4 L407.1,128.1 L417.4,139.8 L427.6,149.1 L437.8,142.5 L448.1,150.7 L458.3,157.3 L468.6,148.2 L478.8,151.9 L489.1,147.1 L499.3,140.3 L509.5,125.8 L519.8,118.6 L530.0,122.6 L540.3,138.0 L550.5,145.8 L560.8,131.9 L571.0,141.5 L581.2,146.2 L591.5,147.0 L601.7,152.7 L612.0,161.0 L622.2,168.7 L632.5,168.9 L642.7,173.2 L652.9,176.9 L663.2,179.6 L673.4,178.9 L683.7,183.4 L693.9,186.4 L704.2,172.3 L714.4,176.2 L724.6,178.4 L734.9,180.6" fill="none" stroke="#e66767" stroke-width="1.8"/>
<path d="M69.1,168.0 L79.4,172.2 L89.6,173.9 L99.8,173.3 L110.1,176.1 L120.3,179.5 L130.6,181.4 L140.8,185.5 L151.1,187.7 L161.3,191.4 L171.5,192.8 L181.8,189.7 L192.0,191.3 L202.3,196.9 L212.5,201.1 L222.8,203.1 L233.0,204.9 L243.2,208.6 L253.5,206.3 L263.7,208.7 L274.0,209.2 L284.2,187.3 L294.5,182.2 L304.7,184.8 L314.9,179.1 L325.2,184.6 L335.4,185.6 L345.7,189.0 L355.9,194.8 L366.2,190.6 L376.4,192.2 L386.6,194.0 L396.9,191.4 L407.1,193.1 L417.4,171.7 L427.6,150.7 L437.8,161.4 L448.1,167.0 L458.3,168.6 L468.6,173.4 L478.8,177.1 L489.1,179.5 L499.3,183.1 L509.5,186.7 L519.8,189.9 L530.0,192.8 L540.3,179.9 L550.5,176.5 L560.8,182.3 L571.0,174.6 L581.2,170.6 L591.5,174.2 L601.7,174.6 L612.0,156.1 L622.2,154.0 L632.5,158.3 L642.7,148.0 L652.9,153.4 L663.2,157.5 L673.4,160.3 L683.7,142.9 L693.9,137.4 L704.2,144.0 L714.4,132.3 L724.6,130.3 L734.9,134.6" fill="none" stroke="#3987e5" stroke-width="1.8"/>
<text x="69.1" y="238" font-size="10" fill="#898781" text-anchor="middle">04/14</text>
<text x="181.8" y="238" font-size="10" fill="#898781" text-anchor="middle">04/29</text>
<text x="294.5" y="238" font-size="10" fill="#898781" text-anchor="middle">05/18</text>
<text x="407.1" y="238" font-size="10" fill="#898781" text-anchor="middle">06/04</text>
<text x="519.8" y="238" font-size="10" fill="#898781" text-anchor="middle">06/19</text>
<text x="632.5" y="238" font-size="10" fill="#898781" text-anchor="middle">07/06</text>
</svg>