<svg xmlns="http://www.w3.org/2000/svg" width="760" height="250" viewBox="0 0 760 250" font-family='system-ui,-apple-system,"Segoe UI","Malgun Gothic","Apple SD Gothic Neo",sans-serif'>
<rect width="760" height="250" fill="#1a1a19"/>
<text x="20" y="28" font-size="14.5" font-weight="700" fill="#ffffff">ADX / DMI (14)</text>
<text x="20" y="46" font-size="11" fill="#c3c2b7">ADX 25 이상 = 추세 강함. +DI/-DI 교차가 방향 신호.</text>
<line x1="551" y1="24" x2="569" y2="24" stroke="#c3c2b7" stroke-width="2"/>
<text x="574" y="28" font-size="10.5" fill="#c3c2b7">ADX</text>
<line x1="614" y1="24" x2="632" y2="24" stroke="#e66767" stroke-width="2"/>
<text x="637" y="28" font-size="10.5" fill="#c3c2b7">+DI</text>
<line x1="677" y1="24" x2="695" y2="24" stroke="#3987e5" stroke-width="2"/>
<text x="700" y="28" font-size="10.5" fill="#c3c2b7">-DI</text>
<line x1="64" y1="220.0" x2="740" y2="220.0" stroke="#2c2c2a" stroke-width="1"/>
<text x="58" y="223.5" font-size="10" fill="#898781" text-anchor="end" style="font-variant-numeric:tabular-nums">1</text>
<line x1="64" y1="168.0" x2="740" y2="168.0" stroke="#2c2c2a" stroke-width="1"/>
<text x="58" y="171.5" font-size="10" fill="#898781" text-anchor="end" style="font-variant-numeric:tabular-nums">23</text>
<line x1="64" y1="116.0" x2="740" y2="116.0" stroke="#2c2c2a" stroke-width="1"/>
<text x="58" y="119.5" font-size="10" fill="#898781" text-anchor="end" style="font-variant-numeric:tabular-nums">44</text>
<line x1="64" y1="64.0" x2="740" y2="64.0" stroke="#2c2c2a" stroke-width="1"/>
<text x="58" y="67.5" font-size="10" fill="#898781" text-anchor="end" style="font-variant-numeric:tabular-nums">66</text>
<line x1="64" y1="162.5" x2="740" y2="162.5" stroke="#898781" stroke-width="1" stroke-dasharray="3 4"/>
<text x="742" y="165.5" font-size="9" fill="#898781">25</text>
<path d="M69.1,187.9 L79.4,188.0 L89.6,185.9 L99.8,182.9 L110.1,180.2 L120.3,178.0 L130.6,175.6 L140.8,172.1 L151.1,168.7 L161.3,164.8 L171.5,161.3 L181.8,156.5 L192.0,151.9 L202.3,148.4 L212.5,145.1 L222.8,140.0 L233.0,133.5 L243.2,127.1 L253.5,121.1 L263.7,114.1 L274.0,108.5 L284.2,103.3 L294.5,98.5 L304.7,99.6 L314.9,102.5 L325.2,105.2 L335.4,109.3 L345.7,110.5 L355.9,111.5 L366.2,111.0 L376.4,108.3 L386.6,107.0 L396.9,105.4 L407.1,103.7 L417.4,103.2 L427.6,102.7 L437.8,107.1 L448.1,115.2 L458.3,120.5 L468.6,125.6 L478.8,130.9 L489.1,133.9 L499.3,136.5 L509.5,138.0 L519.8,138.0 L530.0,136.1 L540.3,133.4 L550.5,130.4 L560.8,131.3 L571.0,133.6 L581.2,133.3 L591.5,135.3 L601.7,138.2 L612.0,140.5 L622.2,143.1 L632.5,148.1 L642.7,151.4 L652.9,154.9 L663.2,156.2 L673.4,157.4 L683.7,158.6 L693.9,160.1 L704.2,158.7 L714.4,156.3 L724.6,157.3 L734.9,156.4" fill="none" stroke="#c3c2b7" stroke-width="1.8"/>
<path d="M69.1,138.3 L79.4,142.8 L89.6,128.1 L99.8,123.6 L110.1,127.1 L120.3,130.8 L130.6,130.3 L140.8,122.0 L151.1,125.2 L161.3,125.2 L171.5,130.9 L181.8,120.2 L192.0,121.4 L202.3,125.9 L212.5,128.2 L222.8,112.2 L233.0,91.5 L243.2,92.0 L253.5,98.7 L263.7,74.8 L274.0,93.0 L284.2,111.8 L294.5,115.7 L304.7,130.4 L314.9,140.2 L325.2,145.5 L335.4,150.0 L345.7,133.3 L355.9,135.6 L366.2,123.1 L376.4,103.6 L386.6,113.8 L396.9,109.3 L407.1,113.3 L417.4,122.4 L427.6,128.1 L437.8,139.8 L448.1,149.1 L458.3,142.5 L468.6,150.7 L478.8,157.3 L489.1,148.2 L499.3,151.9 L509.5,147.1 L519.8,140.4 L530.0,125.8 L540.3,118.6 L550.5,122.6 L560.8,138.0 L571.0,145.8 L581.2,131.9 L591.5,141.5 L601.7,146.2 L612.0,147.0 L622.2,152.7 L632.5,161.0 L642.7,168.7 L652.9,168.9 L663.2,173.2 L673.4,176.9 L683.7,179.6 L693.9,178.9 L704.2,183.4 L714.4,186.4 L724.6,172.3 L734.9,176.2" fill="none" stroke="#e66767" stroke-width="1.8"/>
<path d="M69.1,166.7 L79.4,162.1 L89.6,167.9 L99.8,172.1 L110.1,173.8 L120.3,173.2 L130.6,176.0 L140.8,179.4 L151.1,181.4 L161.3,185.5 L171.5,187.6 L181.8,191.4 L192.0,192.7 L202.3,189.7 L212.5,191.3 L222.8,196.9 L233.0,201.1 L243.2,203.1 L253.5,204.9 L263.7,208.6 L274.0,206.3 L284.2,208.7 L294.5,209.2 L304.7,187.3 L314.9,182.1 L325.2,184.8 L335.4,179.1 L345.7,184.6 L355.9,185.6 L366.2,189.0 L376.4,194.8 L386.6,190.6 L396.9,192.2 L407.1,194.0 L417.4,191.4 L427.6,193.1 L437.8,171.7 L448.1,150.7 L458.3,161.4 L468.6,167.0 L478.8,168.6 L489.1,173.4 L499.3,177.1 L509.5,179.5 L519.8,183.1 L530.0,186.7 L540.3,189.9 L550.5,192.8 L560.8,179.9 L571.0,176.5 L581.2,182.3 L591.5,174.6 L601.7,170.6 L612.0,174.2 L622.2,174.6 L632.5,156.1 L642.7,154.0 L652.9,158.3 L663.2,148.0 L673.4,153.4 L683.7,157.5 L693.9,160.3 L704.2,142.9 L714.4,137.4 L724.6,144.0 L734.9,132.3" fill="none" stroke="#3987e5" stroke-width="1.8"/>
<text x="69.1" y="238" font-size="10" fill="#898781" text-anchor="middle">04/10</text>
<text x="181.8" y="238" font-size="10" fill="#898781" text-anchor="middle">04/27</text>
<text x="294.5" y="238" font-size="10" fill="#898781" text-anchor="middle">05/14</text>
<text x="407.1" y="238" font-size="10" fill="#898781" text-anchor="middle">06/01</text>
<text x="519.8" y="238" font-size="10" fill="#898781" text-anchor="middle">06/17</text>
<text x="632.5" y="238" font-size="10" fill="#898781" text-anchor="middle">07/02</text>
</svg>