<svg xmlns="http://www.w3.org/2000/svg" width="760" height="250" viewBox="0 0 760 250" font-family='system-ui,-apple-system,"Segoe UI","Malgun Gothic","Apple SD Gothic Neo",sans-serif'>
<rect width="760" height="250" fill="#1a1a19"/>
<text x="20" y="28" font-size="14.5" font-weight="700" fill="#ffffff">ADX / DMI (14)</text>
<text x="20" y="46" font-size="11" fill="#c3c2b7">ADX 25 이상 = 추세 강함. +DI/-DI 교차가 방향 신호.</text>
<line x1="551" y1="24" x2="569" y2="24" stroke="#c3c2b7" stroke-width="2"/>
<text x="574" y="28" font-size="10.5" fill="#c3c2b7">ADX</text>
<line x1="614" y1="24" x2="632" y2="24" stroke="#e66767" stroke-width="2"/>
<text x="637" y="28" font-size="10.5" fill="#c3c2b7">+DI</text>
<line x1="677" y1="24" x2="695" y2="24" stroke="#3987e5" stroke-width="2"/>
<text x="700" y="28" font-size="10.5" fill="#c3c2b7">-DI</text>
<line x1="64" y1="220.0" x2="740" y2="220.0" stroke="#2c2c2a" stroke-width="1"/>
<text x="58" y="223.5" font-size="10" fill="#898781" text-anchor="end" style="font-variant-numeric:tabular-nums">1</text>
<line x1="64" y1="168.0" x2="740" y2="168.0" stroke="#2c2c2a" stroke-width="1"/>
<text x="58" y="171.5" font-size="10" fill="#898781" text-anchor="end" style="font-variant-numeric:tabular-nums">23</text>
<line x1="64" y1="116.0" x2="740" y2="116.0" stroke="#2c2c2a" stroke-width="1"/>
<text x="58" y="119.5" font-size="10" fill="#898781" text-anchor="end" style="font-variant-numeric:tabular-nums">44</text>
<line x1="64" y1="64.0" x2="740" y2="64.0" stroke="#2c2c2a" stroke-width="1"/>
<text x="58" y="67.5" font-size="10" fill="#898781" text-anchor="end" style="font-variant-numeric:tabular-nums">66</text>
<line x1="64" y1="162.5" x2="740" y2="162.5" stroke="#898781" stroke-width="1" stroke-dasharray="3 4"/>
<text x="742" y="165.5" font-size="9" fill="#898781">25</text>
<path d="M69.1,176.6 L79.4,174.2 L89.6,170.8 L99.8,167.5 L110.1,163.7 L120.3,160.2 L130.6,155.5 L140.8,150.9 L151.1,147.6 L161.3,144.3 L171.5,139.2 L181.8,132.8 L192.0,126.5 L202.3,120.5 L212.5,113.6 L222.8,108.0 L233.0,102.9 L243.2,98.0 L253.5,99.3 L263.7,102.2 L274.0,104.9 L284.2,109.0 L294.5,110.2 L304.7,111.3 L314.9,110.7 L325.2,108.0 L335.4,106.8 L345.7,105.2 L355.9,103.5 L366.2,103.0 L376.4,102.5 L386.6,107.0 L396.9,115.0 L407.1,120.4 L417.4,125.5 L427.6,130.8 L437.8,133.8 L448.1,136.4 L458.3,137.9 L468.6,137.9 L478.8,136.1 L489.1,133.3 L499.3,130.4 L509.5,131.3 L519.8,133.5 L530.0,133.2 L540.3,135.2 L550.5,138.2 L560.8,140.4 L571.0,143.1 L581.2,148.1 L591.5,151.3 L601.7,154.9 L612.0,156.2 L622.2,157.4 L632.5,158.5 L642.7,160.1 L652.9,158.7 L663.2,156.3 L673.4,157.3 L683.7,156.4 L693.9,155.1 L704.2,153.8 L714.4,154.2 L724.6,154.6 L734.9,154.2" fill="none" stroke="#c3c2b7" stroke-width="1.8"/>
<path d="M69.1,130.5 L79.4,130.0 L89.6,121.7 L99.8,124.9 L110.1,125.0 L120.3,130.7 L130.6,120.1 L140.8,121.3 L151.1,125.7 L161.3,128.0 L171.5,112.1 L181.8,91.4 L192.0,92.0 L202.3,98.6 L212.5,74.8 L222.8,93.0 L233.0,111.8 L243.2,115.6 L253.5,130.3 L263.7,140.2 L274.0,145.5 L284.2,149.9 L294.5,133.3 L304.7,135.6 L314.9,123.1 L325.2,103.6 L335.4,113.8 L345.7,109.3 L355.9,113.3 L366.2,122.4 L376.4,128.1 L386.6,139.8 L396.9,149.1 L407.1,142.5 L417.4,150.7 L427.6,157.3 L437.8,148.2 L448.1,151.9 L458.3,147.1 L468.6,140.4 L478.8,125.8 L489.1,118.6 L499.3,122.6 L509.5,138.0 L519.8,145.8 L530.0,131.9 L540.3,141.5 L550.5,146.2 L560.8,147.0 L571.0,152.7 L581.2,161.1 L591.5,168.7 L601.7,168.9 L612.0,173.2 L622.2,176.9 L632.5,179.6 L642.7,178.9 L652.9,183.4 L663.2,186.4 L673.4,172.3 L683.7,176.2 L693.9,178.4 L704.2,180.6 L714.4,174.0 L724.6,175.9 L734.9,178.5" fill="none" stroke="#e66767" stroke-width="1.8"/>
<path d="M69.1,173.3 L79.4,176.0 L89.6,179.4 L99.8,181.4 L110.1,185.5 L120.3,187.6 L130.6,191.4 L140.8,192.7 L151.1,189.7 L161.3,191.3 L171.5,196.9 L181.8,201.1 L192.0,203.1 L202.3,204.9 L212.5,208.6 L222.8,206.3 L233.0,208.7 L243.2,209.2 L253.5,187.4 L263.7,182.2 L274.0,184.8 L284.2,179.1 L294.5,184.7 L304.7,185.6 L314.9,189.0 L325.2,194.8 L335.4,190.6 L345.7,192.3 L355.9,194.0 L366.2,191.4 L376.4,193.1 L386.6,171.7 L396.9,150.7 L407.1,161.4 L417.4,167.0 L427.6,168.6 L437.8,173.5 L448.1,177.2 L458.3,179.5 L468.6,183.1 L478.8,186.8 L489.1,189.9 L499.3,192.8 L509.5,179.9 L519.8,176.5 L530.0,182.4 L540.3,174.7 L550.5,170.7 L560.8,174.2 L571.0,174.7 L581.2,156.1 L591.5,154.0 L601.7,158.3 L612.0,148.0 L622.2,153.4 L632.5,157.5 L642.7,160.3 L652.9,142.9 L663.2,137.4 L673.4,144.0 L683.7,132.3 L693.9,130.3 L704.2,134.6 L714.4,139.6 L724.6,142.8 L734.9,139.8" fill="none" stroke="#3987e5" stroke-width="1.8"/>
<text x="69.1" y="238" font-size="10" fill="#898781" text-anchor="middle">04/17</text>
<text x="181.8" y="238" font-size="10" fill="#898781" text-anchor="middle">05/06</text>
<text x="294.5" y="238" font-size="10" fill="#898781" text-anchor="middle">05/21</text>
<text x="407.1" y="238" font-size="10" fill="#898781" text-anchor="middle">06/09</text>
<text x="519.8" y="238" font-size="10" fill="#898781" text-anchor="middle">06/24</text>
<text x="632.5" y="238" font-size="10" fill="#898781" text-anchor="middle">07/09</text>
</svg>