<svg xmlns="http://www.w3.org/2000/svg" width="760" height="250" viewBox="0 0 760 250" font-family='system-ui,-apple-system,"Segoe UI","Malgun Gothic","Apple SD Gothic Neo",sans-serif'>
<rect width="760" height="250" fill="#1a1a19"/>
<text x="20" y="28" font-size="14.5" font-weight="700" fill="#ffffff">ADX / DMI (14)</text>
<text x="20" y="46" font-size="11" fill="#c3c2b7">ADX 25 이상 = 추세 강함. +DI/-DI 교차가 방향 신호.</text>
<line x1="551" y1="24" x2="569" y2="24" stroke="#c3c2b7" stroke-width="2"/>
<text x="574" y="28" font-size="10.5" fill="#c3c2b7">ADX</text>
<line x1="614" y1="24" x2="632" y2="24" stroke="#e66767" stroke-width="2"/>
<text x="637" y="28" font-size="10.5" fill="#c3c2b7">+DI</text>
<line x1="677" y1="24" x2="695" y2="24" stroke="#3987e5" stroke-width="2"/>
<text x="700" y="28" font-size="10.5" fill="#c3c2b7">-DI</text>
<line x1="64" y1="220.0" x2="740" y2="220.0" stroke="#2c2c2a" stroke-width="1"/>
<text x="58" y="223.5" font-size="10" fill="#898781" text-anchor="end" style="font-variant-numeric:tabular-nums">1</text>
<line x1="64" y1="168.0" x2="740" y2="168.0" stroke="#2c2c2a" stroke-width="1"/>
<text x="58" y="171.5" font-size="10" fill="#898781" text-anchor="end" style="font-variant-numeric:tabular-nums">23</text>
<line x1="64" y1="116.0" x2="740" y2="116.0" stroke="#2c2c2a" stroke-width="1"/>
<text x="58" y="119.5" font-size="10" fill="#898781" text-anchor="end" style="font-variant-numeric:tabular-nums">44</text>
<line x1="64" y1="64.0" x2="740" y2="64.0" stroke="#2c2c2a" stroke-width="1"/>
<text x="58" y="67.5" font-size="10" fill="#898781" text-anchor="end" style="font-variant-numeric:tabular-nums">66</text>
<line x1="64" y1="162.5" x2="740" y2="162.5" stroke="#898781" stroke-width="1" stroke-dasharray="3 4"/>
<text x="742" y="165.5" font-size="9" fill="#898781">25</text>
<path d="M69.1,182.3 L79.4,179.6 L89.6,177.5 L99.8,175.1 L110.1,171.6 L120.3,168.3 L130.6,164.4 L140.8,160.9 L151.1,156.1 L161.3,151.5 L171.5,148.1 L181.8,144.8 L192.0,139.7 L202.3,133.3 L212.5,126.9 L222.8,120.9 L233.0,113.9 L243.2,108.3 L253.5,103.2 L263.7,98.3 L274.0,99.5 L284.2,102.4 L294.5,105.1 L304.7,109.2 L314.9,110.4 L325.2,111.4 L335.4,110.9 L345.7,108.2 L355.9,107.0 L366.2,105.3 L376.4,103.6 L386.6,103.1 L396.9,102.6 L407.1,107.1 L417.4,115.1 L427.6,120.5 L437.8,125.6 L448.1,130.9 L458.3,133.9 L468.6,136.5 L478.8,137.9 L489.1,138.0 L499.3,136.1 L509.5,133.3 L519.8,130.4 L530.0,131.3 L540.3,133.5 L550.5,133.3 L560.8,135.2 L571.0,138.2 L581.2,140.4 L591.5,143.1 L601.7,148.1 L612.0,151.3 L622.2,154.9 L632.5,156.2 L642.7,157.4 L652.9,158.5 L663.2,160.1 L673.4,158.7 L683.7,156.3 L693.9,157.3 L704.2,156.4 L714.4,155.1 L724.6,153.8 L734.9,154.2" fill="none" stroke="#c3c2b7" stroke-width="1.8"/>
<path d="M69.1,123.6 L79.4,127.0 L89.6,130.8 L99.8,130.2 L110.1,121.9 L120.3,125.1 L130.6,125.1 L140.8,130.8 L151.1,120.2 L161.3,121.4 L171.5,125.8 L181.8,128.1 L192.0,112.2 L202.3,91.5 L212.5,92.0 L222.8,98.7 L233.0,74.8 L243.2,93.0 L253.5,111.8 L263.7,115.7 L274.0,130.3 L284.2,140.2 L294.5,145.5 L304.7,149.9 L314.9,133.3 L325.2,135.6 L335.4,123.1 L345.7,103.6 L355.9,113.8 L366.2,109.2 L376.4,113.3 L386.6,122.4 L396.9,128.1 L407.1,139.8 L417.4,149.1 L427.6,142.5 L437.8,150.7 L448.1,157.3 L458.3,148.2 L468.6,151.9 L478.8,147.1 L489.1,140.3 L499.3,125.7 L509.5,118.6 L519.8,122.6 L530.0,138.0 L540.3,145.8 L550.5,131.9 L560.8,141.5 L571.0,146.2 L581.2,147.0 L591.5,152.7 L601.7,161.0 L612.0,168.7 L622.2,168.9 L632.5,173.2 L642.7,176.9 L652.9,179.6 L663.2,178.9 L673.4,183.4 L683.7,186.4 L693.9,172.3 L704.2,176.2 L714.4,178.4 L724.6,180.6 L734.9,174.0" fill="none" stroke="#e66767" stroke-width="1.8"/>
<path d="M69.1,172.1 L79.4,173.9 L89.6,173.3 L99.8,176.0 L110.1,179.4 L120.3,181.4 L130.6,185.4 L140.8,187.6 L151.1,191.4 L161.3,192.7 L171.5,189.7 L181.8,191.2 L192.0,196.9 L202.3,201.1 L212.5,203.1 L222.8,204.9 L233.0,208.6 L243.2,206.3 L253.5,208.7 L263.7,209.2 L274.0,187.3 L284.2,182.1 L294.5,184.8 L304.7,179.1 L314.9,184.6 L325.2,185.6 L335.4,189.0 L345.7,194.8 L355.9,190.6 L366.2,192.3 L376.4,194.0 L386.6,191.4 L396.9,193.1 L407.1,171.7 L417.4,150.6 L427.6,161.4 L437.8,167.0 L448.1,168.6 L458.3,173.4 L468.6,177.1 L478.8,179.5 L489.1,183.1 L499.3,186.8 L509.5,189.9 L519.8,192.8 L530.0,179.9 L540.3,176.5 L550.5,182.4 L560.8,174.6 L571.0,170.6 L581.2,174.2 L591.5,174.6 L601.7,156.1 L612.0,154.0 L622.2,158.3 L632.5,147.9 L642.7,153.3 L652.9,157.5 L663.2,160.3 L673.4,142.9 L683.7,137.4 L693.9,144.0 L704.2,132.3 L714.4,130.3 L724.6,134.6 L734.9,139.5" fill="none" stroke="#3987e5" stroke-width="1.8"/>
<text x="69.1" y="238" font-size="10" fill="#898781" text-anchor="middle">04/15</text>
<text x="181.8" y="238" font-size="10" fill="#898781" text-anchor="middle">04/30</text>
<text x="294.5" y="238" font-size="10" fill="#898781" text-anchor="middle">05/19</text>
<text x="407.1" y="238" font-size="10" fill="#898781" text-anchor="middle">06/05</text>
<text x="519.8" y="238" font-size="10" fill="#898781" text-anchor="middle">06/22</text>
<text x="632.5" y="238" font-size="10" fill="#898781" text-anchor="middle">07/07</text>
</svg>