<svg xmlns="http://www.w3.org/2000/svg" width="760" height="560" viewBox="0 0 760 560" font-family='system-ui,-apple-system,"Segoe UI","Malgun Gothic","Apple SD Gothic Neo",sans-serif'>
<rect width="760" height="560" fill="#fcfcfb"/>
<text x="20" y="28" font-size="14.5" font-weight="700" fill="#0b0b0b">ADX / DMI (14)</text>
<text x="20" y="46" font-size="11" fill="#52514e">ADX 25 이상 = 추세 강함. +DI/-DI 교차가 방향 신호.</text>
<line x1="551" y1="24" x2="569" y2="24" stroke="#52514e" stroke-width="2"/>
<text x="574" y="28" font-size="10.5" fill="#52514e">ADX</text>
<line x1="614" y1="24" x2="632" y2="24" stroke="#d64545" stroke-width="2"/>
<text x="637" y="28" font-size="10.5" fill="#52514e">+DI</text>
<line x1="677" y1="24" x2="695" y2="24" stroke="#2a78d6" stroke-width="2"/>
<text x="700" y="28" font-size="10.5" fill="#52514e">-DI</text>
<line x1="64" y1="530.0" x2="740" y2="530.0" stroke="#e1e0d9" stroke-width="1"/>
<text x="58" y="533.5" font-size="10" fill="#898781" text-anchor="end" style="font-variant-numeric:tabular-nums">8</text>
<line x1="64" y1="436.8" x2="740" y2="436.8" stroke="#e1e0d9" stroke-width="1"/>
<text x="58" y="440.3" font-size="10" fill="#898781" text-anchor="end" style="font-variant-numeric:tabular-nums">15</text>
<line x1="64" y1="343.6" x2="740" y2="343.6" stroke="#e1e0d9" stroke-width="1"/>
<text x="58" y="347.1" font-size="10" fill="#898781" text-anchor="end" style="font-variant-numeric:tabular-nums">23</text>
<line x1="64" y1="250.4" x2="740" y2="250.4" stroke="#e1e0d9" stroke-width="1"/>
<text x="58" y="253.9" font-size="10" fill="#898781" text-anchor="end" style="font-variant-numeric:tabular-nums">30</text>
<line x1="64" y1="157.2" x2="740" y2="157.2" stroke="#e1e0d9" stroke-width="1"/>
<text x="58" y="160.7" font-size="10" fill="#898781" text-anchor="end" style="font-variant-numeric:tabular-nums">37</text>
<line x1="64" y1="64.0" x2="740" y2="64.0" stroke="#e1e0d9" stroke-width="1"/>
<text x="58" y="67.5" font-size="10" fill="#898781" text-anchor="end" style="font-variant-numeric:tabular-nums">45</text>
<line x1="64" y1="313.4" x2="740" y2="313.4" stroke="#898781" stroke-width="1" stroke-dasharray="3 4"/>
<text x="742" y="316.4" font-size="9" fill="#898781">25</text>
<path d="M69.1,126.3 L79.4,127.2 L89.6,139.7 L99.8,157.3 L110.1,171.0 L120.3,186.8 L130.6,215.0 L140.8,233.8 L151.1,254.0 L161.3,262.5 L171.5,270.2 L181.8,277.4 L192.0,286.7 L202.3,280.5 L212.5,268.9 L222.8,274.9 L233.0,271.2 L243.2,265.0 L253.5,259.1 L263.7,261.9 L274.0,264.5 L284.2,263.0 L294.5,259.7 L304.7,250.6 L314.9,232.6 L325.2,215.9 L335.4,220.2 L345.7,223.3 L355.9,223.0 L366.2,228.1 L376.4,226.1 L386.6,221.5 L396.9,216.9 L407.1,211.5 L417.4,215.0 L427.6,225.4 L437.8,240.1 L448.1,261.1 L458.3,271.5 L468.6,292.8 L478.8,316.1 L489.1,337.9 L499.3,351.7 L509.5,368.1 L519.8,386.2 L530.0,400.0 L540.3,407.4 L550.5,417.5 L560.8,424.0 L571.0,425.9 L581.2,431.1 L591.5,445.1 L601.7,449.7 L612.0,454.0 L622.2,457.4 L632.5,465.1 L642.7,473.2 L652.9,479.2 L663.2,488.3 L673.4,497.2 L683.7,497.9 L693.9,495.4 L704.2,488.5 L714.4,482.0 L724.6,485.6 L734.9,490.7" fill="none" stroke="#52514e" stroke-width="1.8"/>
<path d="M69.1,225.2 L79.4,151.9 L89.6,202.5 L99.8,227.3 L110.1,231.6 L120.3,261.4 L130.6,305.5 L140.8,345.6 L151.1,346.8 L161.3,369.3 L171.5,389.2 L181.8,403.4 L192.0,399.3 L202.3,423.1 L212.5,439.2 L222.8,364.9 L233.0,385.4 L243.2,397.1 L253.5,408.5 L263.7,373.9 L274.0,383.8 L284.2,397.5 L294.5,406.6 L304.7,426.7 L314.9,450.9 L325.2,460.9 L335.4,380.5 L345.7,392.8 L355.9,404.0 L366.2,383.4 L376.4,398.9 L386.6,409.5 L396.9,416.6 L407.1,423.2 L417.4,387.2 L427.6,357.2 L437.8,336.3 L448.1,305.3 L458.3,328.7 L468.6,273.4 L478.8,260.9 L489.1,269.8 L499.3,289.9 L509.5,273.8 L519.8,259.3 L530.0,273.0 L540.3,289.9 L550.5,275.3 L560.8,290.4 L571.0,307.1 L581.2,298.8 L591.5,253.9 L601.7,202.7 L612.0,224.6 L622.2,238.1 L632.5,258.0 L642.7,285.8 L652.9,298.1 L663.2,288.8 L673.4,279.2 L683.7,245.1 L693.9,229.0 L704.2,216.5 L714.4,235.2 L724.6,261.6 L734.9,269.0" fill="none" stroke="#d64545" stroke-width="1.8"/>
<path d="M69.1,388.0 L79.4,418.7 L89.6,378.0 L99.8,357.0 L110.1,375.6 L120.3,377.9 L130.6,280.1 L140.8,269.0 L151.1,291.6 L161.3,237.3 L171.5,265.7 L181.8,287.3 L192.0,302.2 L202.3,210.6 L212.5,181.8 L222.8,216.4 L233.0,154.9 L243.2,144.4 L253.5,167.0 L263.7,192.9 L274.0,209.8 L284.2,194.0 L294.5,191.5 L304.7,163.7 L314.9,96.1 L325.2,126.1 L335.4,187.6 L345.7,199.8 L355.9,187.9 L366.2,206.2 L376.4,162.1 L386.6,152.1 L396.9,162.2 L407.1,165.2 L417.4,187.4 L427.6,210.1 L437.8,227.9 L448.1,252.9 L458.3,200.2 L468.6,238.3 L478.8,255.2 L489.1,274.5 L499.3,232.9 L509.5,245.8 L519.8,263.5 L530.0,243.8 L540.3,215.0 L550.5,227.9 L560.8,218.4 L571.0,201.8 L581.2,222.4 L591.5,252.9 L601.7,276.4 L612.0,294.4 L622.2,309.9 L632.5,293.7 L642.7,257.2 L652.9,258.8 L663.2,276.2 L673.4,287.8 L683.7,313.0 L693.9,322.0 L704.2,343.8 L714.4,356.7 L724.6,313.8 L734.9,307.8" fill="none" stroke="#2a78d6" stroke-width="1.8"/>
<text x="69.1" y="548" font-size="10" fill="#898781" text-anchor="middle">06/24</text>
<text x="181.8" y="548" font-size="10" fill="#898781" text-anchor="middle">07/09</text>
<text x="294.5" y="548" font-size="10" fill="#898781" text-anchor="middle">07/27</text>
<text x="407.1" y="548" font-size="10" fill="#898781" text-anchor="middle">08/11</text>
<text x="519.8" y="548" font-size="10" fill="#898781" text-anchor="middle">08/27</text>
<text x="632.5" y="548" font-size="10" fill="#898781" text-anchor="middle">09/11</text>
</svg>