<svg xmlns="http://www.w3.org/2000/svg" width="760" height="250" viewBox="0 0 760 250" font-family='system-ui,-apple-system,"Segoe UI","Malgun Gothic","Apple SD Gothic Neo",sans-serif'>
<rect width="760" height="250" fill="#1a1a19"/>
<text x="20" y="28" font-size="14.5" font-weight="700" fill="#ffffff">ADX / DMI (14)</text>
<text x="20" y="46" font-size="11" fill="#c3c2b7">ADX 25 이상 = 추세 강함. +DI/-DI 교차가 방향 신호.</text>
<line x1="551" y1="24" x2="569" y2="24" stroke="#c3c2b7" stroke-width="2"/>
<text x="574" y="28" font-size="10.5" fill="#c3c2b7">ADX</text>
<line x1="614" y1="24" x2="632" y2="24" stroke="#e66767" stroke-width="2"/>
<text x="637" y="28" font-size="10.5" fill="#c3c2b7">+DI</text>
<line x1="677" y1="24" x2="695" y2="24" stroke="#3987e5" stroke-width="2"/>
<text x="700" y="28" font-size="10.5" fill="#c3c2b7">-DI</text>
<line x1="64" y1="220.0" x2="740" y2="220.0" stroke="#2c2c2a" stroke-width="1"/>
<text x="58" y="223.5" font-size="10" fill="#898781" text-anchor="end" style="font-variant-numeric:tabular-nums">1</text>
<line x1="64" y1="168.0" x2="740" y2="168.0" stroke="#2c2c2a" stroke-width="1"/>
<text x="58" y="171.5" font-size="10" fill="#898781" text-anchor="end" style="font-variant-numeric:tabular-nums">23</text>
<line x1="64" y1="116.0" x2="740" y2="116.0" stroke="#2c2c2a" stroke-width="1"/>
<text x="58" y="119.5" font-size="10" fill="#898781" text-anchor="end" style="font-variant-numeric:tabular-nums">44</text>
<line x1="64" y1="64.0" x2="740" y2="64.0" stroke="#2c2c2a" stroke-width="1"/>
<text x="58" y="67.5" font-size="10" fill="#898781" text-anchor="end" style="font-variant-numeric:tabular-nums">66</text>
<line x1="64" y1="162.5" x2="740" y2="162.5" stroke="#898781" stroke-width="1" stroke-dasharray="3 4"/>
<text x="742" y="165.5" font-size="9" fill="#898781">25</text>
<path d="M69.1,179.2 L79.4,177.1 L89.6,174.7 L99.8,171.2 L110.1,167.9 L120.3,164.1 L130.6,160.6 L140.8,155.8 L151.1,151.3 L161.3,147.9 L171.5,144.6 L181.8,139.5 L192.0,133.1 L202.3,126.8 L212.5,120.7 L222.8,113.8 L233.0,108.2 L243.2,103.0 L253.5,98.2 L263.7,99.4 L274.0,102.3 L284.2,105.0 L294.5,109.1 L304.7,110.3 L314.9,111.4 L325.2,110.8 L335.4,108.1 L345.7,106.9 L355.9,105.2 L366.2,103.6 L376.4,103.0 L386.6,102.6 L396.9,107.0 L407.1,115.1 L417.4,120.5 L427.6,125.5 L437.8,130.8 L448.1,133.9 L458.3,136.5 L468.6,137.9 L478.8,137.9 L489.1,136.1 L499.3,133.3 L509.5,130.4 L519.8,131.3 L530.0,133.5 L540.3,133.3 L550.5,135.2 L560.8,138.2 L571.0,140.4 L581.2,143.1 L591.5,148.1 L601.7,151.3 L612.0,154.9 L622.2,156.2 L632.5,157.4 L642.7,158.5 L652.9,160.1 L663.2,158.7 L673.4,156.3 L683.7,157.3 L693.9,156.4 L704.2,155.1 L714.4,153.8 L724.6,154.2 L734.9,154.6" fill="none" stroke="#c3c2b7" stroke-width="1.8"/>
<path d="M69.1,126.9 L79.4,130.7 L89.6,130.1 L99.8,121.8 L110.1,125.0 L120.3,125.1 L130.6,130.8 L140.8,120.1 L151.1,121.4 L161.3,125.8 L171.5,128.1 L181.8,112.1 L192.0,91.4 L202.3,92.0 L212.5,98.6 L222.8,74.8 L233.0,93.0 L243.2,111.8 L253.5,115.7 L263.7,130.3 L274.0,140.2 L284.2,145.5 L294.5,149.9 L304.7,133.3 L314.9,135.6 L325.2,123.1 L335.4,103.6 L345.7,113.8 L355.9,109.3 L366.2,113.3 L376.4,122.4 L386.6,128.1 L396.9,139.8 L407.1,149.1 L417.4,142.5 L427.6,150.7 L437.8,157.3 L448.1,148.2 L458.3,151.9 L468.6,147.1 L478.8,140.3 L489.1,125.8 L499.3,118.6 L509.5,122.6 L519.8,138.0 L530.0,145.8 L540.3,131.9 L550.5,141.5 L560.8,146.2 L571.0,147.0 L581.2,152.7 L591.5,161.1 L601.7,168.7 L612.0,168.9 L622.2,173.2 L632.5,176.9 L642.7,179.6 L652.9,178.9 L663.2,183.4 L673.4,186.4 L683.7,172.3 L693.9,176.2 L704.2,178.4 L714.4,180.6 L724.6,174.0 L734.9,175.9" fill="none" stroke="#e66767" stroke-width="1.8"/>
<path d="M69.1,173.9 L79.4,173.3 L89.6,176.0 L99.8,179.4 L110.1,181.4 L120.3,185.4 L130.6,187.6 L140.8,191.4 L151.1,192.7 L161.3,189.7 L171.5,191.2 L181.8,196.9 L192.0,201.1 L202.3,203.1 L212.5,204.9 L222.8,208.6 L233.0,206.3 L243.2,208.7 L253.5,209.2 L263.7,187.4 L274.0,182.2 L284.2,184.8 L294.5,179.1 L304.7,184.7 L314.9,185.6 L325.2,189.0 L335.4,194.8 L345.7,190.6 L355.9,192.3 L366.2,194.0 L376.4,191.4 L386.6,193.1 L396.9,171.7 L407.1,150.7 L417.4,161.4 L427.6,167.0 L437.8,168.6 L448.1,173.4 L458.3,177.1 L468.6,179.5 L478.8,183.1 L489.1,186.8 L499.3,189.9 L509.5,192.8 L519.8,179.9 L530.0,176.5 L540.3,182.4 L550.5,174.6 L560.8,170.7 L571.0,174.2 L581.2,174.7 L591.5,156.1 L601.7,154.0 L612.0,158.3 L622.2,148.0 L632.5,153.4 L642.7,157.5 L652.9,160.3 L663.2,142.9 L673.4,137.4 L683.7,144.0 L693.9,132.3 L704.2,130.3 L714.4,134.6 L724.6,139.5 L734.9,142.8" fill="none" stroke="#3987e5" stroke-width="1.8"/>
<text x="69.1" y="238" font-size="10" fill="#898781" text-anchor="middle">04/16</text>
<text x="181.8" y="238" font-size="10" fill="#898781" text-anchor="middle">05/04</text>
<text x="294.5" y="238" font-size="10" fill="#898781" text-anchor="middle">05/20</text>
<text x="407.1" y="238" font-size="10" fill="#898781" text-anchor="middle">06/08</text>
<text x="519.8" y="238" font-size="10" fill="#898781" text-anchor="middle">06/23</text>
<text x="632.5" y="238" font-size="10" fill="#898781" text-anchor="middle">07/08</text>
</svg>