<svg xmlns="http://www.w3.org/2000/svg" width="760" height="560" viewBox="0 0 760 560" font-family='system-ui,-apple-system,"Segoe UI","Malgun Gothic","Apple SD Gothic Neo",sans-serif'>
<rect width="760" height="560" fill="#fcfcfb"/>
<text x="20" y="28" font-size="14.5" font-weight="700" fill="#0b0b0b">ATR (14)</text>
<text x="20" y="46" font-size="11" fill="#52514e">원. 일 평균 변동폭 — 높을수록 변동성 큼.</text>
<line x1="677" y1="24" x2="695" y2="24" stroke="#e87ba4" stroke-width="2"/>
<text x="700" y="28" font-size="10.5" fill="#52514e">ATR</text>
<line x1="64" y1="530.0" x2="740" y2="530.0" stroke="#e1e0d9" stroke-width="1"/>
<text x="58" y="533.5" font-size="10" fill="#898781" text-anchor="end" style="font-variant-numeric:tabular-nums">9.9만</text>
<line x1="64" y1="436.8" x2="740" y2="436.8" stroke="#e1e0d9" stroke-width="1"/>
<text x="58" y="440.3" font-size="10" fill="#898781" text-anchor="end" style="font-variant-numeric:tabular-nums">12.9만</text>
<line x1="64" y1="343.6" x2="740" y2="343.6" stroke="#e1e0d9" stroke-width="1"/>
<text x="58" y="347.1" font-size="10" fill="#898781" text-anchor="end" style="font-variant-numeric:tabular-nums">15.9만</text>
<line x1="64" y1="250.4" x2="740" y2="250.4" stroke="#e1e0d9" stroke-width="1"/>
<text x="58" y="253.9" font-size="10" fill="#898781" text-anchor="end" style="font-variant-numeric:tabular-nums">19.0만</text>
<line x1="64" y1="157.2" x2="740" y2="157.2" stroke="#e1e0d9" stroke-width="1"/>
<text x="58" y="160.7" font-size="10" fill="#898781" text-anchor="end" style="font-variant-numeric:tabular-nums">22.0만</text>
<line x1="64" y1="64.0" x2="740" y2="64.0" stroke="#e1e0d9" stroke-width="1"/>
<text x="58" y="67.5" font-size="10" fill="#898781" text-anchor="end" style="font-variant-numeric:tabular-nums">25.0만</text>
<path d="M69.1,497.9 L79.4,475.9 L89.6,492.8 L99.8,485.1 L110.1,442.7 L120.3,436.8 L130.6,445.4 L140.8,450.8 L151.1,445.7 L161.3,451.9 L171.5,429.1 L181.8,410.3 L192.0,371.3 L202.3,355.4 L212.5,344.9 L222.8,335.2 L233.0,333.1 L243.2,343.8 L253.5,337.3 L263.7,325.1 L274.0,316.2 L284.2,305.5 L294.5,253.7 L304.7,240.2 L314.9,202.2 L325.2,177.6 L335.4,186.9 L345.7,189.0 L355.9,186.5 L366.2,150.7 L376.4,109.6 L386.6,116.3 L396.9,109.7 L407.1,105.9 L417.4,115.2 L427.6,136.0 L437.8,110.9 L448.1,105.9 L458.3,101.2 L468.6,96.1 L478.8,114.3 L489.1,131.3 L499.3,142.8 L509.5,166.2 L519.8,177.2 L530.0,199.1 L540.3,186.0 L550.5,150.3 L560.8,161.3 L571.0,122.3 L581.2,138.9 L591.5,156.2 L601.7,177.4 L612.0,183.2 L622.2,200.5 L632.5,226.0 L642.7,251.4 L652.9,265.8 L663.2,277.8 L673.4,294.7 L683.7,299.8 L693.9,299.3 L704.2,289.2 L714.4,305.2 L724.6,316.2 L734.9,324.6" fill="none" stroke="#e87ba4" stroke-width="1.8"/>
<text x="69.1" y="548" font-size="10" fill="#898781" text-anchor="middle">05/20</text>
<text x="181.8" y="548" font-size="10" fill="#898781" text-anchor="middle">06/08</text>
<text x="294.5" y="548" font-size="10" fill="#898781" text-anchor="middle">06/23</text>
<text x="407.1" y="548" font-size="10" fill="#898781" text-anchor="middle">07/08</text>
<text x="519.8" y="548" font-size="10" fill="#898781" text-anchor="middle">07/24</text>
<text x="632.5" y="548" font-size="10" fill="#898781" text-anchor="middle">08/10</text>
</svg>