<svg xmlns="http://www.w3.org/2000/svg" width="760" height="560" viewBox="0 0 760 560" font-family='system-ui,-apple-system,"Segoe UI","Malgun Gothic","Apple SD Gothic Neo",sans-serif'>
<rect width="760" height="560" fill="#fcfcfb"/>
<text x="20" y="28" font-size="14.5" font-weight="700" fill="#0b0b0b">ATR (14)</text>
<text x="20" y="46" font-size="11" fill="#52514e">원. 일 평균 변동폭 — 높을수록 변동성 큼.</text>
<line x1="677" y1="24" x2="695" y2="24" stroke="#e87ba4" stroke-width="2"/>
<text x="700" y="28" font-size="10.5" fill="#52514e">ATR</text>
<line x1="64" y1="530.0" x2="740" y2="530.0" stroke="#e1e0d9" stroke-width="1"/>
<text x="58" y="533.5" font-size="10" fill="#898781" text-anchor="end" style="font-variant-numeric:tabular-nums">9.2만</text>
<line x1="64" y1="436.8" x2="740" y2="436.8" stroke="#e1e0d9" stroke-width="1"/>
<text x="58" y="440.3" font-size="10" fill="#898781" text-anchor="end" style="font-variant-numeric:tabular-nums">12.3만</text>
<line x1="64" y1="343.6" x2="740" y2="343.6" stroke="#e1e0d9" stroke-width="1"/>
<text x="58" y="347.1" font-size="10" fill="#898781" text-anchor="end" style="font-variant-numeric:tabular-nums">15.5만</text>
<line x1="64" y1="250.4" x2="740" y2="250.4" stroke="#e1e0d9" stroke-width="1"/>
<text x="58" y="253.9" font-size="10" fill="#898781" text-anchor="end" style="font-variant-numeric:tabular-nums">18.7만</text>
<line x1="64" y1="157.2" x2="740" y2="157.2" stroke="#e1e0d9" stroke-width="1"/>
<text x="58" y="160.7" font-size="10" fill="#898781" text-anchor="end" style="font-variant-numeric:tabular-nums">21.9만</text>
<line x1="64" y1="64.0" x2="740" y2="64.0" stroke="#e1e0d9" stroke-width="1"/>
<text x="58" y="67.5" font-size="10" fill="#898781" text-anchor="end" style="font-variant-numeric:tabular-nums">25.1만</text>
<path d="M69.1,305.4 L79.4,295.2 L89.6,246.1 L99.8,233.2 L110.1,197.0 L120.3,173.7 L130.6,182.5 L140.8,184.5 L151.1,182.1 L161.3,148.1 L171.5,109.0 L181.8,115.3 L192.0,109.1 L202.3,105.4 L212.5,114.3 L222.8,134.1 L233.0,110.2 L243.2,105.4 L253.5,100.9 L263.7,96.1 L274.0,113.4 L284.2,129.5 L294.5,140.5 L304.7,162.7 L314.9,173.2 L325.2,194.0 L335.4,181.5 L345.7,147.6 L355.9,158.1 L366.2,121.0 L376.4,136.7 L386.6,153.2 L396.9,173.3 L407.1,178.8 L417.4,195.3 L427.6,219.5 L437.8,243.7 L448.1,257.3 L458.3,268.7 L468.6,284.8 L478.8,289.7 L489.1,289.2 L499.3,279.5 L509.5,294.8 L519.8,305.2 L530.0,313.2 L540.3,332.6 L550.5,344.9 L560.8,361.2 L571.0,372.1 L581.2,389.8 L591.5,402.0 L601.7,411.2 L612.0,420.7 L622.2,419.2 L632.5,422.8 L642.7,430.8 L652.9,440.5 L663.2,448.2 L673.4,446.9 L683.7,459.8 L693.9,468.5 L704.2,481.6 L714.4,480.7 L724.6,494.8 L734.9,497.9" fill="none" stroke="#e87ba4" stroke-width="1.8"/>
<text x="69.1" y="548" font-size="10" fill="#898781" text-anchor="middle">06/19</text>
<text x="181.8" y="548" font-size="10" fill="#898781" text-anchor="middle">07/06</text>
<text x="294.5" y="548" font-size="10" fill="#898781" text-anchor="middle">07/22</text>
<text x="407.1" y="548" font-size="10" fill="#898781" text-anchor="middle">08/06</text>
<text x="519.8" y="548" font-size="10" fill="#898781" text-anchor="middle">08/24</text>
<text x="632.5" y="548" font-size="10" fill="#898781" text-anchor="middle">09/08</text>
</svg>