<svg xmlns="http://www.w3.org/2000/svg" width="760" height="560" viewBox="0 0 760 560" font-family='system-ui,-apple-system,"Segoe UI","Malgun Gothic","Apple SD Gothic Neo",sans-serif'>
<rect width="760" height="560" fill="#fcfcfb"/>
<text x="20" y="28" font-size="14.5" font-weight="700" fill="#0b0b0b">ATR (14)</text>
<text x="20" y="46" font-size="11" fill="#52514e">원. 일 평균 변동폭 — 높을수록 변동성 큼.</text>
<line x1="677" y1="24" x2="695" y2="24" stroke="#e87ba4" stroke-width="2"/>
<text x="700" y="28" font-size="10.5" fill="#52514e">ATR</text>
<line x1="64" y1="530.0" x2="740" y2="530.0" stroke="#e1e0d9" stroke-width="1"/>
<text x="58" y="533.5" font-size="10" fill="#898781" text-anchor="end" style="font-variant-numeric:tabular-nums">8.9만</text>
<line x1="64" y1="436.8" x2="740" y2="436.8" stroke="#e1e0d9" stroke-width="1"/>
<text x="58" y="440.3" font-size="10" fill="#898781" text-anchor="end" style="font-variant-numeric:tabular-nums">12.1만</text>
<line x1="64" y1="343.6" x2="740" y2="343.6" stroke="#e1e0d9" stroke-width="1"/>
<text x="58" y="347.1" font-size="10" fill="#898781" text-anchor="end" style="font-variant-numeric:tabular-nums">15.4만</text>
<line x1="64" y1="250.4" x2="740" y2="250.4" stroke="#e1e0d9" stroke-width="1"/>
<text x="58" y="253.9" font-size="10" fill="#898781" text-anchor="end" style="font-variant-numeric:tabular-nums">18.6만</text>
<line x1="64" y1="157.2" x2="740" y2="157.2" stroke="#e1e0d9" stroke-width="1"/>
<text x="58" y="160.7" font-size="10" fill="#898781" text-anchor="end" style="font-variant-numeric:tabular-nums">21.9만</text>
<line x1="64" y1="64.0" x2="740" y2="64.0" stroke="#e1e0d9" stroke-width="1"/>
<text x="58" y="67.5" font-size="10" fill="#898781" text-anchor="end" style="font-variant-numeric:tabular-nums">25.1만</text>
<path d="M69.1,301.6 L79.4,291.6 L89.6,243.3 L99.8,230.7 L110.1,195.2 L120.3,172.3 L130.6,180.9 L140.8,182.8 L151.1,180.5 L161.3,147.1 L171.5,108.7 L181.8,115.0 L192.0,108.9 L202.3,105.2 L212.5,114.0 L222.8,133.4 L233.0,110.0 L243.2,105.2 L253.5,100.8 L263.7,96.1 L274.0,113.1 L284.2,128.9 L294.5,139.6 L304.7,161.5 L314.9,171.8 L325.2,192.2 L335.4,179.9 L345.7,146.6 L355.9,156.9 L366.2,120.5 L376.4,136.0 L386.6,152.1 L396.9,171.9 L407.1,177.3 L417.4,193.4 L427.6,217.2 L437.8,240.9 L448.1,254.4 L458.3,265.6 L468.6,281.3 L478.8,286.1 L489.1,285.6 L499.3,276.1 L509.5,291.1 L519.8,301.4 L530.0,309.2 L540.3,328.2 L550.5,340.3 L560.8,356.3 L571.0,367.0 L581.2,384.4 L591.5,396.3 L601.7,405.4 L612.0,414.7 L622.2,413.2 L632.5,416.8 L642.7,424.6 L652.9,434.1 L663.2,441.8 L673.4,440.4 L683.7,453.1 L693.9,461.6 L704.2,474.5 L714.4,473.7 L724.6,487.5 L734.9,497.9" fill="none" stroke="#e87ba4" stroke-width="1.8"/>
<text x="69.1" y="548" font-size="10" fill="#898781" text-anchor="middle">06/19</text>
<text x="181.8" y="548" font-size="10" fill="#898781" text-anchor="middle">07/06</text>
<text x="294.5" y="548" font-size="10" fill="#898781" text-anchor="middle">07/22</text>
<text x="407.1" y="548" font-size="10" fill="#898781" text-anchor="middle">08/06</text>
<text x="519.8" y="548" font-size="10" fill="#898781" text-anchor="middle">08/24</text>
<text x="632.5" y="548" font-size="10" fill="#898781" text-anchor="middle">09/08</text>
</svg>