<svg xmlns="http://www.w3.org/2000/svg" width="760" height="560" viewBox="0 0 760 560" font-family='system-ui,-apple-system,"Segoe UI","Malgun Gothic","Apple SD Gothic Neo",sans-serif'>
<rect width="760" height="560" fill="#fcfcfb"/>
<text x="20" y="28" font-size="14.5" font-weight="700" fill="#0b0b0b">ATR (14)</text>
<text x="20" y="46" font-size="11" fill="#52514e">원. 일 평균 변동폭 — 높을수록 변동성 큼.</text>
<line x1="677" y1="24" x2="695" y2="24" stroke="#e87ba4" stroke-width="2"/>
<text x="700" y="28" font-size="10.5" fill="#52514e">ATR</text>
<line x1="64" y1="530.0" x2="740" y2="530.0" stroke="#e1e0d9" stroke-width="1"/>
<text x="58" y="533.5" font-size="10" fill="#898781" text-anchor="end" style="font-variant-numeric:tabular-nums">11.5만</text>
<line x1="64" y1="436.8" x2="740" y2="436.8" stroke="#e1e0d9" stroke-width="1"/>
<text x="58" y="440.3" font-size="10" fill="#898781" text-anchor="end" style="font-variant-numeric:tabular-nums">14.2만</text>
<line x1="64" y1="343.6" x2="740" y2="343.6" stroke="#e1e0d9" stroke-width="1"/>
<text x="58" y="347.1" font-size="10" fill="#898781" text-anchor="end" style="font-variant-numeric:tabular-nums">16.8만</text>
<line x1="64" y1="250.4" x2="740" y2="250.4" stroke="#e1e0d9" stroke-width="1"/>
<text x="58" y="253.9" font-size="10" fill="#898781" text-anchor="end" style="font-variant-numeric:tabular-nums">19.5만</text>
<line x1="64" y1="157.2" x2="740" y2="157.2" stroke="#e1e0d9" stroke-width="1"/>
<text x="58" y="160.7" font-size="10" fill="#898781" text-anchor="end" style="font-variant-numeric:tabular-nums">22.2만</text>
<line x1="64" y1="64.0" x2="740" y2="64.0" stroke="#e1e0d9" stroke-width="1"/>
<text x="58" y="67.5" font-size="10" fill="#898781" text-anchor="end" style="font-variant-numeric:tabular-nums">24.9만</text>
<path d="M69.1,451.0 L79.4,407.0 L89.6,388.9 L99.8,377.1 L110.1,366.2 L120.3,363.7 L130.6,375.7 L140.8,368.3 L151.1,354.5 L161.3,344.4 L171.5,332.3 L181.8,274.0 L192.0,258.8 L202.3,215.9 L212.5,188.2 L222.8,198.6 L233.0,200.9 L243.2,198.1 L253.5,157.8 L263.7,111.4 L274.0,118.9 L284.2,111.6 L294.5,107.2 L304.7,117.7 L314.9,141.1 L325.2,112.8 L335.4,107.1 L345.7,101.8 L355.9,96.1 L366.2,116.6 L376.4,135.7 L386.6,148.6 L396.9,175.1 L407.1,187.4 L417.4,212.1 L427.6,197.3 L437.8,157.0 L448.1,169.5 L458.3,125.5 L468.6,144.2 L478.8,163.7 L489.1,187.6 L499.3,194.1 L509.5,213.6 L519.8,242.3 L530.0,270.9 L540.3,287.1 L550.5,300.6 L560.8,319.7 L571.0,325.4 L581.2,324.9 L591.5,313.4 L601.7,331.5 L612.0,343.9 L622.2,353.4 L632.5,376.3 L642.7,390.9 L652.9,410.2 L663.2,423.1 L673.4,444.0 L683.7,458.5 L693.9,469.5 L704.2,480.7 L714.4,478.9 L724.6,483.2 L734.9,497.9" fill="none" stroke="#e87ba4" stroke-width="1.8"/>
<text x="69.1" y="548" font-size="10" fill="#898781" text-anchor="middle">06/08</text>
<text x="181.8" y="548" font-size="10" fill="#898781" text-anchor="middle">06/23</text>
<text x="294.5" y="548" font-size="10" fill="#898781" text-anchor="middle">07/08</text>
<text x="407.1" y="548" font-size="10" fill="#898781" text-anchor="middle">07/24</text>
<text x="519.8" y="548" font-size="10" fill="#898781" text-anchor="middle">08/10</text>
<text x="632.5" y="548" font-size="10" fill="#898781" text-anchor="middle">08/26</text>
</svg>