<svg xmlns="http://www.w3.org/2000/svg" width="760" height="250" viewBox="0 0 760 250" font-family='system-ui,-apple-system,"Segoe UI","Malgun Gothic","Apple SD Gothic Neo",sans-serif'>
<rect width="760" height="250" fill="#1a1a19"/>
<text x="20" y="28" font-size="14.5" font-weight="700" fill="#ffffff">ATR (14)</text>
<text x="20" y="46" font-size="11" fill="#c3c2b7">원. 일 평균 변동폭 — 높을수록 변동성 큼.</text>
<line x1="677" y1="24" x2="695" y2="24" stroke="#d55181" stroke-width="2"/>
<text x="700" y="28" font-size="10.5" fill="#c3c2b7">ATR</text>
<line x1="64" y1="220.0" x2="740" y2="220.0" stroke="#2c2c2a" stroke-width="1"/>
<text x="58" y="223.5" font-size="10" fill="#898781" text-anchor="end" style="font-variant-numeric:tabular-nums">4만</text>
<line x1="64" y1="168.0" x2="740" y2="168.0" stroke="#2c2c2a" stroke-width="1"/>
<text x="58" y="171.5" font-size="10" fill="#898781" text-anchor="end" style="font-variant-numeric:tabular-nums">11만</text>
<line x1="64" y1="116.0" x2="740" y2="116.0" stroke="#2c2c2a" stroke-width="1"/>
<text x="58" y="119.5" font-size="10" fill="#898781" text-anchor="end" style="font-variant-numeric:tabular-nums">18만</text>
<line x1="64" y1="64.0" x2="740" y2="64.0" stroke="#2c2c2a" stroke-width="1"/>
<text x="58" y="67.5" font-size="10" fill="#898781" text-anchor="end" style="font-variant-numeric:tabular-nums">25만</text>
<path d="M69.1,203.1 L79.4,202.9 L89.6,204.7 L99.8,206.2 L110.1,207.0 L120.3,206.9 L130.6,208.1 L140.8,206.8 L151.1,207.4 L161.3,205.5 L171.5,206.9 L181.8,208.2 L192.0,209.2 L202.3,203.6 L212.5,198.2 L222.8,196.9 L233.0,195.6 L243.2,185.8 L253.5,181.9 L263.7,175.9 L274.0,178.3 L284.2,172.6 L294.5,169.5 L304.7,170.1 L314.9,171.3 L325.2,166.0 L335.4,170.0 L345.7,168.1 L355.9,158.0 L366.2,156.6 L376.4,158.6 L386.6,159.9 L396.9,158.6 L407.1,160.1 L417.4,154.6 L427.6,150.1 L437.8,140.8 L448.1,136.9 L458.3,134.4 L468.6,132.1 L478.8,131.6 L489.1,134.1 L499.3,132.6 L509.5,129.6 L519.8,127.5 L530.0,124.9 L540.3,112.5 L550.5,109.3 L560.8,100.2 L571.0,94.3 L581.2,96.5 L591.5,97.0 L601.7,96.4 L612.0,87.8 L622.2,78.0 L632.5,79.6 L642.7,78.0 L652.9,77.1 L663.2,79.3 L673.4,84.3 L683.7,78.3 L693.9,77.1 L704.2,76.0 L714.4,74.8 L724.6,79.1 L734.9,83.2" fill="none" stroke="#d55181" stroke-width="1.8"/>
<text x="69.1" y="238" font-size="10" fill="#898781" text-anchor="middle">04/14</text>
<text x="181.8" y="238" font-size="10" fill="#898781" text-anchor="middle">04/29</text>
<text x="294.5" y="238" font-size="10" fill="#898781" text-anchor="middle">05/18</text>
<text x="407.1" y="238" font-size="10" fill="#898781" text-anchor="middle">06/04</text>
<text x="519.8" y="238" font-size="10" fill="#898781" text-anchor="middle">06/19</text>
<text x="632.5" y="238" font-size="10" fill="#898781" text-anchor="middle">07/06</text>
</svg>