<svg xmlns="http://www.w3.org/2000/svg" width="760" height="250" viewBox="0 0 760 250" font-family='system-ui,-apple-system,"Segoe UI","Malgun Gothic","Apple SD Gothic Neo",sans-serif'>
<rect width="760" height="250" fill="#1a1a19"/>
<text x="20" y="28" font-size="14.5" font-weight="700" fill="#ffffff">ATR (14)</text>
<text x="20" y="46" font-size="11" fill="#c3c2b7">원. 일 평균 변동폭 — 높을수록 변동성 큼.</text>
<line x1="677" y1="24" x2="695" y2="24" stroke="#d55181" stroke-width="2"/>
<text x="700" y="28" font-size="10.5" fill="#c3c2b7">ATR</text>
<line x1="64" y1="220.0" x2="740" y2="220.0" stroke="#2c2c2a" stroke-width="1"/>
<text x="58" y="223.5" font-size="10" fill="#898781" text-anchor="end" style="font-variant-numeric:tabular-nums">4만</text>
<line x1="64" y1="168.0" x2="740" y2="168.0" stroke="#2c2c2a" stroke-width="1"/>
<text x="58" y="171.5" font-size="10" fill="#898781" text-anchor="end" style="font-variant-numeric:tabular-nums">11만</text>
<line x1="64" y1="116.0" x2="740" y2="116.0" stroke="#2c2c2a" stroke-width="1"/>
<text x="58" y="119.5" font-size="10" fill="#898781" text-anchor="end" style="font-variant-numeric:tabular-nums">18만</text>
<line x1="64" y1="64.0" x2="740" y2="64.0" stroke="#2c2c2a" stroke-width="1"/>
<text x="58" y="67.5" font-size="10" fill="#898781" text-anchor="end" style="font-variant-numeric:tabular-nums">25만</text>
<path d="M69.1,206.2 L79.4,206.9 L89.6,206.9 L99.8,208.1 L110.1,206.7 L120.3,207.4 L130.6,205.5 L140.8,206.9 L151.1,208.2 L161.3,209.2 L171.5,203.6 L181.8,198.3 L192.0,196.9 L202.3,195.6 L212.5,185.8 L222.8,181.9 L233.0,175.9 L243.2,178.3 L253.5,172.7 L263.7,169.5 L274.0,170.1 L284.2,171.3 L294.5,166.0 L304.7,170.0 L314.9,168.2 L325.2,158.0 L335.4,156.6 L345.7,158.6 L355.9,159.9 L366.2,158.6 L376.4,160.1 L386.6,154.6 L396.9,150.1 L407.1,140.8 L417.4,137.0 L427.6,134.4 L437.8,132.1 L448.1,131.6 L458.3,134.2 L468.6,132.6 L478.8,129.7 L489.1,127.5 L499.3,124.9 L509.5,112.5 L519.8,109.3 L530.0,100.2 L540.3,94.3 L550.5,96.5 L560.8,97.0 L571.0,96.4 L581.2,87.9 L591.5,78.0 L601.7,79.6 L612.0,78.0 L622.2,77.1 L632.5,79.3 L642.7,84.3 L652.9,78.3 L663.2,77.1 L673.4,76.0 L683.7,74.8 L693.9,79.1 L704.2,83.2 L714.4,85.9 L724.6,91.5 L734.9,94.2" fill="none" stroke="#d55181" stroke-width="1.8"/>
<text x="69.1" y="238" font-size="10" fill="#898781" text-anchor="middle">04/17</text>
<text x="181.8" y="238" font-size="10" fill="#898781" text-anchor="middle">05/06</text>
<text x="294.5" y="238" font-size="10" fill="#898781" text-anchor="middle">05/21</text>
<text x="407.1" y="238" font-size="10" fill="#898781" text-anchor="middle">06/09</text>
<text x="519.8" y="238" font-size="10" fill="#898781" text-anchor="middle">06/24</text>
<text x="632.5" y="238" font-size="10" fill="#898781" text-anchor="middle">07/09</text>
</svg>