<svg xmlns="http://www.w3.org/2000/svg" width="760" height="250" viewBox="0 0 760 250" font-family='system-ui,-apple-system,"Segoe UI","Malgun Gothic","Apple SD Gothic Neo",sans-serif'>
<rect width="760" height="250" fill="#1a1a19"/>
<text x="20" y="28" font-size="14.5" font-weight="700" fill="#ffffff">ATR (14)</text>
<text x="20" y="46" font-size="11" fill="#c3c2b7">원. 일 평균 변동폭 — 높을수록 변동성 큼.</text>
<line x1="677" y1="24" x2="695" y2="24" stroke="#d55181" stroke-width="2"/>
<text x="700" y="28" font-size="10.5" fill="#c3c2b7">ATR</text>
<line x1="64" y1="220.0" x2="740" y2="220.0" stroke="#2c2c2a" stroke-width="1"/>
<text x="58" y="223.5" font-size="10" fill="#898781" text-anchor="end" style="font-variant-numeric:tabular-nums">4만</text>
<line x1="64" y1="168.0" x2="740" y2="168.0" stroke="#2c2c2a" stroke-width="1"/>
<text x="58" y="171.5" font-size="10" fill="#898781" text-anchor="end" style="font-variant-numeric:tabular-nums">11만</text>
<line x1="64" y1="116.0" x2="740" y2="116.0" stroke="#2c2c2a" stroke-width="1"/>
<text x="58" y="119.5" font-size="10" fill="#898781" text-anchor="end" style="font-variant-numeric:tabular-nums">18만</text>
<line x1="64" y1="64.0" x2="740" y2="64.0" stroke="#2c2c2a" stroke-width="1"/>
<text x="58" y="67.5" font-size="10" fill="#898781" text-anchor="end" style="font-variant-numeric:tabular-nums">25만</text>
<path d="M69.1,202.8 L79.4,204.6 L89.6,206.2 L99.8,207.0 L110.1,206.9 L120.3,208.1 L130.6,206.7 L140.8,207.4 L151.1,205.5 L161.3,206.9 L171.5,208.2 L181.8,209.2 L192.0,203.6 L202.3,198.3 L212.5,196.9 L222.8,195.6 L233.0,185.8 L243.2,181.9 L253.5,175.9 L263.7,178.3 L274.0,172.6 L284.2,169.5 L294.5,170.1 L304.7,171.3 L314.9,166.0 L325.2,170.0 L335.4,168.2 L345.7,158.0 L355.9,156.6 L366.2,158.6 L376.4,159.9 L386.6,158.6 L396.9,160.1 L407.1,154.6 L417.4,150.1 L427.6,140.8 L437.8,136.9 L448.1,134.4 L458.3,132.1 L468.6,131.6 L478.8,134.1 L489.1,132.6 L499.3,129.6 L509.5,127.5 L519.8,124.9 L530.0,112.5 L540.3,109.3 L550.5,100.2 L560.8,94.3 L571.0,96.5 L581.2,97.0 L591.5,96.4 L601.7,87.8 L612.0,78.0 L622.2,79.6 L632.5,78.0 L642.7,77.1 L652.9,79.3 L663.2,84.3 L673.4,78.3 L683.7,77.1 L693.9,76.0 L704.2,74.8 L714.4,79.1 L724.6,83.2 L734.9,85.9" fill="none" stroke="#d55181" stroke-width="1.8"/>
<text x="69.1" y="238" font-size="10" fill="#898781" text-anchor="middle">04/15</text>
<text x="181.8" y="238" font-size="10" fill="#898781" text-anchor="middle">04/30</text>
<text x="294.5" y="238" font-size="10" fill="#898781" text-anchor="middle">05/19</text>
<text x="407.1" y="238" font-size="10" fill="#898781" text-anchor="middle">06/05</text>
<text x="519.8" y="238" font-size="10" fill="#898781" text-anchor="middle">06/22</text>
<text x="632.5" y="238" font-size="10" fill="#898781" text-anchor="middle">07/07</text>
</svg>