<svg xmlns="http://www.w3.org/2000/svg" width="760" height="250" viewBox="0 0 760 250" font-family='system-ui,-apple-system,"Segoe UI","Malgun Gothic","Apple SD Gothic Neo",sans-serif'>
<rect width="760" height="250" fill="#1a1a19"/>
<text x="20" y="28" font-size="14.5" font-weight="700" fill="#ffffff">ATR (14)</text>
<text x="20" y="46" font-size="11" fill="#c3c2b7">원. 일 평균 변동폭 — 높을수록 변동성 큼.</text>
<line x1="677" y1="24" x2="695" y2="24" stroke="#d55181" stroke-width="2"/>
<text x="700" y="28" font-size="10.5" fill="#c3c2b7">ATR</text>
<line x1="64" y1="220.0" x2="740" y2="220.0" stroke="#2c2c2a" stroke-width="1"/>
<text x="58" y="223.5" font-size="10" fill="#898781" text-anchor="end" style="font-variant-numeric:tabular-nums">4만</text>
<line x1="64" y1="168.0" x2="740" y2="168.0" stroke="#2c2c2a" stroke-width="1"/>
<text x="58" y="171.5" font-size="10" fill="#898781" text-anchor="end" style="font-variant-numeric:tabular-nums">11만</text>
<line x1="64" y1="116.0" x2="740" y2="116.0" stroke="#2c2c2a" stroke-width="1"/>
<text x="58" y="119.5" font-size="10" fill="#898781" text-anchor="end" style="font-variant-numeric:tabular-nums">18만</text>
<line x1="64" y1="64.0" x2="740" y2="64.0" stroke="#2c2c2a" stroke-width="1"/>
<text x="58" y="67.5" font-size="10" fill="#898781" text-anchor="end" style="font-variant-numeric:tabular-nums">25만</text>
<path d="M69.1,204.6 L79.4,206.2 L89.6,207.0 L99.8,206.9 L110.1,208.1 L120.3,206.7 L130.6,207.4 L140.8,205.5 L151.1,206.9 L161.3,208.2 L171.5,209.2 L181.8,203.6 L192.0,198.3 L202.3,196.9 L212.5,195.6 L222.8,185.8 L233.0,181.9 L243.2,175.9 L253.5,178.3 L263.7,172.6 L274.0,169.5 L284.2,170.1 L294.5,171.3 L304.7,166.0 L314.9,170.0 L325.2,168.2 L335.4,158.0 L345.7,156.6 L355.9,158.6 L366.2,159.9 L376.4,158.6 L386.6,160.1 L396.9,154.6 L407.1,150.1 L417.4,140.8 L427.6,136.9 L437.8,134.4 L448.1,132.1 L458.3,131.6 L468.6,134.1 L478.8,132.6 L489.1,129.6 L499.3,127.5 L509.5,124.9 L519.8,112.5 L530.0,109.3 L540.3,100.2 L550.5,94.3 L560.8,96.5 L571.0,97.0 L581.2,96.4 L591.5,87.8 L601.7,78.0 L612.0,79.6 L622.2,78.0 L632.5,77.1 L642.7,79.3 L652.9,84.3 L663.2,78.3 L673.4,77.1 L683.7,76.0 L693.9,74.8 L704.2,79.1 L714.4,83.2 L724.6,85.9 L734.9,91.5" fill="none" stroke="#d55181" stroke-width="1.8"/>
<text x="69.1" y="238" font-size="10" fill="#898781" text-anchor="middle">04/16</text>
<text x="181.8" y="238" font-size="10" fill="#898781" text-anchor="middle">05/04</text>
<text x="294.5" y="238" font-size="10" fill="#898781" text-anchor="middle">05/20</text>
<text x="407.1" y="238" font-size="10" fill="#898781" text-anchor="middle">06/08</text>
<text x="519.8" y="238" font-size="10" fill="#898781" text-anchor="middle">06/23</text>
<text x="632.5" y="238" font-size="10" fill="#898781" text-anchor="middle">07/08</text>
</svg>