<svg xmlns="http://www.w3.org/2000/svg" width="760" height="560" viewBox="0 0 760 560" font-family='system-ui,-apple-system,"Segoe UI","Malgun Gothic","Apple SD Gothic Neo",sans-serif'>
<rect width="760" height="560" fill="#1a1a19"/>
<text x="20" y="28" font-size="14.5" font-weight="700" fill="#ffffff">일봉 차트 (최근 3개월)</text>
<text x="20" y="46" font-size="11" fill="#c3c2b7">원. 상승=빨강 / 하락=파랑 (국내 관례). 아래: 거래량과 20일 이평선.</text>
<line x1="518" y1="24" x2="536" y2="24" stroke="#e66767" stroke-width="2"/>
<text x="541" y="28" font-size="10.5" fill="#c3c2b7">상승</text>
<line x1="570" y1="24" x2="588" y2="24" stroke="#3987e5" stroke-width="2"/>
<text x="593" y="28" font-size="10.5" fill="#c3c2b7">하락</text>
<line x1="622" y1="24" x2="640" y2="24" stroke="#008300" stroke-width="2"/>
<text x="645" y="28" font-size="10.5" fill="#c3c2b7">거래량 MA20</text>
<line x1="64" y1="394.0" x2="740" y2="394.0" stroke="#2c2c2a" stroke-width="1"/>
<text x="58" y="397.5" font-size="10" fill="#898781" text-anchor="end" style="font-variant-numeric:tabular-nums">98만</text>
<line x1="64" y1="311.5" x2="740" y2="311.5" stroke="#2c2c2a" stroke-width="1"/>
<text x="58" y="315.0" font-size="10" fill="#898781" text-anchor="end" style="font-variant-numeric:tabular-nums">149만</text>
<line x1="64" y1="229.0" x2="740" y2="229.0" stroke="#2c2c2a" stroke-width="1"/>
<text x="58" y="232.5" font-size="10" fill="#898781" text-anchor="end" style="font-variant-numeric:tabular-nums">201만</text>
<line x1="64" y1="146.5" x2="740" y2="146.5" stroke="#2c2c2a" stroke-width="1"/>
<text x="58" y="150.0" font-size="10" fill="#898781" text-anchor="end" style="font-variant-numeric:tabular-nums">253만</text>
<line x1="64" y1="64.0" x2="740" y2="64.0" stroke="#2c2c2a" stroke-width="1"/>
<text x="58" y="67.5" font-size="10" fill="#898781" text-anchor="end" style="font-variant-numeric:tabular-nums">305만</text>
<line x1="69.1" y1="383.5" x2="69.1" y2="386.4" stroke="#3987e5" stroke-width="1.2"/>
<rect x="65.7" y="385.4" width="6.8" height="1.2" fill="#3987e5"/>
<line x1="79.4" y1="383.3" x2="79.4" y2="390.8" stroke="#e66767" stroke-width="1.2"/>
<rect x="76.0" y="383.8" width="6.8" height="6.5" fill="#e66767"/>
<line x1="89.6" y1="369.8" x2="89.6" y2="377.8" stroke="#e66767" stroke-width="1.2"/>
<rect x="86.2" y="373.8" width="6.8" height="1.8" fill="#e66767"/>
<line x1="99.8" y1="362.6" x2="99.8" y2="369.5" stroke="#3987e5" stroke-width="1.2"/>
<rect x="96.5" y="363.9" width="6.8" height="4.6" fill="#3987e5"/>
<line x1="110.1" y1="364.5" x2="110.1" y2="369.5" stroke="#e66767" stroke-width="1.2"/>
<rect x="106.7" y="365.5" width="6.8" height="2.2" fill="#e66767"/>
<line x1="120.3" y1="365.5" x2="120.3" y2="370.9" stroke="#3987e5" stroke-width="1.2"/>
<rect x="117.0" y="366.4" width="6.8" height="3.3" fill="#3987e5"/>
<line x1="130.6" y1="362.3" x2="130.6" y2="367.7" stroke="#e66767" stroke-width="1.2"/>
<rect x="127.2" y="363.7" width="6.8" height="2.9" fill="#e66767"/>
<line x1="140.8" y1="353.9" x2="140.8" y2="359.4" stroke="#e66767" stroke-width="1.2"/>
<rect x="137.4" y="354.5" width="6.8" height="4.5" fill="#e66767"/>
<line x1="151.1" y1="353.1" x2="151.1" y2="359.1" stroke="#3987e5" stroke-width="1.2"/>
<rect x="147.7" y="354.0" width="6.8" height="1.2" fill="#3987e5"/>
<line x1="161.3" y1="347.6" x2="161.3" y2="361.0" stroke="#e66767" stroke-width="1.2"/>
<rect x="157.9" y="354.3" width="6.8" height="1.2" fill="#e66767"/>
<line x1="171.5" y1="351.6" x2="171.5" y2="359.4" stroke="#3987e5" stroke-width="1.2"/>
<rect x="168.2" y="352.4" width="6.8" height="2.4" fill="#3987e5"/>
<line x1="181.8" y1="339.7" x2="181.8" y2="350.5" stroke="#e66767" stroke-width="1.2"/>
<rect x="178.4" y="343.7" width="6.8" height="6.2" fill="#e66767"/>
<line x1="192.0" y1="337.9" x2="192.0" y2="343.0" stroke="#3987e5" stroke-width="1.2"/>
<rect x="188.7" y="340.3" width="6.8" height="2.1" fill="#3987e5"/>
<line x1="202.3" y1="339.7" x2="202.3" y2="345.4" stroke="#e66767" stroke-width="1.2"/>
<rect x="198.9" y="343.5" width="6.8" height="1.4" fill="#e66767"/>
<line x1="212.5" y1="338.4" x2="212.5" y2="344.6" stroke="#3987e5" stroke-width="1.2"/>
<rect x="209.1" y="340.5" width="6.8" height="4.1" fill="#3987e5"/>
<line x1="222.8" y1="318.5" x2="222.8" y2="337.1" stroke="#e66767" stroke-width="1.2"/>
<rect x="219.4" y="318.9" width="6.8" height="17.2" fill="#e66767"/>
<line x1="233.0" y1="292.3" x2="233.0" y2="301.4" stroke="#e66767" stroke-width="1.2"/>
<rect x="229.6" y="294.4" width="6.8" height="1.8" fill="#e66767"/>
<line x1="243.2" y1="284.2" x2="243.2" y2="299.8" stroke="#e66767" stroke-width="1.2"/>
<rect x="239.9" y="286.0" width="6.8" height="5.1" fill="#e66767"/>
<line x1="253.5" y1="280.4" x2="253.5" y2="296.0" stroke="#e66767" stroke-width="1.2"/>
<rect x="250.1" y="280.9" width="6.8" height="15.1" fill="#e66767"/>
<line x1="263.7" y1="238.9" x2="263.7" y2="258.5" stroke="#e66767" stroke-width="1.2"/>
<rect x="260.3" y="249.9" width="6.8" height="7.5" fill="#e66767"/>
<line x1="274.0" y1="236.1" x2="274.0" y2="262.1" stroke="#3987e5" stroke-width="1.2"/>
<rect x="270.6" y="239.7" width="6.8" height="17.4" fill="#3987e5"/>
<line x1="284.2" y1="232.4" x2="284.2" y2="265.7" stroke="#e66767" stroke-width="1.2"/>
<rect x="280.8" y="234.6" width="6.8" height="31.1" fill="#e66767"/>
<line x1="294.5" y1="231.8" x2="294.5" y2="240.9" stroke="#3987e5" stroke-width="1.2"/>
<rect x="291.1" y="234.6" width="6.8" height="1.2" fill="#3987e5"/>
<line x1="304.7" y1="231.6" x2="304.7" y2="264.4" stroke="#3987e5" stroke-width="1.2"/>
<rect x="301.3" y="238.8" width="6.8" height="20.9" fill="#3987e5"/>
<line x1="314.9" y1="247.2" x2="314.9" y2="273.7" stroke="#e66767" stroke-width="1.2"/>
<rect x="311.6" y="256.3" width="6.8" height="9.6" fill="#e66767"/>
<line x1="325.2" y1="259.0" x2="325.2" y2="272.3" stroke="#3987e5" stroke-width="1.2"/>
<rect x="321.8" y="264.1" width="6.8" height="7.3" fill="#3987e5"/>
<line x1="335.4" y1="266.2" x2="335.4" y2="280.2" stroke="#e66767" stroke-width="1.2"/>
<rect x="332.0" y="271.5" width="6.8" height="1.2" fill="#e66767"/>
<line x1="345.7" y1="238.1" x2="345.7" y2="263.3" stroke="#e66767" stroke-width="1.2"/>
<rect x="342.3" y="240.4" width="6.8" height="22.2" fill="#e66767"/>
<line x1="355.9" y1="238.5" x2="355.9" y2="244.8" stroke="#3987e5" stroke-width="1.2"/>
<rect x="352.5" y="240.1" width="6.8" height="1.2" fill="#3987e5"/>
<line x1="366.2" y1="217.0" x2="366.2" y2="229.9" stroke="#e66767" stroke-width="1.2"/>
<rect x="362.8" y="222.5" width="6.8" height="7.0" fill="#e66767"/>
<line x1="376.4" y1="173.8" x2="376.4" y2="198.9" stroke="#3987e5" stroke-width="1.2"/>
<rect x="373.0" y="186.4" width="6.8" height="5.7" fill="#3987e5"/>
<line x1="386.6" y1="182.2" x2="386.6" y2="206.8" stroke="#e66767" stroke-width="1.2"/>
<rect x="383.3" y="184.8" width="6.8" height="15.9" fill="#e66767"/>
<line x1="396.9" y1="170.4" x2="396.9" y2="184.5" stroke="#3987e5" stroke-width="1.2"/>
<rect x="393.5" y="174.7" width="6.8" height="3.0" fill="#3987e5"/>
<line x1="407.1" y1="167.4" x2="407.1" y2="183.6" stroke="#e66767" stroke-width="1.2"/>
<rect x="403.7" y="173.0" width="6.8" height="10.2" fill="#e66767"/>
<line x1="417.4" y1="166.0" x2="417.4" y2="189.5" stroke="#3987e5" stroke-width="1.2"/>
<rect x="414.0" y="170.9" width="6.8" height="2.5" fill="#3987e5"/>
<line x1="427.6" y1="178.7" x2="427.6" y2="189.1" stroke="#e66767" stroke-width="1.2"/>
<rect x="424.2" y="183.3" width="6.8" height="2.2" fill="#e66767"/>
<line x1="437.8" y1="200.9" x2="437.8" y2="219.7" stroke="#3987e5" stroke-width="1.2"/>
<rect x="434.5" y="208.2" width="6.8" height="11.5" fill="#3987e5"/>
<line x1="448.1" y1="219.3" x2="448.1" y2="253.9" stroke="#e66767" stroke-width="1.2"/>
<rect x="444.7" y="245.0" width="6.8" height="8.8" fill="#e66767"/>
<line x1="458.3" y1="194.8" x2="458.3" y2="231.1" stroke="#e66767" stroke-width="1.2"/>
<rect x="455.0" y="196.6" width="6.8" height="26.3" fill="#e66767"/>
<line x1="468.6" y1="202.1" x2="468.6" y2="232.1" stroke="#3987e5" stroke-width="1.2"/>
<rect x="465.2" y="209.0" width="6.8" height="14.2" fill="#3987e5"/>
<line x1="478.8" y1="204.8" x2="478.8" y2="237.2" stroke="#e66767" stroke-width="1.2"/>
<rect x="475.4" y="214.7" width="6.8" height="20.1" fill="#e66767"/>
<line x1="489.1" y1="182.4" x2="489.1" y2="206.9" stroke="#3987e5" stroke-width="1.2"/>
<rect x="485.7" y="186.0" width="6.8" height="20.9" fill="#3987e5"/>
<line x1="499.3" y1="179.5" x2="499.3" y2="188.6" stroke="#e66767" stroke-width="1.2"/>
<rect x="495.9" y="184.9" width="6.8" height="1.2" fill="#e66767"/>
<line x1="509.5" y1="167.1" x2="509.5" y2="185.2" stroke="#e66767" stroke-width="1.2"/>
<rect x="506.2" y="169.9" width="6.8" height="1.2" fill="#e66767"/>
<line x1="519.8" y1="147.5" x2="519.8" y2="177.6" stroke="#e66767" stroke-width="1.2"/>
<rect x="516.4" y="147.8" width="6.8" height="29.6" fill="#e66767"/>
<line x1="530.0" y1="113.2" x2="530.0" y2="142.2" stroke="#e66767" stroke-width="1.2"/>
<rect x="526.7" y="121.7" width="6.8" height="20.6" fill="#e66767"/>
<line x1="540.3" y1="88.8" x2="540.3" y2="121.2" stroke="#3987e5" stroke-width="1.2"/>
<rect x="536.9" y="99.5" width="6.8" height="9.6" fill="#3987e5"/>
<line x1="550.5" y1="80.2" x2="550.5" y2="114.8" stroke="#e66767" stroke-width="1.2"/>
<rect x="547.1" y="84.4" width="6.8" height="30.4" fill="#e66767"/>
<line x1="560.8" y1="80.5" x2="560.8" y2="145.4" stroke="#3987e5" stroke-width="1.2"/>
<rect x="557.4" y="87.7" width="6.8" height="54.7" fill="#3987e5"/>
<line x1="571.0" y1="118.8" x2="571.0" y2="158.6" stroke="#e66767" stroke-width="1.2"/>
<rect x="567.6" y="131.8" width="6.8" height="3.7" fill="#e66767"/>
<line x1="581.2" y1="73.5" x2="581.2" y2="111.5" stroke="#e66767" stroke-width="1.2"/>
<rect x="577.9" y="84.7" width="6.8" height="8.3" fill="#e66767"/>
<line x1="591.5" y1="90.6" x2="591.5" y2="135.2" stroke="#3987e5" stroke-width="1.2"/>
<rect x="588.1" y="95.4" width="6.8" height="28.2" fill="#3987e5"/>
<line x1="601.7" y1="121.2" x2="601.7" y2="148.4" stroke="#3987e5" stroke-width="1.2"/>
<rect x="598.3" y="129.5" width="6.8" height="1.3" fill="#3987e5"/>
<line x1="612.0" y1="112.6" x2="612.0" y2="144.6" stroke="#e66767" stroke-width="1.2"/>
<rect x="608.6" y="127.2" width="6.8" height="6.7" fill="#e66767"/>
<line x1="622.2" y1="115.6" x2="622.2" y2="150.8" stroke="#3987e5" stroke-width="1.2"/>
<rect x="618.8" y="124.8" width="6.8" height="16.7" fill="#3987e5"/>
<line x1="632.5" y1="159.4" x2="632.5" y2="201.0" stroke="#3987e5" stroke-width="1.2"/>
<rect x="629.1" y="174.9" width="6.8" height="26.1" fill="#3987e5"/>
<line x1="642.7" y1="158.5" x2="642.7" y2="223.6" stroke="#e66767" stroke-width="1.2"/>
<rect x="639.3" y="163.1" width="6.8" height="36.3" fill="#e66767"/>
<line x1="652.9" y1="151.6" x2="652.9" y2="184.3" stroke="#3987e5" stroke-width="1.2"/>
<rect x="649.6" y="159.1" width="6.8" height="17.1" fill="#3987e5"/>
<line x1="663.2" y1="176.2" x2="663.2" y2="218.1" stroke="#3987e5" stroke-width="1.2"/>
<rect x="659.8" y="184.8" width="6.8" height="14.0" fill="#3987e5"/>
<line x1="673.4" y1="178.4" x2="673.4" y2="218.7" stroke="#3987e5" stroke-width="1.2"/>
<rect x="670.0" y="212.0" width="6.8" height="6.7" fill="#3987e5"/>
<line x1="683.7" y1="187.8" x2="683.7" y2="216.3" stroke="#3987e5" stroke-width="1.2"/>
<rect x="680.3" y="194.5" width="6.8" height="6.7" fill="#3987e5"/>
<line x1="693.9" y1="182.2" x2="693.9" y2="204.4" stroke="#3987e5" stroke-width="1.2"/>
<rect x="690.5" y="183.6" width="6.8" height="18.5" fill="#3987e5"/>
<line x1="704.2" y1="208.2" x2="704.2" y2="256.5" stroke="#3987e5" stroke-width="1.2"/>
<rect x="700.8" y="212.8" width="6.8" height="42.7" fill="#3987e5"/>
<line x1="714.4" y1="241.0" x2="714.4" y2="282.1" stroke="#e66767" stroke-width="1.2"/>
<rect x="711.0" y="244.7" width="6.8" height="14.0" fill="#e66767"/>
<line x1="724.6" y1="203.6" x2="724.6" y2="219.7" stroke="#3987e5" stroke-width="1.2"/>
<rect x="721.3" y="211.7" width="6.8" height="6.1" fill="#3987e5"/>
<line x1="734.9" y1="243.7" x2="734.9" y2="259.3" stroke="#3987e5" stroke-width="1.2"/>
<rect x="731.5" y="246.4" width="6.8" height="9.6" fill="#3987e5"/>
<text x="736" y="250.0" font-size="11" font-weight="700" fill="#ffffff" text-anchor="end" style="font-variant-numeric:tabular-nums">184만</text>
<line x1="64" y1="470" x2="740" y2="470" stroke="#383835" stroke-width="1"/>
<text x="58" y="480" font-size="10" fill="#898781" text-anchor="end">거래량</text>
<rect x="65.7" y="513.6" width="6.8" height="16.4" fill="#3987e5" opacity="0.55"/>
<rect x="76.0" y="515.5" width="6.8" height="14.5" fill="#e66767" opacity="0.55"/>
<rect x="86.2" y="505.2" width="6.8" height="24.8" fill="#e66767" opacity="0.55"/>
<rect x="96.5" y="508.6" width="6.8" height="21.4" fill="#3987e5" opacity="0.55"/>
<rect x="106.7" y="514.9" width="6.8" height="15.1" fill="#e66767" opacity="0.55"/>
<rect x="117.0" y="511.3" width="6.8" height="18.7" fill="#3987e5" opacity="0.55"/>
<rect x="127.2" y="510.4" width="6.8" height="19.6" fill="#e66767" opacity="0.55"/>
<rect x="137.4" y="511.6" width="6.8" height="18.4" fill="#e66767" opacity="0.55"/>
<rect x="147.7" y="514.9" width="6.8" height="15.1" fill="#3987e5" opacity="0.55"/>
<rect x="157.9" y="502.1" width="6.8" height="27.9" fill="#e66767" opacity="0.55"/>
<rect x="168.2" y="513.7" width="6.8" height="16.3" fill="#3987e5" opacity="0.55"/>
<rect x="178.4" y="506.2" width="6.8" height="23.8" fill="#e66767" opacity="0.55"/>
<rect x="188.7" y="514.3" width="6.8" height="15.7" fill="#3987e5" opacity="0.55"/>
<rect x="198.9" y="514.3" width="6.8" height="15.7" fill="#e66767" opacity="0.55"/>
<rect x="209.1" y="512.5" width="6.8" height="17.5" fill="#3987e5" opacity="0.55"/>
<rect x="219.4" y="499.8" width="6.8" height="30.2" fill="#e66767" opacity="0.55"/>
<rect x="229.6" y="495.4" width="6.8" height="34.6" fill="#e66767" opacity="0.55"/>
<rect x="239.9" y="499.4" width="6.8" height="30.6" fill="#e66767" opacity="0.55"/>
<rect x="250.1" y="507.7" width="6.8" height="22.3" fill="#e66767" opacity="0.55"/>
<rect x="260.3" y="491.2" width="6.8" height="38.8" fill="#e66767" opacity="0.55"/>
<rect x="270.6" y="482.2" width="6.8" height="47.8" fill="#3987e5" opacity="0.55"/>
<rect x="280.8" y="492.8" width="6.8" height="37.2" fill="#e66767" opacity="0.55"/>
<rect x="291.1" y="498.5" width="6.8" height="31.5" fill="#3987e5" opacity="0.55"/>
<rect x="301.3" y="490.9" width="6.8" height="39.1" fill="#3987e5" opacity="0.55"/>
<rect x="311.6" y="496.2" width="6.8" height="33.8" fill="#e66767" opacity="0.55"/>
<rect x="321.8" y="506.1" width="6.8" height="23.9" fill="#3987e5" opacity="0.55"/>
<rect x="332.0" y="501.1" width="6.8" height="28.9" fill="#e66767" opacity="0.55"/>
<rect x="342.3" y="503.4" width="6.8" height="26.6" fill="#e66767" opacity="0.55"/>
<rect x="352.5" y="513.6" width="6.8" height="16.4" fill="#3987e5" opacity="0.55"/>
<rect x="362.8" y="504.4" width="6.8" height="25.6" fill="#e66767" opacity="0.55"/>
<rect x="373.0" y="490.6" width="6.8" height="39.4" fill="#3987e5" opacity="0.55"/>
<rect x="383.3" y="497.5" width="6.8" height="32.5" fill="#e66767" opacity="0.55"/>
<rect x="393.5" y="485.5" width="6.8" height="44.5" fill="#3987e5" opacity="0.55"/>
<rect x="403.7" y="500.7" width="6.8" height="29.3" fill="#e66767" opacity="0.55"/>
<rect x="414.0" y="499.5" width="6.8" height="30.5" fill="#3987e5" opacity="0.55"/>
<rect x="424.2" y="509.4" width="6.8" height="20.6" fill="#e66767" opacity="0.55"/>
<rect x="434.5" y="499.8" width="6.8" height="30.2" fill="#3987e5" opacity="0.55"/>
<rect x="444.7" y="495.5" width="6.8" height="34.5" fill="#e66767" opacity="0.55"/>
<rect x="455.0" y="499.3" width="6.8" height="30.7" fill="#e66767" opacity="0.55"/>
<rect x="465.2" y="530.0" width="6.8" height="0.0" fill="#3987e5" opacity="0.55"/>
<rect x="475.4" y="495.4" width="6.8" height="34.6" fill="#e66767" opacity="0.55"/>
<rect x="485.7" y="502.4" width="6.8" height="27.6" fill="#3987e5" opacity="0.55"/>
<rect x="495.9" y="509.8" width="6.8" height="20.2" fill="#e66767" opacity="0.55"/>
<rect x="506.2" y="511.0" width="6.8" height="19.0" fill="#e66767" opacity="0.55"/>
<rect x="516.4" y="509.2" width="6.8" height="20.8" fill="#e66767" opacity="0.55"/>
<rect x="526.7" y="499.7" width="6.8" height="30.3" fill="#e66767" opacity="0.55"/>
<rect x="536.9" y="491.0" width="6.8" height="39.0" fill="#3987e5" opacity="0.55"/>
<rect x="547.1" y="503.0" width="6.8" height="27.0" fill="#e66767" opacity="0.55"/>
<rect x="557.4" y="488.0" width="6.8" height="42.0" fill="#3987e5" opacity="0.55"/>
<rect x="567.6" y="490.9" width="6.8" height="39.1" fill="#e66767" opacity="0.55"/>
<rect x="577.9" y="494.5" width="6.8" height="35.5" fill="#e66767" opacity="0.55"/>
<rect x="588.1" y="491.0" width="6.8" height="39.0" fill="#3987e5" opacity="0.55"/>
<rect x="598.3" y="502.8" width="6.8" height="27.2" fill="#3987e5" opacity="0.55"/>
<rect x="608.6" y="503.3" width="6.8" height="26.7" fill="#e66767" opacity="0.55"/>
<rect x="618.8" y="507.7" width="6.8" height="22.3" fill="#3987e5" opacity="0.55"/>
<rect x="629.1" y="489.9" width="6.8" height="40.1" fill="#3987e5" opacity="0.55"/>
<rect x="639.3" y="488.3" width="6.8" height="41.7" fill="#e66767" opacity="0.55"/>
<rect x="649.6" y="507.9" width="6.8" height="22.1" fill="#3987e5" opacity="0.55"/>
<rect x="659.8" y="496.8" width="6.8" height="33.2" fill="#3987e5" opacity="0.55"/>
<rect x="670.0" y="493.6" width="6.8" height="36.4" fill="#3987e5" opacity="0.55"/>
<rect x="680.3" y="497.3" width="6.8" height="32.7" fill="#3987e5" opacity="0.55"/>
<rect x="690.5" y="504.8" width="6.8" height="25.2" fill="#3987e5" opacity="0.55"/>
<rect x="700.8" y="488.0" width="6.8" height="42.0" fill="#3987e5" opacity="0.55"/>
<rect x="711.0" y="475.5" width="6.8" height="54.5" fill="#e66767" opacity="0.55"/>
<rect x="721.3" y="498.4" width="6.8" height="31.6" fill="#3987e5" opacity="0.55"/>
<rect x="731.5" y="500.7" width="6.8" height="29.3" fill="#3987e5" opacity="0.55"/>
<path d="M263.7,508.1 L274.0,506.6 L284.2,505.4 L294.5,505.1 L304.7,504.2 L314.9,503.3 L325.2,503.0 L335.4,502.5 L345.7,502.1 L355.9,502.1 L366.2,502.2 L376.4,501.0 L386.6,500.6 L396.9,499.2 L407.1,498.5 L417.4,497.8 L427.6,498.3 L437.8,498.5 L448.1,498.3 L458.3,497.9 L468.6,499.9 L478.8,500.5 L489.1,501.0 L499.3,501.6 L509.5,502.6 L519.8,503.2 L530.0,502.9 L540.3,502.4 L550.5,502.4 L560.8,501.1 L571.0,500.4 L581.2,500.6 L591.5,500.3 L601.7,501.1 L612.0,501.3 L622.2,501.7 L632.5,500.7 L642.7,500.1 L652.9,500.7 L663.2,500.6 L673.4,498.8 L683.7,498.9 L693.9,499.0 L704.2,497.9 L714.4,496.2 L724.6,495.6 L734.9,495.7" fill="none" stroke="#008300" stroke-width="2"/>
<text x="69.1" y="548" font-size="10" fill="#898781" text-anchor="middle">04/10</text>
<text x="181.8" y="548" font-size="10" fill="#898781" text-anchor="middle">04/27</text>
<text x="294.5" y="548" font-size="10" fill="#898781" text-anchor="middle">05/14</text>
<text x="407.1" y="548" font-size="10" fill="#898781" text-anchor="middle">06/01</text>
<text x="519.8" y="548" font-size="10" fill="#898781" text-anchor="middle">06/17</text>
<text x="632.5" y="548" font-size="10" fill="#898781" text-anchor="middle">07/02</text>
</svg>