<svg xmlns="http://www.w3.org/2000/svg" width="760" height="560" viewBox="0 0 760 560" font-family='system-ui,-apple-system,"Segoe UI","Malgun Gothic","Apple SD Gothic Neo",sans-serif'>
<rect width="760" height="560" fill="#1a1a19"/>
<text x="20" y="28" font-size="14.5" font-weight="700" fill="#ffffff">일봉 차트 (최근 3개월)</text>
<text x="20" y="46" font-size="11" fill="#c3c2b7">원. 상승=빨강 / 하락=파랑 (국내 관례). 아래: 거래량과 20일 이평선.</text>
<line x1="518" y1="24" x2="536" y2="24" stroke="#e66767" stroke-width="2"/>
<text x="541" y="28" font-size="10.5" fill="#c3c2b7">상승</text>
<line x1="570" y1="24" x2="588" y2="24" stroke="#3987e5" stroke-width="2"/>
<text x="593" y="28" font-size="10.5" fill="#c3c2b7">하락</text>
<line x1="622" y1="24" x2="640" y2="24" stroke="#008300" stroke-width="2"/>
<text x="645" y="28" font-size="10.5" fill="#c3c2b7">거래량 MA20</text>
<line x1="64" y1="394.0" x2="740" y2="394.0" stroke="#2c2c2a" stroke-width="1"/>
<text x="58" y="397.5" font-size="10" fill="#898781" text-anchor="end" style="font-variant-numeric:tabular-nums">110만</text>
<line x1="64" y1="311.5" x2="740" y2="311.5" stroke="#2c2c2a" stroke-width="1"/>
<text x="58" y="315.0" font-size="10" fill="#898781" text-anchor="end" style="font-variant-numeric:tabular-nums">159만</text>
<line x1="64" y1="229.0" x2="740" y2="229.0" stroke="#2c2c2a" stroke-width="1"/>
<text x="58" y="232.5" font-size="10" fill="#898781" text-anchor="end" style="font-variant-numeric:tabular-nums">207만</text>
<line x1="64" y1="146.5" x2="740" y2="146.5" stroke="#2c2c2a" stroke-width="1"/>
<text x="58" y="150.0" font-size="10" fill="#898781" text-anchor="end" style="font-variant-numeric:tabular-nums">256만</text>
<line x1="64" y1="64.0" x2="740" y2="64.0" stroke="#2c2c2a" stroke-width="1"/>
<text x="58" y="67.5" font-size="10" fill="#898781" text-anchor="end" style="font-variant-numeric:tabular-nums">305만</text>
<line x1="69.1" y1="381.4" x2="69.1" y2="388.7" stroke="#3987e5" stroke-width="1.2"/>
<rect x="65.7" y="382.7" width="6.8" height="4.9" fill="#3987e5"/>
<line x1="79.4" y1="383.4" x2="79.4" y2="388.7" stroke="#e66767" stroke-width="1.2"/>
<rect x="76.0" y="384.4" width="6.8" height="2.4" fill="#e66767"/>
<line x1="89.6" y1="384.4" x2="89.6" y2="390.2" stroke="#3987e5" stroke-width="1.2"/>
<rect x="86.2" y="385.5" width="6.8" height="3.6" fill="#3987e5"/>
<line x1="99.8" y1="381.1" x2="99.8" y2="386.8" stroke="#e66767" stroke-width="1.2"/>
<rect x="96.5" y="382.6" width="6.8" height="3.0" fill="#e66767"/>
<line x1="110.1" y1="372.1" x2="110.1" y2="378.0" stroke="#e66767" stroke-width="1.2"/>
<rect x="106.7" y="372.8" width="6.8" height="4.7" fill="#e66767"/>
<line x1="120.3" y1="371.2" x2="120.3" y2="377.7" stroke="#3987e5" stroke-width="1.2"/>
<rect x="117.0" y="372.2" width="6.8" height="1.2" fill="#3987e5"/>
<line x1="130.6" y1="365.5" x2="130.6" y2="379.7" stroke="#e66767" stroke-width="1.2"/>
<rect x="127.2" y="372.6" width="6.8" height="1.2" fill="#e66767"/>
<line x1="140.8" y1="369.7" x2="140.8" y2="378.0" stroke="#3987e5" stroke-width="1.2"/>
<rect x="137.4" y="370.6" width="6.8" height="2.5" fill="#3987e5"/>
<line x1="151.1" y1="357.0" x2="151.1" y2="368.5" stroke="#e66767" stroke-width="1.2"/>
<rect x="147.7" y="361.2" width="6.8" height="6.6" fill="#e66767"/>
<line x1="161.3" y1="355.1" x2="161.3" y2="360.6" stroke="#3987e5" stroke-width="1.2"/>
<rect x="157.9" y="357.7" width="6.8" height="2.2" fill="#3987e5"/>
<line x1="171.5" y1="357.0" x2="171.5" y2="363.1" stroke="#e66767" stroke-width="1.2"/>
<rect x="168.2" y="361.1" width="6.8" height="1.5" fill="#e66767"/>
<line x1="181.8" y1="355.6" x2="181.8" y2="362.3" stroke="#3987e5" stroke-width="1.2"/>
<rect x="178.4" y="357.8" width="6.8" height="4.4" fill="#3987e5"/>
<line x1="192.0" y1="334.5" x2="192.0" y2="354.3" stroke="#e66767" stroke-width="1.2"/>
<rect x="188.7" y="335.0" width="6.8" height="18.3" fill="#e66767"/>
<line x1="202.3" y1="306.7" x2="202.3" y2="316.3" stroke="#e66767" stroke-width="1.2"/>
<rect x="198.9" y="308.9" width="6.8" height="1.9" fill="#e66767"/>
<line x1="212.5" y1="298.1" x2="212.5" y2="314.7" stroke="#e66767" stroke-width="1.2"/>
<rect x="209.1" y="299.9" width="6.8" height="5.4" fill="#e66767"/>
<line x1="222.8" y1="294.0" x2="222.8" y2="310.6" stroke="#e66767" stroke-width="1.2"/>
<rect x="219.4" y="294.5" width="6.8" height="16.1" fill="#e66767"/>
<line x1="233.0" y1="249.9" x2="233.0" y2="270.8" stroke="#e66767" stroke-width="1.2"/>
<rect x="229.6" y="261.6" width="6.8" height="8.0" fill="#e66767"/>
<line x1="243.2" y1="246.9" x2="243.2" y2="274.5" stroke="#3987e5" stroke-width="1.2"/>
<rect x="239.9" y="250.8" width="6.8" height="18.5" fill="#3987e5"/>
<line x1="253.5" y1="243.0" x2="253.5" y2="278.4" stroke="#e66767" stroke-width="1.2"/>
<rect x="250.1" y="245.4" width="6.8" height="33.0" fill="#e66767"/>
<line x1="263.7" y1="242.3" x2="263.7" y2="252.0" stroke="#3987e5" stroke-width="1.2"/>
<rect x="260.3" y="245.4" width="6.8" height="1.2" fill="#3987e5"/>
<line x1="274.0" y1="242.2" x2="274.0" y2="277.0" stroke="#3987e5" stroke-width="1.2"/>
<rect x="270.6" y="249.8" width="6.8" height="22.2" fill="#3987e5"/>
<line x1="284.2" y1="258.8" x2="284.2" y2="286.9" stroke="#e66767" stroke-width="1.2"/>
<rect x="280.8" y="268.4" width="6.8" height="10.2" fill="#e66767"/>
<line x1="294.5" y1="271.3" x2="294.5" y2="285.3" stroke="#3987e5" stroke-width="1.2"/>
<rect x="291.1" y="276.7" width="6.8" height="7.8" fill="#3987e5"/>
<line x1="304.7" y1="278.9" x2="304.7" y2="293.8" stroke="#e66767" stroke-width="1.2"/>
<rect x="301.3" y="284.5" width="6.8" height="1.2" fill="#e66767"/>
<line x1="314.9" y1="249.1" x2="314.9" y2="275.9" stroke="#e66767" stroke-width="1.2"/>
<rect x="311.6" y="251.5" width="6.8" height="23.5" fill="#e66767"/>
<line x1="325.2" y1="249.4" x2="325.2" y2="256.2" stroke="#3987e5" stroke-width="1.2"/>
<rect x="321.8" y="251.1" width="6.8" height="1.2" fill="#3987e5"/>
<line x1="335.4" y1="226.6" x2="335.4" y2="240.3" stroke="#e66767" stroke-width="1.2"/>
<rect x="332.0" y="232.5" width="6.8" height="7.5" fill="#e66767"/>
<line x1="345.7" y1="180.7" x2="345.7" y2="207.4" stroke="#3987e5" stroke-width="1.2"/>
<rect x="342.3" y="194.0" width="6.8" height="6.1" fill="#3987e5"/>
<line x1="355.9" y1="189.6" x2="355.9" y2="215.7" stroke="#e66767" stroke-width="1.2"/>
<rect x="352.5" y="192.4" width="6.8" height="16.9" fill="#e66767"/>
<line x1="366.2" y1="177.1" x2="366.2" y2="192.1" stroke="#3987e5" stroke-width="1.2"/>
<rect x="362.8" y="181.7" width="6.8" height="3.2" fill="#3987e5"/>
<line x1="376.4" y1="173.9" x2="376.4" y2="191.2" stroke="#e66767" stroke-width="1.2"/>
<rect x="373.0" y="179.8" width="6.8" height="10.8" fill="#e66767"/>
<line x1="386.6" y1="172.4" x2="386.6" y2="197.4" stroke="#3987e5" stroke-width="1.2"/>
<rect x="383.3" y="177.6" width="6.8" height="2.7" fill="#3987e5"/>
<line x1="396.9" y1="185.9" x2="396.9" y2="196.9" stroke="#e66767" stroke-width="1.2"/>
<rect x="393.5" y="190.8" width="6.8" height="2.4" fill="#e66767"/>
<line x1="407.1" y1="209.5" x2="407.1" y2="229.5" stroke="#3987e5" stroke-width="1.2"/>
<rect x="403.7" y="217.3" width="6.8" height="12.2" fill="#3987e5"/>
<line x1="417.4" y1="229.1" x2="417.4" y2="265.9" stroke="#e66767" stroke-width="1.2"/>
<rect x="414.0" y="256.4" width="6.8" height="9.3" fill="#e66767"/>
<line x1="427.6" y1="203.0" x2="427.6" y2="241.6" stroke="#e66767" stroke-width="1.2"/>
<rect x="424.2" y="204.9" width="6.8" height="27.9" fill="#e66767"/>
<line x1="437.8" y1="210.8" x2="437.8" y2="242.7" stroke="#3987e5" stroke-width="1.2"/>
<rect x="434.5" y="218.1" width="6.8" height="15.1" fill="#3987e5"/>
<line x1="448.1" y1="213.7" x2="448.1" y2="248.1" stroke="#e66767" stroke-width="1.2"/>
<rect x="444.7" y="224.2" width="6.8" height="21.3" fill="#e66767"/>
<line x1="458.3" y1="189.8" x2="458.3" y2="215.9" stroke="#3987e5" stroke-width="1.2"/>
<rect x="455.0" y="193.7" width="6.8" height="22.2" fill="#3987e5"/>
<line x1="468.6" y1="186.8" x2="468.6" y2="196.4" stroke="#e66767" stroke-width="1.2"/>
<rect x="465.2" y="192.5" width="6.8" height="1.2" fill="#e66767"/>
<line x1="478.8" y1="173.6" x2="478.8" y2="192.9" stroke="#e66767" stroke-width="1.2"/>
<rect x="475.4" y="176.6" width="6.8" height="1.2" fill="#e66767"/>
<line x1="489.1" y1="152.7" x2="489.1" y2="184.7" stroke="#e66767" stroke-width="1.2"/>
<rect x="485.7" y="153.1" width="6.8" height="31.5" fill="#e66767"/>
<line x1="499.3" y1="116.3" x2="499.3" y2="147.1" stroke="#e66767" stroke-width="1.2"/>
<rect x="495.9" y="125.3" width="6.8" height="21.9" fill="#e66767"/>
<line x1="509.5" y1="90.4" x2="509.5" y2="124.8" stroke="#3987e5" stroke-width="1.2"/>
<rect x="506.2" y="101.7" width="6.8" height="10.2" fill="#3987e5"/>
<line x1="519.8" y1="81.2" x2="519.8" y2="118.0" stroke="#e66767" stroke-width="1.2"/>
<rect x="516.4" y="85.6" width="6.8" height="32.4" fill="#e66767"/>
<line x1="530.0" y1="81.6" x2="530.0" y2="150.5" stroke="#3987e5" stroke-width="1.2"/>
<rect x="526.7" y="89.2" width="6.8" height="58.1" fill="#3987e5"/>
<line x1="540.3" y1="122.2" x2="540.3" y2="164.6" stroke="#e66767" stroke-width="1.2"/>
<rect x="536.9" y="136.1" width="6.8" height="3.9" fill="#e66767"/>
<line x1="550.5" y1="74.1" x2="550.5" y2="114.4" stroke="#e66767" stroke-width="1.2"/>
<rect x="547.1" y="86.0" width="6.8" height="8.8" fill="#e66767"/>
<line x1="560.8" y1="92.2" x2="560.8" y2="139.7" stroke="#3987e5" stroke-width="1.2"/>
<rect x="557.4" y="97.3" width="6.8" height="30.0" fill="#3987e5"/>
<line x1="571.0" y1="124.8" x2="571.0" y2="153.7" stroke="#3987e5" stroke-width="1.2"/>
<rect x="567.6" y="133.6" width="6.8" height="1.4" fill="#3987e5"/>
<line x1="581.2" y1="115.6" x2="581.2" y2="149.7" stroke="#e66767" stroke-width="1.2"/>
<rect x="577.9" y="131.2" width="6.8" height="7.1" fill="#e66767"/>
<line x1="591.5" y1="118.8" x2="591.5" y2="156.3" stroke="#3987e5" stroke-width="1.2"/>
<rect x="588.1" y="128.7" width="6.8" height="17.8" fill="#3987e5"/>
<line x1="601.7" y1="165.4" x2="601.7" y2="209.6" stroke="#3987e5" stroke-width="1.2"/>
<rect x="598.3" y="181.9" width="6.8" height="27.8" fill="#3987e5"/>
<line x1="612.0" y1="164.4" x2="612.0" y2="233.7" stroke="#e66767" stroke-width="1.2"/>
<rect x="608.6" y="169.3" width="6.8" height="38.6" fill="#e66767"/>
<line x1="622.2" y1="157.1" x2="622.2" y2="191.8" stroke="#3987e5" stroke-width="1.2"/>
<rect x="618.8" y="165.1" width="6.8" height="18.1" fill="#3987e5"/>
<line x1="632.5" y1="183.2" x2="632.5" y2="227.8" stroke="#3987e5" stroke-width="1.2"/>
<rect x="629.1" y="192.4" width="6.8" height="14.9" fill="#3987e5"/>
<line x1="642.7" y1="185.6" x2="642.7" y2="228.4" stroke="#3987e5" stroke-width="1.2"/>
<rect x="639.3" y="221.3" width="6.8" height="7.1" fill="#3987e5"/>
<line x1="652.9" y1="195.6" x2="652.9" y2="225.9" stroke="#3987e5" stroke-width="1.2"/>
<rect x="649.6" y="202.7" width="6.8" height="7.1" fill="#3987e5"/>
<line x1="663.2" y1="189.6" x2="663.2" y2="213.2" stroke="#3987e5" stroke-width="1.2"/>
<rect x="659.8" y="191.2" width="6.8" height="19.6" fill="#3987e5"/>
<line x1="673.4" y1="217.3" x2="673.4" y2="268.6" stroke="#3987e5" stroke-width="1.2"/>
<rect x="670.0" y="222.2" width="6.8" height="45.4" fill="#3987e5"/>
<line x1="683.7" y1="252.1" x2="683.7" y2="295.9" stroke="#e66767" stroke-width="1.2"/>
<rect x="680.3" y="256.0" width="6.8" height="14.9" fill="#e66767"/>
<line x1="693.9" y1="212.3" x2="693.9" y2="229.5" stroke="#3987e5" stroke-width="1.2"/>
<rect x="690.5" y="221.0" width="6.8" height="6.4" fill="#3987e5"/>
<line x1="704.2" y1="255.0" x2="704.2" y2="271.6" stroke="#3987e5" stroke-width="1.2"/>
<rect x="700.8" y="257.9" width="6.8" height="10.2" fill="#3987e5"/>
<line x1="714.4" y1="259.6" x2="714.4" y2="286.2" stroke="#e66767" stroke-width="1.2"/>
<rect x="711.0" y="281.3" width="6.8" height="3.2" fill="#e66767"/>
<line x1="724.6" y1="260.1" x2="724.6" y2="286.7" stroke="#e66767" stroke-width="1.2"/>
<rect x="721.3" y="269.1" width="6.8" height="10.3" fill="#e66767"/>
<line x1="734.9" y1="240.3" x2="734.9" y2="270.1" stroke="#3987e5" stroke-width="1.2"/>
<rect x="731.5" y="245.2" width="6.8" height="24.9" fill="#3987e5"/>
<text x="736" y="264.1" font-size="11" font-weight="700" fill="#ffffff" text-anchor="end" style="font-variant-numeric:tabular-nums">183만</text>
<line x1="64" y1="470" x2="740" y2="470" stroke="#383835" stroke-width="1"/>
<text x="58" y="480" font-size="10" fill="#898781" text-anchor="end">거래량</text>
<rect x="65.7" y="508.6" width="6.8" height="21.4" fill="#3987e5" opacity="0.55"/>
<rect x="76.0" y="514.9" width="6.8" height="15.1" fill="#e66767" opacity="0.55"/>
<rect x="86.2" y="511.3" width="6.8" height="18.7" fill="#3987e5" opacity="0.55"/>
<rect x="96.5" y="510.4" width="6.8" height="19.6" fill="#e66767" opacity="0.55"/>
<rect x="106.7" y="511.6" width="6.8" height="18.4" fill="#e66767" opacity="0.55"/>
<rect x="117.0" y="514.9" width="6.8" height="15.1" fill="#3987e5" opacity="0.55"/>
<rect x="127.2" y="502.1" width="6.8" height="27.9" fill="#e66767" opacity="0.55"/>
<rect x="137.4" y="513.7" width="6.8" height="16.3" fill="#3987e5" opacity="0.55"/>
<rect x="147.7" y="506.2" width="6.8" height="23.8" fill="#e66767" opacity="0.55"/>
<rect x="157.9" y="514.3" width="6.8" height="15.7" fill="#3987e5" opacity="0.55"/>
<rect x="168.2" y="514.3" width="6.8" height="15.7" fill="#e66767" opacity="0.55"/>
<rect x="178.4" y="512.5" width="6.8" height="17.5" fill="#3987e5" opacity="0.55"/>
<rect x="188.7" y="499.8" width="6.8" height="30.2" fill="#e66767" opacity="0.55"/>
<rect x="198.9" y="495.4" width="6.8" height="34.6" fill="#e66767" opacity="0.55"/>
<rect x="209.1" y="499.4" width="6.8" height="30.6" fill="#e66767" opacity="0.55"/>
<rect x="219.4" y="507.7" width="6.8" height="22.3" fill="#e66767" opacity="0.55"/>
<rect x="229.6" y="491.2" width="6.8" height="38.8" fill="#e66767" opacity="0.55"/>
<rect x="239.9" y="482.2" width="6.8" height="47.8" fill="#3987e5" opacity="0.55"/>
<rect x="250.1" y="492.8" width="6.8" height="37.2" fill="#e66767" opacity="0.55"/>
<rect x="260.3" y="498.5" width="6.8" height="31.5" fill="#3987e5" opacity="0.55"/>
<rect x="270.6" y="490.9" width="6.8" height="39.1" fill="#3987e5" opacity="0.55"/>
<rect x="280.8" y="496.2" width="6.8" height="33.8" fill="#e66767" opacity="0.55"/>
<rect x="291.1" y="506.1" width="6.8" height="23.9" fill="#3987e5" opacity="0.55"/>
<rect x="301.3" y="501.1" width="6.8" height="28.9" fill="#e66767" opacity="0.55"/>
<rect x="311.6" y="503.4" width="6.8" height="26.6" fill="#e66767" opacity="0.55"/>
<rect x="321.8" y="513.6" width="6.8" height="16.4" fill="#3987e5" opacity="0.55"/>
<rect x="332.0" y="504.4" width="6.8" height="25.6" fill="#e66767" opacity="0.55"/>
<rect x="342.3" y="490.6" width="6.8" height="39.4" fill="#3987e5" opacity="0.55"/>
<rect x="352.5" y="497.5" width="6.8" height="32.5" fill="#e66767" opacity="0.55"/>
<rect x="362.8" y="485.5" width="6.8" height="44.5" fill="#3987e5" opacity="0.55"/>
<rect x="373.0" y="500.7" width="6.8" height="29.3" fill="#e66767" opacity="0.55"/>
<rect x="383.3" y="499.5" width="6.8" height="30.5" fill="#3987e5" opacity="0.55"/>
<rect x="393.5" y="509.4" width="6.8" height="20.6" fill="#e66767" opacity="0.55"/>
<rect x="403.7" y="499.8" width="6.8" height="30.2" fill="#3987e5" opacity="0.55"/>
<rect x="414.0" y="495.5" width="6.8" height="34.5" fill="#e66767" opacity="0.55"/>
<rect x="424.2" y="499.3" width="6.8" height="30.7" fill="#e66767" opacity="0.55"/>
<rect x="434.5" y="530.0" width="6.8" height="0.0" fill="#3987e5" opacity="0.55"/>
<rect x="444.7" y="495.4" width="6.8" height="34.6" fill="#e66767" opacity="0.55"/>
<rect x="455.0" y="502.4" width="6.8" height="27.6" fill="#3987e5" opacity="0.55"/>
<rect x="465.2" y="509.8" width="6.8" height="20.2" fill="#e66767" opacity="0.55"/>
<rect x="475.4" y="511.0" width="6.8" height="19.0" fill="#e66767" opacity="0.55"/>
<rect x="485.7" y="509.2" width="6.8" height="20.8" fill="#e66767" opacity="0.55"/>
<rect x="495.9" y="499.7" width="6.8" height="30.3" fill="#e66767" opacity="0.55"/>
<rect x="506.2" y="491.0" width="6.8" height="39.0" fill="#3987e5" opacity="0.55"/>
<rect x="516.4" y="503.0" width="6.8" height="27.0" fill="#e66767" opacity="0.55"/>
<rect x="526.7" y="488.0" width="6.8" height="42.0" fill="#3987e5" opacity="0.55"/>
<rect x="536.9" y="490.9" width="6.8" height="39.1" fill="#e66767" opacity="0.55"/>
<rect x="547.1" y="494.5" width="6.8" height="35.5" fill="#e66767" opacity="0.55"/>
<rect x="557.4" y="491.0" width="6.8" height="39.0" fill="#3987e5" opacity="0.55"/>
<rect x="567.6" y="502.8" width="6.8" height="27.2" fill="#3987e5" opacity="0.55"/>
<rect x="577.9" y="503.3" width="6.8" height="26.7" fill="#e66767" opacity="0.55"/>
<rect x="588.1" y="507.7" width="6.8" height="22.3" fill="#3987e5" opacity="0.55"/>
<rect x="598.3" y="489.9" width="6.8" height="40.1" fill="#3987e5" opacity="0.55"/>
<rect x="608.6" y="488.3" width="6.8" height="41.7" fill="#e66767" opacity="0.55"/>
<rect x="618.8" y="507.9" width="6.8" height="22.1" fill="#3987e5" opacity="0.55"/>
<rect x="629.1" y="496.8" width="6.8" height="33.2" fill="#3987e5" opacity="0.55"/>
<rect x="639.3" y="493.6" width="6.8" height="36.4" fill="#3987e5" opacity="0.55"/>
<rect x="649.6" y="497.3" width="6.8" height="32.7" fill="#3987e5" opacity="0.55"/>
<rect x="659.8" y="504.8" width="6.8" height="25.2" fill="#3987e5" opacity="0.55"/>
<rect x="670.0" y="488.0" width="6.8" height="42.0" fill="#3987e5" opacity="0.55"/>
<rect x="680.3" y="475.5" width="6.8" height="54.5" fill="#e66767" opacity="0.55"/>
<rect x="690.5" y="498.4" width="6.8" height="31.6" fill="#3987e5" opacity="0.55"/>
<rect x="700.8" y="500.7" width="6.8" height="29.3" fill="#3987e5" opacity="0.55"/>
<rect x="711.0" y="499.3" width="6.8" height="30.7" fill="#e66767" opacity="0.55"/>
<rect x="721.3" y="505.8" width="6.8" height="24.2" fill="#e66767" opacity="0.55"/>
<rect x="731.5" y="504.9" width="6.8" height="25.1" fill="#3987e5" opacity="0.55"/>
<path d="M263.7,505.1 L274.0,504.2 L284.2,503.3 L294.5,503.0 L304.7,502.5 L314.9,502.1 L325.2,502.1 L335.4,502.2 L345.7,501.0 L355.9,500.6 L366.2,499.2 L376.4,498.5 L386.6,497.8 L396.9,498.3 L407.1,498.5 L417.4,498.3 L427.6,497.9 L437.8,499.9 L448.1,500.5 L458.3,501.0 L468.6,501.6 L478.8,502.6 L489.1,503.2 L499.3,502.9 L509.5,502.4 L519.8,502.4 L530.0,501.1 L540.3,500.4 L550.5,500.6 L560.8,500.3 L571.0,501.1 L581.2,501.3 L591.5,501.7 L601.7,500.7 L612.0,500.1 L622.2,500.7 L632.5,500.6 L642.7,498.8 L652.9,498.9 L663.2,499.0 L673.4,497.9 L683.7,496.2 L693.9,495.6 L704.2,495.7 L714.4,496.1 L724.6,496.2 L734.9,497.1" fill="none" stroke="#008300" stroke-width="2"/>
<text x="69.1" y="548" font-size="10" fill="#898781" text-anchor="middle">04/15</text>
<text x="181.8" y="548" font-size="10" fill="#898781" text-anchor="middle">04/30</text>
<text x="294.5" y="548" font-size="10" fill="#898781" text-anchor="middle">05/19</text>
<text x="407.1" y="548" font-size="10" fill="#898781" text-anchor="middle">06/05</text>
<text x="519.8" y="548" font-size="10" fill="#898781" text-anchor="middle">06/22</text>
<text x="632.5" y="548" font-size="10" fill="#898781" text-anchor="middle">07/07</text>
</svg>