<svg xmlns="http://www.w3.org/2000/svg" width="760" height="560" viewBox="0 0 760 560" font-family='system-ui,-apple-system,"Segoe UI","Malgun Gothic","Apple SD Gothic Neo",sans-serif'>
<rect width="760" height="560" fill="#1a1a19"/>
<text x="20" y="28" font-size="14.5" font-weight="700" fill="#ffffff">일봉 차트 (최근 3개월)</text>
<text x="20" y="46" font-size="11" fill="#c3c2b7">원. 상승=빨강 / 하락=파랑 (국내 관례). 아래: 거래량과 20일 이평선.</text>
<line x1="518" y1="24" x2="536" y2="24" stroke="#e66767" stroke-width="2"/>
<text x="541" y="28" font-size="10.5" fill="#c3c2b7">상승</text>
<line x1="570" y1="24" x2="588" y2="24" stroke="#3987e5" stroke-width="2"/>
<text x="593" y="28" font-size="10.5" fill="#c3c2b7">하락</text>
<line x1="622" y1="24" x2="640" y2="24" stroke="#008300" stroke-width="2"/>
<text x="645" y="28" font-size="10.5" fill="#c3c2b7">거래량 MA20</text>
<line x1="64" y1="394.0" x2="740" y2="394.0" stroke="#2c2c2a" stroke-width="1"/>
<text x="58" y="397.5" font-size="10" fill="#898781" text-anchor="end" style="font-variant-numeric:tabular-nums">106만</text>
<line x1="64" y1="311.5" x2="740" y2="311.5" stroke="#2c2c2a" stroke-width="1"/>
<text x="58" y="315.0" font-size="10" fill="#898781" text-anchor="end" style="font-variant-numeric:tabular-nums">155만</text>
<line x1="64" y1="229.0" x2="740" y2="229.0" stroke="#2c2c2a" stroke-width="1"/>
<text x="58" y="232.5" font-size="10" fill="#898781" text-anchor="end" style="font-variant-numeric:tabular-nums">205만</text>
<line x1="64" y1="146.5" x2="740" y2="146.5" stroke="#2c2c2a" stroke-width="1"/>
<text x="58" y="150.0" font-size="10" fill="#898781" text-anchor="end" style="font-variant-numeric:tabular-nums">255만</text>
<line x1="64" y1="64.0" x2="740" y2="64.0" stroke="#2c2c2a" stroke-width="1"/>
<text x="58" y="67.5" font-size="10" fill="#898781" text-anchor="end" style="font-variant-numeric:tabular-nums">305만</text>
<line x1="69.1" y1="382.1" x2="69.1" y2="390.4" stroke="#e66767" stroke-width="1.2"/>
<rect x="65.7" y="386.3" width="6.8" height="1.8" fill="#e66767"/>
<line x1="79.4" y1="374.7" x2="79.4" y2="381.8" stroke="#3987e5" stroke-width="1.2"/>
<rect x="76.0" y="376.0" width="6.8" height="4.8" fill="#3987e5"/>
<line x1="89.6" y1="376.7" x2="89.6" y2="381.8" stroke="#e66767" stroke-width="1.2"/>
<rect x="86.2" y="377.7" width="6.8" height="2.3" fill="#e66767"/>
<line x1="99.8" y1="377.7" x2="99.8" y2="383.3" stroke="#3987e5" stroke-width="1.2"/>
<rect x="96.5" y="378.7" width="6.8" height="3.5" fill="#3987e5"/>
<line x1="110.1" y1="374.3" x2="110.1" y2="380.0" stroke="#e66767" stroke-width="1.2"/>
<rect x="106.7" y="375.8" width="6.8" height="3.0" fill="#e66767"/>
<line x1="120.3" y1="365.6" x2="120.3" y2="371.4" stroke="#e66767" stroke-width="1.2"/>
<rect x="117.0" y="366.2" width="6.8" height="4.6" fill="#e66767"/>
<line x1="130.6" y1="364.7" x2="130.6" y2="371.0" stroke="#3987e5" stroke-width="1.2"/>
<rect x="127.2" y="365.7" width="6.8" height="1.2" fill="#3987e5"/>
<line x1="140.8" y1="359.1" x2="140.8" y2="373.0" stroke="#e66767" stroke-width="1.2"/>
<rect x="137.4" y="366.1" width="6.8" height="1.2" fill="#e66767"/>
<line x1="151.1" y1="363.2" x2="151.1" y2="371.4" stroke="#3987e5" stroke-width="1.2"/>
<rect x="147.7" y="364.1" width="6.8" height="2.5" fill="#3987e5"/>
<line x1="161.3" y1="350.8" x2="161.3" y2="362.1" stroke="#e66767" stroke-width="1.2"/>
<rect x="157.9" y="354.9" width="6.8" height="6.5" fill="#e66767"/>
<line x1="171.5" y1="349.0" x2="171.5" y2="354.3" stroke="#3987e5" stroke-width="1.2"/>
<rect x="168.2" y="351.5" width="6.8" height="2.2" fill="#3987e5"/>
<line x1="181.8" y1="350.8" x2="181.8" y2="356.8" stroke="#e66767" stroke-width="1.2"/>
<rect x="178.4" y="354.8" width="6.8" height="1.5" fill="#e66767"/>
<line x1="192.0" y1="349.5" x2="192.0" y2="355.9" stroke="#3987e5" stroke-width="1.2"/>
<rect x="188.7" y="351.6" width="6.8" height="4.3" fill="#3987e5"/>
<line x1="202.3" y1="328.7" x2="202.3" y2="348.1" stroke="#e66767" stroke-width="1.2"/>
<rect x="198.9" y="329.2" width="6.8" height="17.9" fill="#e66767"/>
<line x1="212.5" y1="301.6" x2="212.5" y2="311.0" stroke="#e66767" stroke-width="1.2"/>
<rect x="209.1" y="303.7" width="6.8" height="1.8" fill="#e66767"/>
<line x1="222.8" y1="293.1" x2="222.8" y2="309.3" stroke="#e66767" stroke-width="1.2"/>
<rect x="219.4" y="294.9" width="6.8" height="5.3" fill="#e66767"/>
<line x1="233.0" y1="289.1" x2="233.0" y2="305.4" stroke="#e66767" stroke-width="1.2"/>
<rect x="229.6" y="289.6" width="6.8" height="15.8" fill="#e66767"/>
<line x1="243.2" y1="246.0" x2="243.2" y2="266.4" stroke="#e66767" stroke-width="1.2"/>
<rect x="239.9" y="257.5" width="6.8" height="7.8" fill="#e66767"/>
<line x1="253.5" y1="243.0" x2="253.5" y2="270.1" stroke="#3987e5" stroke-width="1.2"/>
<rect x="250.1" y="246.8" width="6.8" height="18.1" fill="#3987e5"/>
<line x1="263.7" y1="239.2" x2="263.7" y2="273.9" stroke="#e66767" stroke-width="1.2"/>
<rect x="260.3" y="241.5" width="6.8" height="32.3" fill="#e66767"/>
<line x1="274.0" y1="238.5" x2="274.0" y2="248.0" stroke="#3987e5" stroke-width="1.2"/>
<rect x="270.6" y="241.5" width="6.8" height="1.2" fill="#3987e5"/>
<line x1="284.2" y1="238.4" x2="284.2" y2="272.5" stroke="#3987e5" stroke-width="1.2"/>
<rect x="280.8" y="245.8" width="6.8" height="21.7" fill="#3987e5"/>
<line x1="294.5" y1="254.6" x2="294.5" y2="282.2" stroke="#e66767" stroke-width="1.2"/>
<rect x="291.1" y="264.1" width="6.8" height="9.9" fill="#e66767"/>
<line x1="304.7" y1="266.9" x2="304.7" y2="280.7" stroke="#3987e5" stroke-width="1.2"/>
<rect x="301.3" y="272.2" width="6.8" height="7.6" fill="#3987e5"/>
<line x1="314.9" y1="274.4" x2="314.9" y2="289.0" stroke="#e66767" stroke-width="1.2"/>
<rect x="311.6" y="279.8" width="6.8" height="1.2" fill="#e66767"/>
<line x1="325.2" y1="245.2" x2="325.2" y2="271.4" stroke="#e66767" stroke-width="1.2"/>
<rect x="321.8" y="247.5" width="6.8" height="23.0" fill="#e66767"/>
<line x1="335.4" y1="245.5" x2="335.4" y2="252.1" stroke="#3987e5" stroke-width="1.2"/>
<rect x="332.0" y="247.2" width="6.8" height="1.2" fill="#3987e5"/>
<line x1="345.7" y1="223.1" x2="345.7" y2="236.6" stroke="#e66767" stroke-width="1.2"/>
<rect x="342.3" y="228.9" width="6.8" height="7.3" fill="#e66767"/>
<line x1="355.9" y1="178.2" x2="355.9" y2="204.4" stroke="#3987e5" stroke-width="1.2"/>
<rect x="352.5" y="191.3" width="6.8" height="6.0" fill="#3987e5"/>
<line x1="366.2" y1="187.0" x2="366.2" y2="212.5" stroke="#e66767" stroke-width="1.2"/>
<rect x="362.8" y="189.6" width="6.8" height="16.6" fill="#e66767"/>
<line x1="376.4" y1="174.7" x2="376.4" y2="189.4" stroke="#3987e5" stroke-width="1.2"/>
<rect x="373.0" y="179.2" width="6.8" height="3.2" fill="#3987e5"/>
<line x1="386.6" y1="171.6" x2="386.6" y2="188.5" stroke="#e66767" stroke-width="1.2"/>
<rect x="383.3" y="177.4" width="6.8" height="10.6" fill="#e66767"/>
<line x1="396.9" y1="170.1" x2="396.9" y2="194.6" stroke="#3987e5" stroke-width="1.2"/>
<rect x="393.5" y="175.2" width="6.8" height="2.7" fill="#3987e5"/>
<line x1="407.1" y1="183.3" x2="407.1" y2="194.1" stroke="#e66767" stroke-width="1.2"/>
<rect x="403.7" y="188.1" width="6.8" height="2.3" fill="#e66767"/>
<line x1="417.4" y1="206.4" x2="417.4" y2="225.9" stroke="#3987e5" stroke-width="1.2"/>
<rect x="414.0" y="214.0" width="6.8" height="11.9" fill="#3987e5"/>
<line x1="427.6" y1="225.6" x2="427.6" y2="261.6" stroke="#e66767" stroke-width="1.2"/>
<rect x="424.2" y="252.3" width="6.8" height="9.1" fill="#e66767"/>
<line x1="437.8" y1="200.1" x2="437.8" y2="237.9" stroke="#e66767" stroke-width="1.2"/>
<rect x="434.5" y="201.9" width="6.8" height="27.4" fill="#e66767"/>
<line x1="448.1" y1="207.7" x2="448.1" y2="238.9" stroke="#3987e5" stroke-width="1.2"/>
<rect x="444.7" y="214.8" width="6.8" height="14.8" fill="#3987e5"/>
<line x1="458.3" y1="210.5" x2="458.3" y2="244.2" stroke="#e66767" stroke-width="1.2"/>
<rect x="455.0" y="220.8" width="6.8" height="20.9" fill="#e66767"/>
<line x1="468.6" y1="187.1" x2="468.6" y2="212.7" stroke="#3987e5" stroke-width="1.2"/>
<rect x="465.2" y="191.0" width="6.8" height="21.7" fill="#3987e5"/>
<line x1="478.8" y1="184.2" x2="478.8" y2="193.6" stroke="#e66767" stroke-width="1.2"/>
<rect x="475.4" y="189.8" width="6.8" height="1.2" fill="#e66767"/>
<line x1="489.1" y1="171.2" x2="489.1" y2="190.1" stroke="#e66767" stroke-width="1.2"/>
<rect x="485.7" y="174.2" width="6.8" height="1.2" fill="#e66767"/>
<line x1="499.3" y1="150.8" x2="499.3" y2="182.2" stroke="#e66767" stroke-width="1.2"/>
<rect x="495.9" y="151.2" width="6.8" height="30.8" fill="#e66767"/>
<line x1="509.5" y1="115.2" x2="509.5" y2="145.4" stroke="#e66767" stroke-width="1.2"/>
<rect x="506.2" y="124.0" width="6.8" height="21.4" fill="#e66767"/>
<line x1="519.8" y1="89.8" x2="519.8" y2="123.5" stroke="#3987e5" stroke-width="1.2"/>
<rect x="516.4" y="100.9" width="6.8" height="9.9" fill="#3987e5"/>
<line x1="530.0" y1="80.9" x2="530.0" y2="116.8" stroke="#e66767" stroke-width="1.2"/>
<rect x="526.7" y="85.2" width="6.8" height="31.7" fill="#e66767"/>
<line x1="540.3" y1="81.2" x2="540.3" y2="148.7" stroke="#3987e5" stroke-width="1.2"/>
<rect x="536.9" y="88.7" width="6.8" height="56.9" fill="#3987e5"/>
<line x1="550.5" y1="121.0" x2="550.5" y2="162.4" stroke="#e66767" stroke-width="1.2"/>
<rect x="547.1" y="134.6" width="6.8" height="3.8" fill="#e66767"/>
<line x1="560.8" y1="73.9" x2="560.8" y2="113.4" stroke="#e66767" stroke-width="1.2"/>
<rect x="557.4" y="85.5" width="6.8" height="8.6" fill="#e66767"/>
<line x1="571.0" y1="91.6" x2="571.0" y2="138.1" stroke="#3987e5" stroke-width="1.2"/>
<rect x="567.6" y="96.6" width="6.8" height="29.3" fill="#3987e5"/>
<line x1="581.2" y1="123.5" x2="581.2" y2="151.8" stroke="#3987e5" stroke-width="1.2"/>
<rect x="577.9" y="132.1" width="6.8" height="1.3" fill="#3987e5"/>
<line x1="591.5" y1="114.5" x2="591.5" y2="147.9" stroke="#e66767" stroke-width="1.2"/>
<rect x="588.1" y="129.8" width="6.8" height="7.0" fill="#e66767"/>
<line x1="601.7" y1="117.7" x2="601.7" y2="154.3" stroke="#3987e5" stroke-width="1.2"/>
<rect x="598.3" y="127.3" width="6.8" height="17.4" fill="#3987e5"/>
<line x1="612.0" y1="163.3" x2="612.0" y2="206.5" stroke="#3987e5" stroke-width="1.2"/>
<rect x="608.6" y="179.4" width="6.8" height="27.2" fill="#3987e5"/>
<line x1="622.2" y1="162.3" x2="622.2" y2="230.1" stroke="#e66767" stroke-width="1.2"/>
<rect x="618.8" y="167.1" width="6.8" height="37.8" fill="#e66767"/>
<line x1="632.5" y1="155.1" x2="632.5" y2="189.1" stroke="#3987e5" stroke-width="1.2"/>
<rect x="629.1" y="162.9" width="6.8" height="17.7" fill="#3987e5"/>
<line x1="642.7" y1="180.7" x2="642.7" y2="224.3" stroke="#3987e5" stroke-width="1.2"/>
<rect x="639.3" y="189.6" width="6.8" height="14.6" fill="#3987e5"/>
<line x1="652.9" y1="183.0" x2="652.9" y2="225.0" stroke="#3987e5" stroke-width="1.2"/>
<rect x="649.6" y="218.0" width="6.8" height="7.0" fill="#3987e5"/>
<line x1="663.2" y1="192.8" x2="663.2" y2="222.5" stroke="#3987e5" stroke-width="1.2"/>
<rect x="659.8" y="199.8" width="6.8" height="7.0" fill="#3987e5"/>
<line x1="673.4" y1="187.0" x2="673.4" y2="210.0" stroke="#3987e5" stroke-width="1.2"/>
<rect x="670.0" y="188.5" width="6.8" height="19.2" fill="#3987e5"/>
<line x1="683.7" y1="214.0" x2="683.7" y2="264.2" stroke="#3987e5" stroke-width="1.2"/>
<rect x="680.3" y="218.8" width="6.8" height="44.4" fill="#3987e5"/>
<line x1="693.9" y1="248.2" x2="693.9" y2="290.9" stroke="#e66767" stroke-width="1.2"/>
<rect x="690.5" y="252.0" width="6.8" height="14.6" fill="#e66767"/>
<line x1="704.2" y1="209.2" x2="704.2" y2="225.9" stroke="#3987e5" stroke-width="1.2"/>
<rect x="700.8" y="217.7" width="6.8" height="6.3" fill="#3987e5"/>
<line x1="714.4" y1="251.0" x2="714.4" y2="267.2" stroke="#3987e5" stroke-width="1.2"/>
<rect x="711.0" y="253.8" width="6.8" height="9.9" fill="#3987e5"/>
<line x1="724.6" y1="255.5" x2="724.6" y2="281.5" stroke="#e66767" stroke-width="1.2"/>
<rect x="721.3" y="276.7" width="6.8" height="3.2" fill="#e66767"/>
<line x1="734.9" y1="256.0" x2="734.9" y2="282.0" stroke="#e66767" stroke-width="1.2"/>
<rect x="731.5" y="264.7" width="6.8" height="10.1" fill="#e66767"/>
<text x="736" y="258.7" font-size="11" font-weight="700" fill="#ffffff" text-anchor="end" style="font-variant-numeric:tabular-nums">184만</text>
<line x1="64" y1="470" x2="740" y2="470" stroke="#383835" stroke-width="1"/>
<text x="58" y="480" font-size="10" fill="#898781" text-anchor="end">거래량</text>
<rect x="65.7" y="505.2" width="6.8" height="24.8" fill="#e66767" opacity="0.55"/>
<rect x="76.0" y="508.6" width="6.8" height="21.4" fill="#3987e5" opacity="0.55"/>
<rect x="86.2" y="514.9" width="6.8" height="15.1" fill="#e66767" opacity="0.55"/>
<rect x="96.5" y="511.3" width="6.8" height="18.7" fill="#3987e5" opacity="0.55"/>
<rect x="106.7" y="510.4" width="6.8" height="19.6" fill="#e66767" opacity="0.55"/>
<rect x="117.0" y="511.6" width="6.8" height="18.4" fill="#e66767" opacity="0.55"/>
<rect x="127.2" y="514.9" width="6.8" height="15.1" fill="#3987e5" opacity="0.55"/>
<rect x="137.4" y="502.1" width="6.8" height="27.9" fill="#e66767" opacity="0.55"/>
<rect x="147.7" y="513.7" width="6.8" height="16.3" fill="#3987e5" opacity="0.55"/>
<rect x="157.9" y="506.2" width="6.8" height="23.8" fill="#e66767" opacity="0.55"/>
<rect x="168.2" y="514.3" width="6.8" height="15.7" fill="#3987e5" opacity="0.55"/>
<rect x="178.4" y="514.3" width="6.8" height="15.7" fill="#e66767" opacity="0.55"/>
<rect x="188.7" y="512.5" width="6.8" height="17.5" fill="#3987e5" opacity="0.55"/>
<rect x="198.9" y="499.8" width="6.8" height="30.2" fill="#e66767" opacity="0.55"/>
<rect x="209.1" y="495.4" width="6.8" height="34.6" fill="#e66767" opacity="0.55"/>
<rect x="219.4" y="499.4" width="6.8" height="30.6" fill="#e66767" opacity="0.55"/>
<rect x="229.6" y="507.7" width="6.8" height="22.3" fill="#e66767" opacity="0.55"/>
<rect x="239.9" y="491.2" width="6.8" height="38.8" fill="#e66767" opacity="0.55"/>
<rect x="250.1" y="482.2" width="6.8" height="47.8" fill="#3987e5" opacity="0.55"/>
<rect x="260.3" y="492.8" width="6.8" height="37.2" fill="#e66767" opacity="0.55"/>
<rect x="270.6" y="498.5" width="6.8" height="31.5" fill="#3987e5" opacity="0.55"/>
<rect x="280.8" y="490.9" width="6.8" height="39.1" fill="#3987e5" opacity="0.55"/>
<rect x="291.1" y="496.2" width="6.8" height="33.8" fill="#e66767" opacity="0.55"/>
<rect x="301.3" y="506.1" width="6.8" height="23.9" fill="#3987e5" opacity="0.55"/>
<rect x="311.6" y="501.1" width="6.8" height="28.9" fill="#e66767" opacity="0.55"/>
<rect x="321.8" y="503.4" width="6.8" height="26.6" fill="#e66767" opacity="0.55"/>
<rect x="332.0" y="513.6" width="6.8" height="16.4" fill="#3987e5" opacity="0.55"/>
<rect x="342.3" y="504.4" width="6.8" height="25.6" fill="#e66767" opacity="0.55"/>
<rect x="352.5" y="490.6" width="6.8" height="39.4" fill="#3987e5" opacity="0.55"/>
<rect x="362.8" y="497.5" width="6.8" height="32.5" fill="#e66767" opacity="0.55"/>
<rect x="373.0" y="485.5" width="6.8" height="44.5" fill="#3987e5" opacity="0.55"/>
<rect x="383.3" y="500.7" width="6.8" height="29.3" fill="#e66767" opacity="0.55"/>
<rect x="393.5" y="499.5" width="6.8" height="30.5" fill="#3987e5" opacity="0.55"/>
<rect x="403.7" y="509.4" width="6.8" height="20.6" fill="#e66767" opacity="0.55"/>
<rect x="414.0" y="499.8" width="6.8" height="30.2" fill="#3987e5" opacity="0.55"/>
<rect x="424.2" y="495.5" width="6.8" height="34.5" fill="#e66767" opacity="0.55"/>
<rect x="434.5" y="499.3" width="6.8" height="30.7" fill="#e66767" opacity="0.55"/>
<rect x="444.7" y="530.0" width="6.8" height="0.0" fill="#3987e5" opacity="0.55"/>
<rect x="455.0" y="495.4" width="6.8" height="34.6" fill="#e66767" opacity="0.55"/>
<rect x="465.2" y="502.4" width="6.8" height="27.6" fill="#3987e5" opacity="0.55"/>
<rect x="475.4" y="509.8" width="6.8" height="20.2" fill="#e66767" opacity="0.55"/>
<rect x="485.7" y="511.0" width="6.8" height="19.0" fill="#e66767" opacity="0.55"/>
<rect x="495.9" y="509.2" width="6.8" height="20.8" fill="#e66767" opacity="0.55"/>
<rect x="506.2" y="499.7" width="6.8" height="30.3" fill="#e66767" opacity="0.55"/>
<rect x="516.4" y="491.0" width="6.8" height="39.0" fill="#3987e5" opacity="0.55"/>
<rect x="526.7" y="503.0" width="6.8" height="27.0" fill="#e66767" opacity="0.55"/>
<rect x="536.9" y="488.0" width="6.8" height="42.0" fill="#3987e5" opacity="0.55"/>
<rect x="547.1" y="490.9" width="6.8" height="39.1" fill="#e66767" opacity="0.55"/>
<rect x="557.4" y="494.5" width="6.8" height="35.5" fill="#e66767" opacity="0.55"/>
<rect x="567.6" y="491.0" width="6.8" height="39.0" fill="#3987e5" opacity="0.55"/>
<rect x="577.9" y="502.8" width="6.8" height="27.2" fill="#3987e5" opacity="0.55"/>
<rect x="588.1" y="503.3" width="6.8" height="26.7" fill="#e66767" opacity="0.55"/>
<rect x="598.3" y="507.7" width="6.8" height="22.3" fill="#3987e5" opacity="0.55"/>
<rect x="608.6" y="489.9" width="6.8" height="40.1" fill="#3987e5" opacity="0.55"/>
<rect x="618.8" y="488.3" width="6.8" height="41.7" fill="#e66767" opacity="0.55"/>
<rect x="629.1" y="507.9" width="6.8" height="22.1" fill="#3987e5" opacity="0.55"/>
<rect x="639.3" y="496.8" width="6.8" height="33.2" fill="#3987e5" opacity="0.55"/>
<rect x="649.6" y="493.6" width="6.8" height="36.4" fill="#3987e5" opacity="0.55"/>
<rect x="659.8" y="497.3" width="6.8" height="32.7" fill="#3987e5" opacity="0.55"/>
<rect x="670.0" y="504.8" width="6.8" height="25.2" fill="#3987e5" opacity="0.55"/>
<rect x="680.3" y="488.0" width="6.8" height="42.0" fill="#3987e5" opacity="0.55"/>
<rect x="690.5" y="475.5" width="6.8" height="54.5" fill="#e66767" opacity="0.55"/>
<rect x="700.8" y="498.4" width="6.8" height="31.6" fill="#3987e5" opacity="0.55"/>
<rect x="711.0" y="500.7" width="6.8" height="29.3" fill="#3987e5" opacity="0.55"/>
<rect x="721.3" y="499.3" width="6.8" height="30.7" fill="#e66767" opacity="0.55"/>
<rect x="731.5" y="504.1" width="6.8" height="25.9" fill="#e66767" opacity="0.55"/>
<path d="M263.7,505.4 L274.0,505.1 L284.2,504.2 L294.5,503.3 L304.7,503.0 L314.9,502.5 L325.2,502.1 L335.4,502.1 L345.7,502.2 L355.9,501.0 L366.2,500.6 L376.4,499.2 L386.6,498.5 L396.9,497.8 L407.1,498.3 L417.4,498.5 L427.6,498.3 L437.8,497.9 L448.1,499.9 L458.3,500.5 L468.6,501.0 L478.8,501.6 L489.1,502.6 L499.3,503.2 L509.5,502.9 L519.8,502.4 L530.0,502.4 L540.3,501.1 L550.5,500.4 L560.8,500.6 L571.0,500.3 L581.2,501.1 L591.5,501.3 L601.7,501.7 L612.0,500.7 L622.2,500.1 L632.5,500.7 L642.7,500.6 L652.9,498.8 L663.2,498.9 L673.4,499.0 L683.7,497.9 L693.9,496.2 L704.2,495.6 L714.4,495.7 L724.6,496.1 L734.9,496.1" fill="none" stroke="#008300" stroke-width="2"/>
<text x="69.1" y="548" font-size="10" fill="#898781" text-anchor="middle">04/14</text>
<text x="181.8" y="548" font-size="10" fill="#898781" text-anchor="middle">04/29</text>
<text x="294.5" y="548" font-size="10" fill="#898781" text-anchor="middle">05/18</text>
<text x="407.1" y="548" font-size="10" fill="#898781" text-anchor="middle">06/04</text>
<text x="519.8" y="548" font-size="10" fill="#898781" text-anchor="middle">06/19</text>
<text x="632.5" y="548" font-size="10" fill="#898781" text-anchor="middle">07/06</text>
</svg>