<svg xmlns="http://www.w3.org/2000/svg" width="760" height="560" viewBox="0 0 760 560" font-family='system-ui,-apple-system,"Segoe UI","Malgun Gothic","Apple SD Gothic Neo",sans-serif'>
<rect width="760" height="560" fill="#1a1a19"/>
<text x="20" y="28" font-size="14.5" font-weight="700" fill="#ffffff">일봉 차트 (최근 3개월)</text>
<text x="20" y="46" font-size="11" fill="#c3c2b7">원. 상승=빨강 / 하락=파랑 (국내 관례). 아래: 거래량과 20일 이평선.</text>
<line x1="518" y1="24" x2="536" y2="24" stroke="#e66767" stroke-width="2"/>
<text x="541" y="28" font-size="10.5" fill="#c3c2b7">상승</text>
<line x1="570" y1="24" x2="588" y2="24" stroke="#3987e5" stroke-width="2"/>
<text x="593" y="28" font-size="10.5" fill="#c3c2b7">하락</text>
<line x1="622" y1="24" x2="640" y2="24" stroke="#008300" stroke-width="2"/>
<text x="645" y="28" font-size="10.5" fill="#c3c2b7">거래량 MA20</text>
<line x1="64" y1="394.0" x2="740" y2="394.0" stroke="#2c2c2a" stroke-width="1"/>
<text x="58" y="397.5" font-size="10" fill="#898781" text-anchor="end" style="font-variant-numeric:tabular-nums">116만</text>
<line x1="64" y1="311.5" x2="740" y2="311.5" stroke="#2c2c2a" stroke-width="1"/>
<text x="58" y="315.0" font-size="10" fill="#898781" text-anchor="end" style="font-variant-numeric:tabular-nums">163만</text>
<line x1="64" y1="229.0" x2="740" y2="229.0" stroke="#2c2c2a" stroke-width="1"/>
<text x="58" y="232.5" font-size="10" fill="#898781" text-anchor="end" style="font-variant-numeric:tabular-nums">210만</text>
<line x1="64" y1="146.5" x2="740" y2="146.5" stroke="#2c2c2a" stroke-width="1"/>
<text x="58" y="150.0" font-size="10" fill="#898781" text-anchor="end" style="font-variant-numeric:tabular-nums">257만</text>
<line x1="64" y1="64.0" x2="740" y2="64.0" stroke="#2c2c2a" stroke-width="1"/>
<text x="58" y="67.5" font-size="10" fill="#898781" text-anchor="end" style="font-variant-numeric:tabular-nums">305만</text>
<line x1="69.1" y1="381.1" x2="69.1" y2="387.8" stroke="#3987e5" stroke-width="1.2"/>
<rect x="65.7" y="382.2" width="6.8" height="1.2" fill="#3987e5"/>
<line x1="79.4" y1="375.2" x2="79.4" y2="389.9" stroke="#e66767" stroke-width="1.2"/>
<rect x="76.0" y="382.5" width="6.8" height="1.2" fill="#e66767"/>
<line x1="89.6" y1="379.5" x2="89.6" y2="388.1" stroke="#3987e5" stroke-width="1.2"/>
<rect x="86.2" y="380.4" width="6.8" height="2.6" fill="#3987e5"/>
<line x1="99.8" y1="366.4" x2="99.8" y2="378.3" stroke="#e66767" stroke-width="1.2"/>
<rect x="96.5" y="370.8" width="6.8" height="6.8" fill="#e66767"/>
<line x1="110.1" y1="364.5" x2="110.1" y2="370.1" stroke="#3987e5" stroke-width="1.2"/>
<rect x="106.7" y="367.1" width="6.8" height="2.3" fill="#3987e5"/>
<line x1="120.3" y1="366.4" x2="120.3" y2="372.7" stroke="#e66767" stroke-width="1.2"/>
<rect x="117.0" y="370.6" width="6.8" height="1.6" fill="#e66767"/>
<line x1="130.6" y1="365.0" x2="130.6" y2="371.9" stroke="#3987e5" stroke-width="1.2"/>
<rect x="127.2" y="367.3" width="6.8" height="4.5" fill="#3987e5"/>
<line x1="140.8" y1="343.2" x2="140.8" y2="363.6" stroke="#e66767" stroke-width="1.2"/>
<rect x="137.4" y="343.7" width="6.8" height="18.9" fill="#e66767"/>
<line x1="151.1" y1="314.5" x2="151.1" y2="324.5" stroke="#e66767" stroke-width="1.2"/>
<rect x="147.7" y="316.8" width="6.8" height="1.9" fill="#e66767"/>
<line x1="161.3" y1="305.6" x2="161.3" y2="322.7" stroke="#e66767" stroke-width="1.2"/>
<rect x="157.9" y="307.5" width="6.8" height="5.6" fill="#e66767"/>
<line x1="171.5" y1="301.4" x2="171.5" y2="318.5" stroke="#e66767" stroke-width="1.2"/>
<rect x="168.2" y="301.9" width="6.8" height="16.6" fill="#e66767"/>
<line x1="181.8" y1="255.9" x2="181.8" y2="277.4" stroke="#e66767" stroke-width="1.2"/>
<rect x="178.4" y="268.0" width="6.8" height="8.2" fill="#e66767"/>
<line x1="192.0" y1="252.8" x2="192.0" y2="281.3" stroke="#3987e5" stroke-width="1.2"/>
<rect x="188.7" y="256.8" width="6.8" height="19.1" fill="#3987e5"/>
<line x1="202.3" y1="248.8" x2="202.3" y2="285.3" stroke="#e66767" stroke-width="1.2"/>
<rect x="198.9" y="251.2" width="6.8" height="34.1" fill="#e66767"/>
<line x1="212.5" y1="248.1" x2="212.5" y2="258.0" stroke="#3987e5" stroke-width="1.2"/>
<rect x="209.1" y="251.2" width="6.8" height="1.2" fill="#3987e5"/>
<line x1="222.8" y1="247.9" x2="222.8" y2="283.9" stroke="#3987e5" stroke-width="1.2"/>
<rect x="219.4" y="255.8" width="6.8" height="22.9" fill="#3987e5"/>
<line x1="233.0" y1="265.0" x2="233.0" y2="294.0" stroke="#e66767" stroke-width="1.2"/>
<rect x="229.6" y="275.0" width="6.8" height="10.5" fill="#e66767"/>
<line x1="243.2" y1="278.0" x2="243.2" y2="292.5" stroke="#3987e5" stroke-width="1.2"/>
<rect x="239.9" y="283.6" width="6.8" height="8.0" fill="#3987e5"/>
<line x1="253.5" y1="285.8" x2="253.5" y2="301.2" stroke="#e66767" stroke-width="1.2"/>
<rect x="250.1" y="291.6" width="6.8" height="1.2" fill="#e66767"/>
<line x1="263.7" y1="255.1" x2="263.7" y2="282.7" stroke="#e66767" stroke-width="1.2"/>
<rect x="260.3" y="257.5" width="6.8" height="24.3" fill="#e66767"/>
<line x1="274.0" y1="255.4" x2="274.0" y2="262.4" stroke="#3987e5" stroke-width="1.2"/>
<rect x="270.6" y="257.2" width="6.8" height="1.2" fill="#3987e5"/>
<line x1="284.2" y1="231.8" x2="284.2" y2="246.0" stroke="#e66767" stroke-width="1.2"/>
<rect x="280.8" y="237.9" width="6.8" height="7.7" fill="#e66767"/>
<line x1="294.5" y1="184.4" x2="294.5" y2="212.0" stroke="#3987e5" stroke-width="1.2"/>
<rect x="291.1" y="198.2" width="6.8" height="6.3" fill="#3987e5"/>
<line x1="304.7" y1="193.7" x2="304.7" y2="220.6" stroke="#e66767" stroke-width="1.2"/>
<rect x="301.3" y="196.5" width="6.8" height="17.5" fill="#e66767"/>
<line x1="314.9" y1="180.8" x2="314.9" y2="196.2" stroke="#3987e5" stroke-width="1.2"/>
<rect x="311.6" y="185.5" width="6.8" height="3.3" fill="#3987e5"/>
<line x1="325.2" y1="177.4" x2="325.2" y2="195.3" stroke="#e66767" stroke-width="1.2"/>
<rect x="321.8" y="183.5" width="6.8" height="11.2" fill="#e66767"/>
<line x1="335.4" y1="175.9" x2="335.4" y2="201.7" stroke="#3987e5" stroke-width="1.2"/>
<rect x="332.0" y="181.3" width="6.8" height="2.8" fill="#3987e5"/>
<line x1="345.7" y1="189.8" x2="345.7" y2="201.2" stroke="#e66767" stroke-width="1.2"/>
<rect x="342.3" y="194.9" width="6.8" height="2.4" fill="#e66767"/>
<line x1="355.9" y1="214.1" x2="355.9" y2="234.8" stroke="#3987e5" stroke-width="1.2"/>
<rect x="352.5" y="222.2" width="6.8" height="12.6" fill="#3987e5"/>
<line x1="366.2" y1="234.4" x2="366.2" y2="272.4" stroke="#e66767" stroke-width="1.2"/>
<rect x="362.8" y="262.6" width="6.8" height="9.6" fill="#e66767"/>
<line x1="376.4" y1="207.5" x2="376.4" y2="247.4" stroke="#e66767" stroke-width="1.2"/>
<rect x="373.0" y="209.4" width="6.8" height="28.8" fill="#e66767"/>
<line x1="386.6" y1="215.5" x2="386.6" y2="248.4" stroke="#3987e5" stroke-width="1.2"/>
<rect x="383.3" y="223.1" width="6.8" height="15.6" fill="#3987e5"/>
<line x1="396.9" y1="218.5" x2="396.9" y2="254.0" stroke="#e66767" stroke-width="1.2"/>
<rect x="393.5" y="229.4" width="6.8" height="22.0" fill="#e66767"/>
<line x1="407.1" y1="193.9" x2="407.1" y2="220.8" stroke="#3987e5" stroke-width="1.2"/>
<rect x="403.7" y="197.9" width="6.8" height="22.9" fill="#3987e5"/>
<line x1="417.4" y1="190.7" x2="417.4" y2="200.7" stroke="#e66767" stroke-width="1.2"/>
<rect x="414.0" y="196.7" width="6.8" height="1.2" fill="#e66767"/>
<line x1="427.6" y1="177.1" x2="427.6" y2="197.0" stroke="#e66767" stroke-width="1.2"/>
<rect x="424.2" y="180.2" width="6.8" height="1.2" fill="#e66767"/>
<line x1="437.8" y1="155.6" x2="437.8" y2="188.6" stroke="#e66767" stroke-width="1.2"/>
<rect x="434.5" y="155.9" width="6.8" height="32.5" fill="#e66767"/>
<line x1="448.1" y1="118.0" x2="448.1" y2="149.8" stroke="#e66767" stroke-width="1.2"/>
<rect x="444.7" y="127.2" width="6.8" height="22.6" fill="#e66767"/>
<line x1="458.3" y1="91.2" x2="458.3" y2="126.7" stroke="#3987e5" stroke-width="1.2"/>
<rect x="455.0" y="102.9" width="6.8" height="10.5" fill="#3987e5"/>
<line x1="468.6" y1="81.8" x2="468.6" y2="119.7" stroke="#e66767" stroke-width="1.2"/>
<rect x="465.2" y="86.3" width="6.8" height="33.4" fill="#e66767"/>
<line x1="478.8" y1="82.1" x2="478.8" y2="153.3" stroke="#3987e5" stroke-width="1.2"/>
<rect x="475.4" y="90.0" width="6.8" height="60.0" fill="#3987e5"/>
<line x1="489.1" y1="124.1" x2="489.1" y2="167.8" stroke="#e66767" stroke-width="1.2"/>
<rect x="485.7" y="138.4" width="6.8" height="4.0" fill="#e66767"/>
<line x1="499.3" y1="74.4" x2="499.3" y2="116.1" stroke="#e66767" stroke-width="1.2"/>
<rect x="495.9" y="86.7" width="6.8" height="9.1" fill="#e66767"/>
<line x1="509.5" y1="93.2" x2="509.5" y2="142.1" stroke="#3987e5" stroke-width="1.2"/>
<rect x="506.2" y="98.4" width="6.8" height="30.9" fill="#3987e5"/>
<line x1="519.8" y1="126.7" x2="519.8" y2="156.6" stroke="#3987e5" stroke-width="1.2"/>
<rect x="516.4" y="135.8" width="6.8" height="1.4" fill="#3987e5"/>
<line x1="530.0" y1="117.3" x2="530.0" y2="152.4" stroke="#e66767" stroke-width="1.2"/>
<rect x="526.7" y="133.4" width="6.8" height="7.3" fill="#e66767"/>
<line x1="540.3" y1="120.6" x2="540.3" y2="159.2" stroke="#3987e5" stroke-width="1.2"/>
<rect x="536.9" y="130.7" width="6.8" height="18.4" fill="#3987e5"/>
<line x1="550.5" y1="168.7" x2="550.5" y2="214.3" stroke="#3987e5" stroke-width="1.2"/>
<rect x="547.1" y="185.6" width="6.8" height="28.7" fill="#3987e5"/>
<line x1="560.8" y1="167.6" x2="560.8" y2="239.1" stroke="#e66767" stroke-width="1.2"/>
<rect x="557.4" y="172.7" width="6.8" height="39.9" fill="#e66767"/>
<line x1="571.0" y1="160.1" x2="571.0" y2="196.0" stroke="#3987e5" stroke-width="1.2"/>
<rect x="567.6" y="168.3" width="6.8" height="18.7" fill="#3987e5"/>
<line x1="581.2" y1="187.0" x2="581.2" y2="233.0" stroke="#3987e5" stroke-width="1.2"/>
<rect x="577.9" y="196.5" width="6.8" height="15.4" fill="#3987e5"/>
<line x1="591.5" y1="189.5" x2="591.5" y2="233.7" stroke="#3987e5" stroke-width="1.2"/>
<rect x="588.1" y="226.4" width="6.8" height="7.3" fill="#3987e5"/>
<line x1="601.7" y1="199.8" x2="601.7" y2="231.1" stroke="#3987e5" stroke-width="1.2"/>
<rect x="598.3" y="207.2" width="6.8" height="7.3" fill="#3987e5"/>
<line x1="612.0" y1="193.7" x2="612.0" y2="218.0" stroke="#3987e5" stroke-width="1.2"/>
<rect x="608.6" y="195.3" width="6.8" height="20.3" fill="#3987e5"/>
<line x1="622.2" y1="222.2" x2="622.2" y2="275.2" stroke="#3987e5" stroke-width="1.2"/>
<rect x="618.8" y="227.3" width="6.8" height="46.9" fill="#3987e5"/>
<line x1="632.5" y1="258.2" x2="632.5" y2="303.3" stroke="#e66767" stroke-width="1.2"/>
<rect x="629.1" y="262.2" width="6.8" height="15.4" fill="#e66767"/>
<line x1="642.7" y1="217.1" x2="642.7" y2="234.8" stroke="#3987e5" stroke-width="1.2"/>
<rect x="639.3" y="226.0" width="6.8" height="6.6" fill="#3987e5"/>
<line x1="652.9" y1="261.2" x2="652.9" y2="278.3" stroke="#3987e5" stroke-width="1.2"/>
<rect x="649.6" y="264.2" width="6.8" height="10.5" fill="#3987e5"/>
<line x1="663.2" y1="265.9" x2="663.2" y2="293.3" stroke="#e66767" stroke-width="1.2"/>
<rect x="659.8" y="288.3" width="6.8" height="3.3" fill="#e66767"/>
<line x1="673.4" y1="266.4" x2="673.4" y2="293.9" stroke="#e66767" stroke-width="1.2"/>
<rect x="670.0" y="275.7" width="6.8" height="10.7" fill="#e66767"/>
<line x1="683.7" y1="246.0" x2="683.7" y2="276.7" stroke="#3987e5" stroke-width="1.2"/>
<rect x="680.3" y="251.0" width="6.8" height="25.7" fill="#3987e5"/>
<line x1="693.9" y1="256.1" x2="693.9" y2="274.1" stroke="#e66767" stroke-width="1.2"/>
<rect x="690.5" y="261.2" width="6.8" height="1.6" fill="#e66767"/>
<line x1="704.2" y1="265.5" x2="704.2" y2="290.4" stroke="#3987e5" stroke-width="1.2"/>
<rect x="700.8" y="265.5" width="6.8" height="23.6" fill="#3987e5"/>
<line x1="714.4" y1="278.3" x2="714.4" y2="298.2" stroke="#e66767" stroke-width="1.2"/>
<rect x="711.0" y="279.2" width="6.8" height="1.2" fill="#e66767"/>
<line x1="724.6" y1="304.0" x2="724.6" y2="325.7" stroke="#3987e5" stroke-width="1.2"/>
<rect x="721.3" y="306.1" width="6.8" height="19.6" fill="#3987e5"/>
<line x1="734.9" y1="313.6" x2="734.9" y2="378.8" stroke="#3987e5" stroke-width="1.2"/>
<rect x="731.5" y="322.7" width="6.8" height="34.1" fill="#3987e5"/>
<text x="736" y="350.8" font-size="11" font-weight="700" fill="#ffffff" text-anchor="end" style="font-variant-numeric:tabular-nums">137만</text>
<line x1="64" y1="470" x2="740" y2="470" stroke="#383835" stroke-width="1"/>
<text x="58" y="480" font-size="10" fill="#898781" text-anchor="end">거래량</text>
<rect x="65.7" y="516.2" width="6.8" height="13.8" fill="#3987e5" opacity="0.55"/>
<rect x="76.0" y="504.5" width="6.8" height="25.5" fill="#e66767" opacity="0.55"/>
<rect x="86.2" y="515.1" width="6.8" height="14.9" fill="#3987e5" opacity="0.55"/>
<rect x="96.5" y="508.2" width="6.8" height="21.8" fill="#e66767" opacity="0.55"/>
<rect x="106.7" y="515.7" width="6.8" height="14.3" fill="#3987e5" opacity="0.55"/>
<rect x="117.0" y="515.7" width="6.8" height="14.3" fill="#e66767" opacity="0.55"/>
<rect x="127.2" y="514.0" width="6.8" height="16.0" fill="#3987e5" opacity="0.55"/>
<rect x="137.4" y="502.4" width="6.8" height="27.6" fill="#e66767" opacity="0.55"/>
<rect x="147.7" y="498.3" width="6.8" height="31.7" fill="#e66767" opacity="0.55"/>
<rect x="157.9" y="502.0" width="6.8" height="28.0" fill="#e66767" opacity="0.55"/>
<rect x="168.2" y="509.6" width="6.8" height="20.4" fill="#e66767" opacity="0.55"/>
<rect x="178.4" y="494.5" width="6.8" height="35.5" fill="#e66767" opacity="0.55"/>
<rect x="188.7" y="486.3" width="6.8" height="43.7" fill="#3987e5" opacity="0.55"/>
<rect x="198.9" y="496.0" width="6.8" height="34.0" fill="#e66767" opacity="0.55"/>
<rect x="209.1" y="501.2" width="6.8" height="28.8" fill="#3987e5" opacity="0.55"/>
<rect x="219.4" y="494.3" width="6.8" height="35.7" fill="#3987e5" opacity="0.55"/>
<rect x="229.6" y="499.1" width="6.8" height="30.9" fill="#e66767" opacity="0.55"/>
<rect x="239.9" y="508.2" width="6.8" height="21.8" fill="#3987e5" opacity="0.55"/>
<rect x="250.1" y="503.6" width="6.8" height="26.4" fill="#e66767" opacity="0.55"/>
<rect x="260.3" y="505.7" width="6.8" height="24.3" fill="#e66767" opacity="0.55"/>
<rect x="270.6" y="515.0" width="6.8" height="15.0" fill="#3987e5" opacity="0.55"/>
<rect x="280.8" y="506.6" width="6.8" height="23.4" fill="#e66767" opacity="0.55"/>
<rect x="291.1" y="494.0" width="6.8" height="36.0" fill="#3987e5" opacity="0.55"/>
<rect x="301.3" y="500.3" width="6.8" height="29.7" fill="#e66767" opacity="0.55"/>
<rect x="311.6" y="489.3" width="6.8" height="40.7" fill="#3987e5" opacity="0.55"/>
<rect x="321.8" y="503.3" width="6.8" height="26.7" fill="#e66767" opacity="0.55"/>
<rect x="332.0" y="502.1" width="6.8" height="27.9" fill="#3987e5" opacity="0.55"/>
<rect x="342.3" y="511.2" width="6.8" height="18.8" fill="#e66767" opacity="0.55"/>
<rect x="352.5" y="502.4" width="6.8" height="27.6" fill="#3987e5" opacity="0.55"/>
<rect x="362.8" y="498.4" width="6.8" height="31.6" fill="#e66767" opacity="0.55"/>
<rect x="373.0" y="501.9" width="6.8" height="28.1" fill="#e66767" opacity="0.55"/>
<rect x="383.3" y="530.0" width="6.8" height="0.0" fill="#3987e5" opacity="0.55"/>
<rect x="393.5" y="498.4" width="6.8" height="31.6" fill="#e66767" opacity="0.55"/>
<rect x="403.7" y="504.8" width="6.8" height="25.2" fill="#3987e5" opacity="0.55"/>
<rect x="414.0" y="511.5" width="6.8" height="18.5" fill="#e66767" opacity="0.55"/>
<rect x="424.2" y="512.6" width="6.8" height="17.4" fill="#e66767" opacity="0.55"/>
<rect x="434.5" y="511.0" width="6.8" height="19.0" fill="#e66767" opacity="0.55"/>
<rect x="444.7" y="502.3" width="6.8" height="27.7" fill="#e66767" opacity="0.55"/>
<rect x="455.0" y="494.3" width="6.8" height="35.7" fill="#3987e5" opacity="0.55"/>
<rect x="465.2" y="505.3" width="6.8" height="24.7" fill="#e66767" opacity="0.55"/>
<rect x="475.4" y="491.6" width="6.8" height="38.4" fill="#3987e5" opacity="0.55"/>
<rect x="485.7" y="494.3" width="6.8" height="35.7" fill="#e66767" opacity="0.55"/>
<rect x="495.9" y="497.6" width="6.8" height="32.4" fill="#e66767" opacity="0.55"/>
<rect x="506.2" y="494.4" width="6.8" height="35.6" fill="#3987e5" opacity="0.55"/>
<rect x="516.4" y="505.1" width="6.8" height="24.9" fill="#3987e5" opacity="0.55"/>
<rect x="526.7" y="505.6" width="6.8" height="24.4" fill="#e66767" opacity="0.55"/>
<rect x="536.9" y="509.6" width="6.8" height="20.4" fill="#3987e5" opacity="0.55"/>
<rect x="547.1" y="493.3" width="6.8" height="36.7" fill="#3987e5" opacity="0.55"/>
<rect x="557.4" y="491.9" width="6.8" height="38.1" fill="#e66767" opacity="0.55"/>
<rect x="567.6" y="509.8" width="6.8" height="20.2" fill="#3987e5" opacity="0.55"/>
<rect x="577.9" y="499.7" width="6.8" height="30.3" fill="#3987e5" opacity="0.55"/>
<rect x="588.1" y="496.7" width="6.8" height="33.3" fill="#3987e5" opacity="0.55"/>
<rect x="598.3" y="500.1" width="6.8" height="29.9" fill="#3987e5" opacity="0.55"/>
<rect x="608.6" y="507.0" width="6.8" height="23.0" fill="#3987e5" opacity="0.55"/>
<rect x="618.8" y="491.6" width="6.8" height="38.4" fill="#3987e5" opacity="0.55"/>
<rect x="629.1" y="480.1" width="6.8" height="49.9" fill="#e66767" opacity="0.55"/>
<rect x="639.3" y="501.1" width="6.8" height="28.9" fill="#3987e5" opacity="0.55"/>
<rect x="649.6" y="503.2" width="6.8" height="26.8" fill="#3987e5" opacity="0.55"/>
<rect x="659.8" y="502.0" width="6.8" height="28.0" fill="#e66767" opacity="0.55"/>
<rect x="670.0" y="507.9" width="6.8" height="22.1" fill="#e66767" opacity="0.55"/>
<rect x="680.3" y="507.1" width="6.8" height="22.9" fill="#3987e5" opacity="0.55"/>
<rect x="690.5" y="510.3" width="6.8" height="19.7" fill="#e66767" opacity="0.55"/>
<rect x="700.8" y="506.4" width="6.8" height="23.6" fill="#3987e5" opacity="0.55"/>
<rect x="711.0" y="510.8" width="6.8" height="19.2" fill="#e66767" opacity="0.55"/>
<rect x="721.3" y="491.2" width="6.8" height="38.8" fill="#3987e5" opacity="0.55"/>
<rect x="731.5" y="475.5" width="6.8" height="54.5" fill="#3987e5" opacity="0.55"/>
<path d="M263.7,504.5 L274.0,504.5 L284.2,504.6 L294.5,503.5 L304.7,503.1 L314.9,501.8 L325.2,501.2 L335.4,500.6 L345.7,501.0 L355.9,501.2 L366.2,501.0 L376.4,500.7 L386.6,502.4 L396.9,503.0 L407.1,503.5 L417.4,504.0 L427.6,504.9 L437.8,505.5 L448.1,505.2 L458.3,504.8 L468.6,504.7 L478.8,503.6 L489.1,502.9 L499.3,503.1 L509.5,502.8 L519.8,503.6 L530.0,503.7 L540.3,504.1 L550.5,503.2 L560.8,502.7 L571.0,503.3 L581.2,503.1 L591.5,501.5 L601.7,501.6 L612.0,501.7 L622.2,500.7 L632.5,499.1 L642.7,498.6 L652.9,498.6 L663.2,499.0 L673.4,499.1 L683.7,499.9 L693.9,500.7 L704.2,501.1 L714.4,502.0 L724.6,501.3 L734.9,499.8" fill="none" stroke="#008300" stroke-width="2"/>
<text x="69.1" y="548" font-size="10" fill="#898781" text-anchor="middle">04/22</text>
<text x="181.8" y="548" font-size="10" fill="#898781" text-anchor="middle">05/11</text>
<text x="294.5" y="548" font-size="10" fill="#898781" text-anchor="middle">05/27</text>
<text x="407.1" y="548" font-size="10" fill="#898781" text-anchor="middle">06/12</text>
<text x="519.8" y="548" font-size="10" fill="#898781" text-anchor="middle">06/29</text>
<text x="632.5" y="548" font-size="10" fill="#898781" text-anchor="middle">07/14</text>
</svg>