<svg xmlns="http://www.w3.org/2000/svg" width="760" height="250" viewBox="0 0 760 250" font-family='system-ui,-apple-system,"Segoe UI","Malgun Gothic","Apple SD Gothic Neo",sans-serif'>
<rect width="760" height="250" fill="#1a1a19"/>
<text x="20" y="28" font-size="14.5" font-weight="700" fill="#ffffff">KDJ (9,3,3)</text>
<text x="20" y="46" font-size="11" fill="#c3c2b7">80 이상 과매수 · 20 이하 과매도.</text>
<line x1="617" y1="24" x2="635" y2="24" stroke="#3987e5" stroke-width="2"/>
<text x="640" y="28" font-size="10.5" fill="#c3c2b7">K</text>
<line x1="658" y1="24" x2="676" y2="24" stroke="#008300" stroke-width="2"/>
<text x="681" y="28" font-size="10.5" fill="#c3c2b7">D</text>
<line x1="699" y1="24" x2="717" y2="24" stroke="#d55181" stroke-width="2" stroke-dasharray="4 3"/>
<text x="722" y="28" font-size="10.5" fill="#c3c2b7">J</text>
<line x1="64" y1="220.0" x2="740" y2="220.0" stroke="#2c2c2a" stroke-width="1"/>
<text x="58" y="223.5" font-size="10" fill="#898781" text-anchor="end" style="font-variant-numeric:tabular-nums">-21</text>
<line x1="64" y1="168.0" x2="740" y2="168.0" stroke="#2c2c2a" stroke-width="1"/>
<text x="58" y="171.5" font-size="10" fill="#898781" text-anchor="end" style="font-variant-numeric:tabular-nums">26</text>
<line x1="64" y1="116.0" x2="740" y2="116.0" stroke="#2c2c2a" stroke-width="1"/>
<text x="58" y="119.5" font-size="10" fill="#898781" text-anchor="end" style="font-variant-numeric:tabular-nums">72</text>
<line x1="64" y1="64.0" x2="740" y2="64.0" stroke="#2c2c2a" stroke-width="1"/>
<text x="58" y="67.5" font-size="10" fill="#898781" text-anchor="end" style="font-variant-numeric:tabular-nums">119</text>
<line x1="64" y1="107.4" x2="740" y2="107.4" stroke="#898781" stroke-width="1" stroke-dasharray="3 4"/>
<text x="742" y="110.4" font-size="9" fill="#898781">80</text>
<line x1="64" y1="174.6" x2="740" y2="174.6" stroke="#898781" stroke-width="1" stroke-dasharray="3 4"/>
<text x="742" y="177.6" font-size="9" fill="#898781">20</text>
<path d="M69.1,101.9 L79.4,98.5 L89.6,99.9 L99.8,96.7 L110.1,93.4 L120.3,92.2 L130.6,95.6 L140.8,100.9 L151.1,100.4 L161.3,100.3 L171.5,101.5 L181.8,104.4 L192.0,98.3 L202.3,95.0 L212.5,92.5 L222.8,90.2 L233.0,92.2 L243.2,97.0 L253.5,93.7 L263.7,92.1 L274.0,99.6 L284.2,108.0 L294.5,122.1 L304.7,132.8 L314.9,123.6 L325.2,117.4 L335.4,109.9 L345.7,108.0 L355.9,104.2 L366.2,100.3 L376.4,97.0 L386.6,95.5 L396.9,98.6 L407.1,119.5 L417.4,141.5 L427.6,135.7 L437.8,143.1 L448.1,144.4 L458.3,142.0 L468.6,131.0 L478.8,116.9 L489.1,106.4 L499.3,101.5 L509.5,101.1 L519.8,96.7 L530.0,107.6 L540.3,115.3 L550.5,108.8 L560.8,117.6 L571.0,127.2 L581.2,136.7 L591.5,149.3 L601.7,165.2 L612.0,160.7 L622.2,161.0 L632.5,166.8 L642.7,175.5 L652.9,175.1 L663.2,175.2 L673.4,182.2 L683.7,176.4 L693.9,164.8 L704.2,168.1 L714.4,172.9 L724.6,171.9 L734.9,171.2" fill="none" stroke="#3987e5" stroke-width="1.8"/>
<path d="M69.1,113.0 L79.4,108.2 L89.6,105.4 L99.8,102.5 L110.1,99.5 L120.3,97.1 L130.6,96.6 L140.8,98.0 L151.1,98.8 L161.3,99.3 L171.5,100.0 L181.8,101.5 L192.0,100.4 L202.3,98.6 L212.5,96.6 L222.8,94.5 L233.0,93.7 L243.2,94.8 L253.5,94.4 L263.7,93.7 L274.0,95.6 L284.2,99.8 L294.5,107.2 L304.7,115.8 L314.9,118.4 L325.2,118.0 L335.4,115.3 L345.7,112.9 L355.9,110.0 L366.2,106.7 L376.4,103.5 L386.6,100.8 L396.9,100.1 L407.1,106.6 L417.4,118.2 L427.6,124.0 L437.8,130.4 L448.1,135.1 L458.3,137.4 L468.6,135.2 L478.8,129.1 L489.1,121.6 L499.3,114.9 L509.5,110.3 L519.8,105.8 L530.0,106.4 L540.3,109.3 L550.5,109.2 L560.8,112.0 L571.0,117.1 L581.2,123.6 L591.5,132.2 L601.7,143.2 L612.0,149.0 L622.2,153.0 L632.5,157.6 L642.7,163.6 L652.9,167.4 L663.2,170.0 L673.4,174.1 L683.7,174.8 L693.9,171.5 L704.2,170.4 L714.4,171.2 L724.6,171.4 L734.9,171.3" fill="none" stroke="#008300" stroke-width="1.8"/>
<path d="M69.1,79.6 L79.4,79.1 L89.6,88.8 L99.8,85.2 L110.1,81.4 L120.3,82.5 L130.6,93.6 L140.8,106.8 L151.1,103.5 L161.3,102.3 L171.5,104.5 L181.8,110.2 L192.0,94.2 L202.3,87.8 L212.5,84.4 L222.8,81.8 L233.0,89.1 L243.2,101.3 L253.5,92.3 L263.7,88.9 L274.0,107.6 L284.2,124.4 L294.5,151.9 L304.7,167.0 L314.9,134.1 L325.2,116.0 L335.4,99.0 L345.7,98.3 L355.9,92.6 L366.2,87.4 L376.4,84.1 L386.6,84.7 L396.9,95.7 L407.1,145.4 L417.4,188.2 L427.6,158.9 L437.8,168.4 L448.1,163.1 L458.3,151.2 L468.6,122.6 L478.8,92.5 L489.1,76.1 L499.3,74.8 L509.5,82.7 L519.8,78.6 L530.0,110.0 L540.3,127.1 L550.5,108.1 L560.8,128.8 L571.0,147.6 L581.2,162.9 L591.5,183.6 L601.7,209.2 L612.0,184.1 L622.2,177.0 L632.5,185.2 L642.7,199.3 L652.9,190.5 L663.2,185.5 L673.4,198.4 L683.7,179.5 L693.9,151.5 L704.2,163.5 L714.4,176.2 L724.6,172.7 L734.9,170.9" fill="none" stroke="#d55181" stroke-width="1.8" stroke-dasharray="4 3"/>
<text x="69.1" y="238" font-size="10" fill="#898781" text-anchor="middle">04/15</text>
<text x="181.8" y="238" font-size="10" fill="#898781" text-anchor="middle">04/30</text>
<text x="294.5" y="238" font-size="10" fill="#898781" text-anchor="middle">05/19</text>
<text x="407.1" y="238" font-size="10" fill="#898781" text-anchor="middle">06/05</text>
<text x="519.8" y="238" font-size="10" fill="#898781" text-anchor="middle">06/22</text>
<text x="632.5" y="238" font-size="10" fill="#898781" text-anchor="middle">07/07</text>
</svg>