<svg xmlns="http://www.w3.org/2000/svg" width="760" height="250" viewBox="0 0 760 250" font-family='system-ui,-apple-system,"Segoe UI","Malgun Gothic","Apple SD Gothic Neo",sans-serif'>
<rect width="760" height="250" fill="#1a1a19"/>
<text x="20" y="28" font-size="14.5" font-weight="700" fill="#ffffff">KDJ (9,3,3)</text>
<text x="20" y="46" font-size="11" fill="#c3c2b7">80 이상 과매수 · 20 이하 과매도.</text>
<line x1="617" y1="24" x2="635" y2="24" stroke="#3987e5" stroke-width="2"/>
<text x="640" y="28" font-size="10.5" fill="#c3c2b7">K</text>
<line x1="658" y1="24" x2="676" y2="24" stroke="#008300" stroke-width="2"/>
<text x="681" y="28" font-size="10.5" fill="#c3c2b7">D</text>
<line x1="699" y1="24" x2="717" y2="24" stroke="#d55181" stroke-width="2" stroke-dasharray="4 3"/>
<text x="722" y="28" font-size="10.5" fill="#c3c2b7">J</text>
<line x1="64" y1="220.0" x2="740" y2="220.0" stroke="#2c2c2a" stroke-width="1"/>
<text x="58" y="223.5" font-size="10" fill="#898781" text-anchor="end" style="font-variant-numeric:tabular-nums">-21</text>
<line x1="64" y1="168.0" x2="740" y2="168.0" stroke="#2c2c2a" stroke-width="1"/>
<text x="58" y="171.5" font-size="10" fill="#898781" text-anchor="end" style="font-variant-numeric:tabular-nums">26</text>
<line x1="64" y1="116.0" x2="740" y2="116.0" stroke="#2c2c2a" stroke-width="1"/>
<text x="58" y="119.5" font-size="10" fill="#898781" text-anchor="end" style="font-variant-numeric:tabular-nums">72</text>
<line x1="64" y1="64.0" x2="740" y2="64.0" stroke="#2c2c2a" stroke-width="1"/>
<text x="58" y="67.5" font-size="10" fill="#898781" text-anchor="end" style="font-variant-numeric:tabular-nums">119</text>
<line x1="64" y1="107.4" x2="740" y2="107.4" stroke="#898781" stroke-width="1" stroke-dasharray="3 4"/>
<text x="742" y="110.4" font-size="9" fill="#898781">80</text>
<line x1="64" y1="174.6" x2="740" y2="174.6" stroke="#898781" stroke-width="1" stroke-dasharray="3 4"/>
<text x="742" y="177.6" font-size="9" fill="#898781">20</text>
<path d="M69.1,98.5 L79.4,99.9 L89.6,96.7 L99.8,93.4 L110.1,92.2 L120.3,95.6 L130.6,100.9 L140.8,100.4 L151.1,100.3 L161.3,101.5 L171.5,104.4 L181.8,98.3 L192.0,95.0 L202.3,92.5 L212.5,90.2 L222.8,92.2 L233.0,97.0 L243.2,93.7 L253.5,92.1 L263.7,99.6 L274.0,108.0 L284.2,122.1 L294.5,132.8 L304.7,123.6 L314.9,117.4 L325.2,109.9 L335.4,108.0 L345.7,104.2 L355.9,100.3 L366.2,97.0 L376.4,95.5 L386.6,98.6 L396.9,119.5 L407.1,141.5 L417.4,135.7 L427.6,143.1 L437.8,144.4 L448.1,142.0 L458.3,131.0 L468.6,116.9 L478.8,106.4 L489.1,101.5 L499.3,101.1 L509.5,96.7 L519.8,107.6 L530.0,115.3 L540.3,108.8 L550.5,117.6 L560.8,127.2 L571.0,136.7 L581.2,149.3 L591.5,165.2 L601.7,160.7 L612.0,161.0 L622.2,166.8 L632.5,175.5 L642.7,175.1 L652.9,175.2 L663.2,182.2 L673.4,176.4 L683.7,164.8 L693.9,168.1 L704.2,172.9 L714.4,171.9 L724.6,171.2 L734.9,166.3" fill="none" stroke="#3987e5" stroke-width="1.8"/>
<path d="M69.1,108.2 L79.4,105.4 L89.6,102.5 L99.8,99.5 L110.1,97.1 L120.3,96.6 L130.6,98.0 L140.8,98.8 L151.1,99.3 L161.3,100.0 L171.5,101.5 L181.8,100.4 L192.0,98.6 L202.3,96.6 L212.5,94.5 L222.8,93.7 L233.0,94.8 L243.2,94.4 L253.5,93.7 L263.7,95.6 L274.0,99.8 L284.2,107.2 L294.5,115.8 L304.7,118.4 L314.9,118.0 L325.2,115.3 L335.4,112.9 L345.7,110.0 L355.9,106.7 L366.2,103.5 L376.4,100.8 L386.6,100.1 L396.9,106.6 L407.1,118.2 L417.4,124.0 L427.6,130.4 L437.8,135.1 L448.1,137.4 L458.3,135.2 L468.6,129.1 L478.8,121.6 L489.1,114.9 L499.3,110.3 L509.5,105.8 L519.8,106.4 L530.0,109.3 L540.3,109.2 L550.5,112.0 L560.8,117.1 L571.0,123.6 L581.2,132.2 L591.5,143.2 L601.7,149.0 L612.0,153.0 L622.2,157.6 L632.5,163.6 L642.7,167.4 L652.9,170.0 L663.2,174.1 L673.4,174.8 L683.7,171.5 L693.9,170.4 L704.2,171.2 L714.4,171.4 L724.6,171.3 L734.9,169.7" fill="none" stroke="#008300" stroke-width="1.8"/>
<path d="M69.1,79.1 L79.4,88.8 L89.6,85.2 L99.8,81.4 L110.1,82.5 L120.3,93.6 L130.6,106.8 L140.8,103.5 L151.1,102.3 L161.3,104.5 L171.5,110.2 L181.8,94.2 L192.0,87.8 L202.3,84.4 L212.5,81.8 L222.8,89.1 L233.0,101.3 L243.2,92.3 L253.5,88.9 L263.7,107.6 L274.0,124.4 L284.2,151.9 L294.5,167.0 L304.7,134.1 L314.9,116.0 L325.2,99.0 L335.4,98.3 L345.7,92.6 L355.9,87.4 L366.2,84.1 L376.4,84.7 L386.6,95.7 L396.9,145.4 L407.1,188.2 L417.4,158.9 L427.6,168.4 L437.8,163.1 L448.1,151.2 L458.3,122.6 L468.6,92.5 L478.8,76.1 L489.1,74.8 L499.3,82.7 L509.5,78.6 L519.8,110.0 L530.0,127.1 L540.3,108.1 L550.5,128.8 L560.8,147.6 L571.0,162.9 L581.2,183.6 L591.5,209.2 L601.7,184.1 L612.0,177.0 L622.2,185.2 L632.5,199.3 L642.7,190.5 L652.9,185.5 L663.2,198.4 L673.4,179.5 L683.7,151.5 L693.9,163.5 L704.2,176.2 L714.4,172.7 L724.6,170.9 L734.9,159.6" fill="none" stroke="#d55181" stroke-width="1.8" stroke-dasharray="4 3"/>
<text x="69.1" y="238" font-size="10" fill="#898781" text-anchor="middle">04/16</text>
<text x="181.8" y="238" font-size="10" fill="#898781" text-anchor="middle">05/04</text>
<text x="294.5" y="238" font-size="10" fill="#898781" text-anchor="middle">05/20</text>
<text x="407.1" y="238" font-size="10" fill="#898781" text-anchor="middle">06/08</text>
<text x="519.8" y="238" font-size="10" fill="#898781" text-anchor="middle">06/23</text>
<text x="632.5" y="238" font-size="10" fill="#898781" text-anchor="middle">07/08</text>
</svg>