<svg xmlns="http://www.w3.org/2000/svg" width="760" height="250" viewBox="0 0 760 250" font-family='system-ui,-apple-system,"Segoe UI","Malgun Gothic","Apple SD Gothic Neo",sans-serif'>
<rect width="760" height="250" fill="#1a1a19"/>
<text x="20" y="28" font-size="14.5" font-weight="700" fill="#ffffff">KDJ (9,3,3)</text>
<text x="20" y="46" font-size="11" fill="#c3c2b7">80 이상 과매수 · 20 이하 과매도.</text>
<line x1="617" y1="24" x2="635" y2="24" stroke="#3987e5" stroke-width="2"/>
<text x="640" y="28" font-size="10.5" fill="#c3c2b7">K</text>
<line x1="658" y1="24" x2="676" y2="24" stroke="#008300" stroke-width="2"/>
<text x="681" y="28" font-size="10.5" fill="#c3c2b7">D</text>
<line x1="699" y1="24" x2="717" y2="24" stroke="#d55181" stroke-width="2" stroke-dasharray="4 3"/>
<text x="722" y="28" font-size="10.5" fill="#c3c2b7">J</text>
<line x1="64" y1="220.0" x2="740" y2="220.0" stroke="#2c2c2a" stroke-width="1"/>
<text x="58" y="223.5" font-size="10" fill="#898781" text-anchor="end" style="font-variant-numeric:tabular-nums">-21</text>
<line x1="64" y1="168.0" x2="740" y2="168.0" stroke="#2c2c2a" stroke-width="1"/>
<text x="58" y="171.5" font-size="10" fill="#898781" text-anchor="end" style="font-variant-numeric:tabular-nums">26</text>
<line x1="64" y1="116.0" x2="740" y2="116.0" stroke="#2c2c2a" stroke-width="1"/>
<text x="58" y="119.5" font-size="10" fill="#898781" text-anchor="end" style="font-variant-numeric:tabular-nums">73</text>
<line x1="64" y1="64.0" x2="740" y2="64.0" stroke="#2c2c2a" stroke-width="1"/>
<text x="58" y="67.5" font-size="10" fill="#898781" text-anchor="end" style="font-variant-numeric:tabular-nums">120</text>
<line x1="64" y1="108.2" x2="740" y2="108.2" stroke="#898781" stroke-width="1" stroke-dasharray="3 4"/>
<text x="742" y="111.2" font-size="9" fill="#898781">80</text>
<line x1="64" y1="174.9" x2="740" y2="174.9" stroke="#898781" stroke-width="1" stroke-dasharray="3 4"/>
<text x="742" y="177.9" font-size="9" fill="#898781">20</text>
<path d="M69.1,117.3 L79.4,109.4 L89.6,104.5 L99.8,102.7 L110.1,99.3 L120.3,100.7 L130.6,97.6 L140.8,94.4 L151.1,93.1 L161.3,96.5 L171.5,101.8 L181.8,101.2 L192.0,101.2 L202.3,102.4 L212.5,105.2 L222.8,99.2 L233.0,95.9 L243.2,93.4 L253.5,91.2 L263.7,93.1 L274.0,97.8 L284.2,94.6 L294.5,93.0 L304.7,100.5 L314.9,108.8 L325.2,122.8 L335.4,133.4 L345.7,124.3 L355.9,118.1 L366.2,110.6 L376.4,108.8 L386.6,105.0 L396.9,101.1 L407.1,97.9 L417.4,96.4 L427.6,99.5 L437.8,120.2 L448.1,142.1 L458.3,136.3 L468.6,143.6 L478.8,144.9 L489.1,142.5 L499.3,131.6 L509.5,117.6 L519.8,107.2 L530.0,102.3 L540.3,101.9 L550.5,97.6 L560.8,108.4 L571.0,116.0 L581.2,109.6 L591.5,118.3 L601.7,127.9 L612.0,137.3 L622.2,149.8 L632.5,165.6 L642.7,161.1 L652.9,161.4 L663.2,167.1 L673.4,175.7 L683.7,175.4 L693.9,175.4 L704.2,182.4 L714.4,176.7 L724.6,165.2 L734.9,168.4" fill="none" stroke="#3987e5" stroke-width="1.8"/>
<path d="M69.1,135.3 L79.4,126.7 L89.6,119.3 L99.8,113.8 L110.1,109.0 L120.3,106.2 L130.6,103.3 L140.8,100.3 L151.1,97.9 L161.3,97.5 L171.5,98.9 L181.8,99.7 L192.0,100.2 L202.3,100.9 L212.5,102.3 L222.8,101.3 L233.0,99.5 L243.2,97.5 L253.5,95.4 L263.7,94.6 L274.0,95.7 L284.2,95.3 L294.5,94.6 L304.7,96.5 L314.9,100.6 L325.2,108.0 L335.4,116.5 L345.7,119.1 L355.9,118.7 L366.2,116.0 L376.4,113.6 L386.6,110.8 L396.9,107.5 L407.1,104.3 L417.4,101.7 L427.6,101.0 L437.8,107.4 L448.1,118.9 L458.3,124.7 L468.6,131.0 L478.8,135.6 L489.1,137.9 L499.3,135.8 L509.5,129.8 L519.8,122.2 L530.0,115.6 L540.3,111.1 L550.5,106.6 L560.8,107.2 L571.0,110.1 L581.2,109.9 L591.5,112.7 L601.7,117.8 L612.0,124.3 L622.2,132.8 L632.5,143.7 L642.7,149.5 L652.9,153.5 L663.2,158.0 L673.4,163.9 L683.7,167.7 L693.9,170.3 L704.2,174.3 L714.4,175.1 L724.6,171.8 L734.9,170.7" fill="none" stroke="#008300" stroke-width="1.8"/>
<path d="M69.1,81.3 L79.4,74.8 L89.6,75.1 L99.8,80.7 L110.1,80.1 L120.3,89.8 L130.6,86.1 L140.8,82.4 L151.1,83.5 L161.3,94.5 L171.5,107.6 L181.8,104.4 L192.0,103.1 L202.3,105.3 L212.5,111.0 L222.8,95.1 L233.0,88.7 L243.2,85.4 L253.5,82.8 L263.7,90.0 L274.0,102.1 L284.2,93.2 L294.5,89.9 L304.7,108.4 L314.9,125.1 L325.2,152.4 L335.4,167.3 L345.7,134.7 L355.9,116.7 L366.2,99.8 L376.4,99.1 L386.6,93.5 L396.9,88.3 L407.1,85.1 L417.4,85.7 L427.6,96.6 L437.8,145.9 L448.1,188.3 L458.3,159.3 L468.6,168.7 L478.8,163.4 L489.1,151.7 L499.3,123.3 L509.5,93.4 L519.8,77.1 L530.0,75.8 L540.3,83.7 L550.5,79.6 L560.8,110.8 L571.0,127.8 L581.2,108.9 L591.5,129.5 L601.7,148.1 L612.0,163.3 L622.2,183.8 L632.5,209.2 L642.7,184.3 L652.9,177.2 L663.2,185.4 L673.4,199.4 L683.7,190.6 L693.9,185.7 L704.2,198.5 L714.4,179.8 L724.6,152.0 L734.9,163.9" fill="none" stroke="#d55181" stroke-width="1.8" stroke-dasharray="4 3"/>
<text x="69.1" y="238" font-size="10" fill="#898781" text-anchor="middle">04/10</text>
<text x="181.8" y="238" font-size="10" fill="#898781" text-anchor="middle">04/27</text>
<text x="294.5" y="238" font-size="10" fill="#898781" text-anchor="middle">05/14</text>
<text x="407.1" y="238" font-size="10" fill="#898781" text-anchor="middle">06/01</text>
<text x="519.8" y="238" font-size="10" fill="#898781" text-anchor="middle">06/17</text>
<text x="632.5" y="238" font-size="10" fill="#898781" text-anchor="middle">07/02</text>
</svg>