<svg xmlns="http://www.w3.org/2000/svg" width="760" height="250" viewBox="0 0 760 250" font-family='system-ui,-apple-system,"Segoe UI","Malgun Gothic","Apple SD Gothic Neo",sans-serif'>
<rect width="760" height="250" fill="#1a1a19"/>
<text x="20" y="28" font-size="14.5" font-weight="700" fill="#ffffff">KDJ (9,3,3)</text>
<text x="20" y="46" font-size="11" fill="#c3c2b7">80 이상 과매수 · 20 이하 과매도.</text>
<line x1="617" y1="24" x2="635" y2="24" stroke="#3987e5" stroke-width="2"/>
<text x="640" y="28" font-size="10.5" fill="#c3c2b7">K</text>
<line x1="658" y1="24" x2="676" y2="24" stroke="#008300" stroke-width="2"/>
<text x="681" y="28" font-size="10.5" fill="#c3c2b7">D</text>
<line x1="699" y1="24" x2="717" y2="24" stroke="#d55181" stroke-width="2" stroke-dasharray="4 3"/>
<text x="722" y="28" font-size="10.5" fill="#c3c2b7">J</text>
<line x1="64" y1="220.0" x2="740" y2="220.0" stroke="#2c2c2a" stroke-width="1"/>
<text x="58" y="223.5" font-size="10" fill="#898781" text-anchor="end" style="font-variant-numeric:tabular-nums">-21</text>
<line x1="64" y1="168.0" x2="740" y2="168.0" stroke="#2c2c2a" stroke-width="1"/>
<text x="58" y="171.5" font-size="10" fill="#898781" text-anchor="end" style="font-variant-numeric:tabular-nums">26</text>
<line x1="64" y1="116.0" x2="740" y2="116.0" stroke="#2c2c2a" stroke-width="1"/>
<text x="58" y="119.5" font-size="10" fill="#898781" text-anchor="end" style="font-variant-numeric:tabular-nums">73</text>
<line x1="64" y1="64.0" x2="740" y2="64.0" stroke="#2c2c2a" stroke-width="1"/>
<text x="58" y="67.5" font-size="10" fill="#898781" text-anchor="end" style="font-variant-numeric:tabular-nums">119</text>
<line x1="64" y1="108.0" x2="740" y2="108.0" stroke="#898781" stroke-width="1" stroke-dasharray="3 4"/>
<text x="742" y="111.0" font-size="9" fill="#898781">80</text>
<line x1="64" y1="174.8" x2="740" y2="174.8" stroke="#898781" stroke-width="1" stroke-dasharray="3 4"/>
<text x="742" y="177.8" font-size="9" fill="#898781">20</text>
<path d="M69.1,104.3 L79.4,102.5 L89.6,99.1 L99.8,100.5 L110.1,97.4 L120.3,94.1 L130.6,92.9 L140.8,96.2 L151.1,101.5 L161.3,101.0 L171.5,100.9 L181.8,102.1 L192.0,105.0 L202.3,99.0 L212.5,95.7 L222.8,93.2 L233.0,90.9 L243.2,92.8 L253.5,97.6 L263.7,94.4 L274.0,92.7 L284.2,100.2 L294.5,108.5 L304.7,122.6 L314.9,133.3 L325.2,124.1 L335.4,117.9 L345.7,110.4 L355.9,108.6 L366.2,104.8 L376.4,100.9 L386.6,97.7 L396.9,96.1 L407.1,99.2 L417.4,120.0 L427.6,141.9 L437.8,136.1 L448.1,143.4 L458.3,144.8 L468.6,142.3 L478.8,131.5 L489.1,117.4 L499.3,107.0 L509.5,102.1 L519.8,101.7 L530.0,97.3 L540.3,108.1 L550.5,115.8 L560.8,109.4 L571.0,118.1 L581.2,127.7 L591.5,137.1 L601.7,149.7 L612.0,165.4 L622.2,161.0 L632.5,161.3 L642.7,167.1 L652.9,175.7 L663.2,175.3 L673.4,175.3 L683.7,182.3 L693.9,176.6 L704.2,165.1 L714.4,168.3 L724.6,173.1 L734.9,172.1" fill="none" stroke="#3987e5" stroke-width="1.8"/>
<path d="M69.1,119.1 L79.4,113.5 L89.6,108.7 L99.8,106.0 L110.1,103.1 L120.3,100.1 L130.6,97.7 L140.8,97.2 L151.1,98.6 L161.3,99.4 L171.5,99.9 L181.8,100.7 L192.0,102.1 L202.3,101.0 L212.5,99.2 L222.8,97.2 L233.0,95.1 L243.2,94.4 L253.5,95.4 L263.7,95.1 L274.0,94.3 L284.2,96.3 L294.5,100.4 L304.7,107.8 L314.9,116.3 L325.2,118.9 L335.4,118.5 L345.7,115.8 L355.9,113.4 L366.2,110.5 L376.4,107.3 L386.6,104.1 L396.9,101.4 L407.1,100.7 L417.4,107.1 L427.6,118.7 L437.8,124.5 L448.1,130.8 L458.3,135.5 L468.6,137.8 L478.8,135.7 L489.1,129.6 L499.3,122.0 L509.5,115.4 L519.8,110.8 L530.0,106.3 L540.3,106.9 L550.5,109.9 L560.8,109.7 L571.0,112.5 L581.2,117.6 L591.5,124.1 L601.7,132.6 L612.0,143.6 L622.2,149.4 L632.5,153.3 L642.7,157.9 L652.9,163.8 L663.2,167.6 L673.4,170.2 L683.7,174.3 L693.9,175.0 L704.2,171.7 L714.4,170.6 L724.6,171.4 L734.9,171.6" fill="none" stroke="#008300" stroke-width="1.8"/>
<path d="M69.1,74.8 L79.4,80.4 L89.6,79.8 L99.8,89.5 L110.1,85.9 L120.3,82.1 L130.6,83.2 L140.8,94.3 L151.1,107.3 L161.3,104.1 L171.5,102.9 L181.8,105.0 L192.0,110.7 L202.3,94.8 L212.5,88.5 L222.8,85.1 L233.0,82.5 L243.2,89.8 L253.5,101.9 L263.7,92.9 L274.0,89.6 L284.2,108.2 L294.5,124.9 L304.7,152.2 L314.9,167.2 L325.2,134.5 L335.4,116.5 L345.7,99.6 L355.9,98.9 L366.2,93.3 L376.4,88.0 L386.6,84.8 L396.9,85.4 L407.1,96.3 L417.4,145.7 L427.6,188.3 L437.8,159.2 L448.1,168.6 L458.3,163.3 L468.6,151.5 L478.8,123.1 L489.1,93.1 L499.3,76.8 L509.5,75.5 L519.8,83.4 L530.0,79.3 L540.3,110.6 L550.5,127.6 L560.8,108.6 L571.0,129.3 L581.2,148.0 L591.5,163.2 L601.7,183.7 L612.0,209.2 L622.2,184.3 L632.5,177.1 L642.7,185.3 L652.9,199.3 L663.2,190.6 L673.4,185.6 L683.7,198.5 L693.9,179.7 L704.2,151.8 L714.4,163.8 L724.6,176.4 L734.9,172.9" fill="none" stroke="#d55181" stroke-width="1.8" stroke-dasharray="4 3"/>
<text x="69.1" y="238" font-size="10" fill="#898781" text-anchor="middle">04/14</text>
<text x="181.8" y="238" font-size="10" fill="#898781" text-anchor="middle">04/29</text>
<text x="294.5" y="238" font-size="10" fill="#898781" text-anchor="middle">05/18</text>
<text x="407.1" y="238" font-size="10" fill="#898781" text-anchor="middle">06/04</text>
<text x="519.8" y="238" font-size="10" fill="#898781" text-anchor="middle">06/19</text>
<text x="632.5" y="238" font-size="10" fill="#898781" text-anchor="middle">07/06</text>
</svg>