<svg xmlns="http://www.w3.org/2000/svg" width="760" height="250" viewBox="0 0 760 250" font-family='system-ui,-apple-system,"Segoe UI","Malgun Gothic","Apple SD Gothic Neo",sans-serif'>
<rect width="760" height="250" fill="#1a1a19"/>
<text x="20" y="28" font-size="14.5" font-weight="700" fill="#ffffff">KDJ (9,3,3)</text>
<text x="20" y="46" font-size="11" fill="#c3c2b7">80 이상 과매수 · 20 이하 과매도.</text>
<line x1="617" y1="24" x2="635" y2="24" stroke="#3987e5" stroke-width="2"/>
<text x="640" y="28" font-size="10.5" fill="#c3c2b7">K</text>
<line x1="658" y1="24" x2="676" y2="24" stroke="#008300" stroke-width="2"/>
<text x="681" y="28" font-size="10.5" fill="#c3c2b7">D</text>
<line x1="699" y1="24" x2="717" y2="24" stroke="#d55181" stroke-width="2" stroke-dasharray="4 3"/>
<text x="722" y="28" font-size="10.5" fill="#c3c2b7">J</text>
<line x1="64" y1="220.0" x2="740" y2="220.0" stroke="#2c2c2a" stroke-width="1"/>
<text x="58" y="223.5" font-size="10" fill="#898781" text-anchor="end" style="font-variant-numeric:tabular-nums">-21</text>
<line x1="64" y1="168.0" x2="740" y2="168.0" stroke="#2c2c2a" stroke-width="1"/>
<text x="58" y="171.5" font-size="10" fill="#898781" text-anchor="end" style="font-variant-numeric:tabular-nums">26</text>
<line x1="64" y1="116.0" x2="740" y2="116.0" stroke="#2c2c2a" stroke-width="1"/>
<text x="58" y="119.5" font-size="10" fill="#898781" text-anchor="end" style="font-variant-numeric:tabular-nums">72</text>
<line x1="64" y1="64.0" x2="740" y2="64.0" stroke="#2c2c2a" stroke-width="1"/>
<text x="58" y="67.5" font-size="10" fill="#898781" text-anchor="end" style="font-variant-numeric:tabular-nums">119</text>
<line x1="64" y1="107.4" x2="740" y2="107.4" stroke="#898781" stroke-width="1" stroke-dasharray="3 4"/>
<text x="742" y="110.4" font-size="9" fill="#898781">80</text>
<line x1="64" y1="174.6" x2="740" y2="174.6" stroke="#898781" stroke-width="1" stroke-dasharray="3 4"/>
<text x="742" y="177.6" font-size="9" fill="#898781">20</text>
<path d="M69.1,99.9 L79.4,96.7 L89.6,93.4 L99.8,92.2 L110.1,95.6 L120.3,100.9 L130.6,100.4 L140.8,100.3 L151.1,101.5 L161.3,104.4 L171.5,98.3 L181.8,95.0 L192.0,92.5 L202.3,90.2 L212.5,92.2 L222.8,97.0 L233.0,93.7 L243.2,92.1 L253.5,99.6 L263.7,108.0 L274.0,122.1 L284.2,132.8 L294.5,123.6 L304.7,117.4 L314.9,109.9 L325.2,108.0 L335.4,104.2 L345.7,100.3 L355.9,97.0 L366.2,95.5 L376.4,98.6 L386.6,119.5 L396.9,141.5 L407.1,135.7 L417.4,143.1 L427.6,144.4 L437.8,142.0 L448.1,131.0 L458.3,116.9 L468.6,106.4 L478.8,101.5 L489.1,101.1 L499.3,96.7 L509.5,107.6 L519.8,115.3 L530.0,108.8 L540.3,117.6 L550.5,127.2 L560.8,136.7 L571.0,149.3 L581.2,165.2 L591.5,160.7 L601.7,161.0 L612.0,166.8 L622.2,175.5 L632.5,175.1 L642.7,175.2 L652.9,182.2 L663.2,176.4 L673.4,164.8 L683.7,168.1 L693.9,172.9 L704.2,171.9 L714.4,171.2 L724.6,165.4 L734.9,169.8" fill="none" stroke="#3987e5" stroke-width="1.8"/>
<path d="M69.1,105.4 L79.4,102.5 L89.6,99.5 L99.8,97.1 L110.1,96.6 L120.3,98.0 L130.6,98.8 L140.8,99.3 L151.1,100.0 L161.3,101.5 L171.5,100.4 L181.8,98.6 L192.0,96.6 L202.3,94.5 L212.5,93.7 L222.8,94.8 L233.0,94.4 L243.2,93.7 L253.5,95.6 L263.7,99.8 L274.0,107.2 L284.2,115.8 L294.5,118.4 L304.7,118.0 L314.9,115.3 L325.2,112.9 L335.4,110.0 L345.7,106.7 L355.9,103.5 L366.2,100.8 L376.4,100.1 L386.6,106.6 L396.9,118.2 L407.1,124.0 L417.4,130.4 L427.6,135.1 L437.8,137.4 L448.1,135.2 L458.3,129.1 L468.6,121.6 L478.8,114.9 L489.1,110.3 L499.3,105.8 L509.5,106.4 L519.8,109.3 L530.0,109.2 L540.3,112.0 L550.5,117.1 L560.8,123.6 L571.0,132.2 L581.2,143.2 L591.5,149.0 L601.7,153.0 L612.0,157.6 L622.2,163.6 L632.5,167.4 L642.7,170.0 L652.9,174.1 L663.2,174.8 L673.4,171.5 L683.7,170.4 L693.9,171.2 L704.2,171.4 L714.4,171.3 L724.6,169.4 L734.9,169.5" fill="none" stroke="#008300" stroke-width="1.8"/>
<path d="M69.1,88.8 L79.4,85.2 L89.6,81.4 L99.8,82.5 L110.1,93.6 L120.3,106.8 L130.6,103.5 L140.8,102.3 L151.1,104.5 L161.3,110.2 L171.5,94.2 L181.8,87.8 L192.0,84.4 L202.3,81.8 L212.5,89.1 L222.8,101.3 L233.0,92.3 L243.2,88.9 L253.5,107.6 L263.7,124.4 L274.0,151.9 L284.2,167.0 L294.5,134.1 L304.7,116.0 L314.9,99.0 L325.2,98.3 L335.4,92.6 L345.7,87.4 L355.9,84.1 L366.2,84.7 L376.4,95.7 L386.6,145.4 L396.9,188.2 L407.1,158.9 L417.4,168.4 L427.6,163.1 L437.8,151.2 L448.1,122.6 L458.3,92.5 L468.6,76.1 L478.8,74.8 L489.1,82.7 L499.3,78.6 L509.5,110.0 L519.8,127.1 L530.0,108.1 L540.3,128.8 L550.5,147.6 L560.8,162.9 L571.0,183.6 L581.2,209.2 L591.5,184.1 L601.7,177.0 L612.0,185.2 L622.2,199.3 L632.5,190.5 L642.7,185.5 L652.9,198.4 L663.2,179.5 L673.4,151.5 L683.7,163.5 L693.9,176.2 L704.2,172.7 L714.4,170.9 L724.6,157.6 L734.9,170.4" fill="none" stroke="#d55181" stroke-width="1.8" stroke-dasharray="4 3"/>
<text x="69.1" y="238" font-size="10" fill="#898781" text-anchor="middle">04/17</text>
<text x="181.8" y="238" font-size="10" fill="#898781" text-anchor="middle">05/06</text>
<text x="294.5" y="238" font-size="10" fill="#898781" text-anchor="middle">05/21</text>
<text x="407.1" y="238" font-size="10" fill="#898781" text-anchor="middle">06/09</text>
<text x="519.8" y="238" font-size="10" fill="#898781" text-anchor="middle">06/24</text>
<text x="632.5" y="238" font-size="10" fill="#898781" text-anchor="middle">07/09</text>
</svg>