<svg xmlns="http://www.w3.org/2000/svg" width="760" height="560" viewBox="0 0 760 560" font-family='system-ui,-apple-system,"Segoe UI","Malgun Gothic","Apple SD Gothic Neo",sans-serif'>
<rect width="760" height="560" fill="#fcfcfb"/>
<text x="20" y="28" font-size="14.5" font-weight="700" fill="#0b0b0b">MACD (12,26,9)</text>
<text x="20" y="46" font-size="11" fill="#52514e">원. 막대 = 히스토그램(MACD - 시그널).</text>
<line x1="603" y1="24" x2="621" y2="24" stroke="#2a78d6" stroke-width="2"/>
<text x="626" y="28" font-size="10.5" fill="#52514e">MACD</text>
<rect x="732.3" y="305.2" width="5.1" height="2.8" fill="#d64545" opacity="0.4"/>
<rect x="722.1" y="306.2" width="5.1" height="1.8" fill="#d64545" opacity="0.4"/>
<rect x="711.8" y="307.6" width="5.1" height="1.0" fill="#d64545" opacity="0.4"/>
<rect x="701.6" y="304.8" width="5.1" height="3.2" fill="#d64545" opacity="0.4"/>
<rect x="691.3" y="299.9" width="5.1" height="8.1" fill="#d64545" opacity="0.4"/>
<rect x="681.1" y="293.4" width="5.1" height="14.7" fill="#d64545" opacity="0.4"/>
<rect x="670.9" y="293.3" width="5.1" height="14.8" fill="#d64545" opacity="0.4"/>
<rect x="660.6" y="292.5" width="5.1" height="15.5" fill="#d64545" opacity="0.4"/>
<rect x="650.4" y="295.4" width="5.1" height="12.7" fill="#d64545" opacity="0.4"/>
<rect x="640.1" y="300.1" width="5.1" height="7.9" fill="#d64545" opacity="0.4"/>
<rect x="629.9" y="297.8" width="5.1" height="10.2" fill="#d64545" opacity="0.4"/>
<rect x="619.7" y="296.5" width="5.1" height="11.6" fill="#d64545" opacity="0.4"/>
<rect x="609.4" y="288.8" width="5.1" height="19.2" fill="#d64545" opacity="0.4"/>
<rect x="599.2" y="278.7" width="5.1" height="29.3" fill="#d64545" opacity="0.4"/>
<rect x="588.9" y="275.9" width="5.1" height="32.2" fill="#d64545" opacity="0.4"/>
<rect x="578.7" y="277.6" width="5.1" height="30.4" fill="#d64545" opacity="0.4"/>
<rect x="568.4" y="282.9" width="5.1" height="25.2" fill="#d64545" opacity="0.4"/>
<rect x="558.2" y="287.0" width="5.1" height="21.0" fill="#d64545" opacity="0.4"/>
<rect x="548.0" y="293.9" width="5.1" height="14.1" fill="#d64545" opacity="0.4"/>
<rect x="537.7" y="292.7" width="5.1" height="15.3" fill="#d64545" opacity="0.4"/>
<rect x="527.5" y="286.7" width="5.1" height="21.3" fill="#d64545" opacity="0.4"/>
<rect x="517.2" y="279.7" width="5.1" height="28.3" fill="#d64545" opacity="0.4"/>
<rect x="507.0" y="277.6" width="5.1" height="30.4" fill="#d64545" opacity="0.4"/>
<rect x="496.7" y="274.2" width="5.1" height="33.8" fill="#d64545" opacity="0.4"/>
<rect x="486.5" y="268.6" width="5.1" height="39.5" fill="#d64545" opacity="0.4"/>
<rect x="476.3" y="269.0" width="5.1" height="39.0" fill="#d64545" opacity="0.4"/>
<rect x="466.0" y="267.7" width="5.1" height="40.3" fill="#d64545" opacity="0.4"/>
<rect x="455.8" y="266.7" width="5.1" height="41.3" fill="#d64545" opacity="0.4"/>
<rect x="445.5" y="266.3" width="5.1" height="41.7" fill="#d64545" opacity="0.4"/>
<rect x="435.3" y="273.0" width="5.1" height="35.0" fill="#d64545" opacity="0.4"/>
<rect x="425.0" y="281.1" width="5.1" height="26.9" fill="#d64545" opacity="0.4"/>
<rect x="414.8" y="276.3" width="5.1" height="31.7" fill="#d64545" opacity="0.4"/>
<rect x="404.6" y="284.5" width="5.1" height="23.5" fill="#d64545" opacity="0.4"/>
<rect x="394.3" y="295.7" width="5.1" height="12.3" fill="#d64545" opacity="0.4"/>
<rect x="384.1" y="307.4" width="5.1" height="1.0" fill="#d64545" opacity="0.4"/>
<rect x="373.8" y="308.0" width="5.1" height="7.4" fill="#2a78d6" opacity="0.4"/>
<rect x="363.6" y="308.0" width="5.1" height="9.9" fill="#2a78d6" opacity="0.4"/>
<rect x="353.3" y="308.0" width="5.1" height="10.3" fill="#2a78d6" opacity="0.4"/>
<rect x="343.1" y="308.0" width="5.1" height="7.9" fill="#2a78d6" opacity="0.4"/>
<rect x="332.9" y="308.0" width="5.1" height="8.1" fill="#2a78d6" opacity="0.4"/>
<rect x="322.6" y="308.0" width="5.1" height="21.7" fill="#2a78d6" opacity="0.4"/>
<rect x="312.4" y="308.0" width="5.1" height="30.8" fill="#2a78d6" opacity="0.4"/>
<rect x="302.1" y="308.0" width="5.1" height="39.9" fill="#2a78d6" opacity="0.4"/>
<rect x="291.9" y="308.0" width="5.1" height="63.1" fill="#2a78d6" opacity="0.4"/>
<rect x="281.7" y="308.0" width="5.1" height="55.9" fill="#2a78d6" opacity="0.4"/>
<rect x="271.4" y="308.0" width="5.1" height="45.5" fill="#2a78d6" opacity="0.4"/>
<rect x="261.2" y="308.0" width="5.1" height="37.8" fill="#2a78d6" opacity="0.4"/>
<rect x="250.9" y="308.0" width="5.1" height="45.9" fill="#2a78d6" opacity="0.4"/>
<rect x="240.7" y="308.0" width="5.1" height="48.7" fill="#2a78d6" opacity="0.4"/>
<rect x="230.4" y="308.0" width="5.1" height="63.0" fill="#2a78d6" opacity="0.4"/>
<rect x="220.2" y="308.0" width="5.1" height="71.5" fill="#2a78d6" opacity="0.4"/>
<rect x="210.0" y="308.0" width="5.1" height="79.2" fill="#2a78d6" opacity="0.4"/>
<rect x="199.7" y="308.0" width="5.1" height="77.7" fill="#2a78d6" opacity="0.4"/>
<rect x="189.5" y="308.0" width="5.1" height="76.2" fill="#2a78d6" opacity="0.4"/>
<rect x="179.2" y="308.0" width="5.1" height="90.3" fill="#2a78d6" opacity="0.4"/>
<rect x="169.0" y="308.0" width="5.1" height="89.9" fill="#2a78d6" opacity="0.4"/>
<rect x="158.7" y="308.0" width="5.1" height="76.2" fill="#2a78d6" opacity="0.4"/>
<rect x="148.5" y="308.0" width="5.1" height="80.7" fill="#2a78d6" opacity="0.4"/>
<rect x="138.3" y="308.0" width="5.1" height="83.3" fill="#2a78d6" opacity="0.4"/>
<rect x="128.0" y="308.0" width="5.1" height="71.8" fill="#2a78d6" opacity="0.4"/>
<rect x="117.8" y="308.0" width="5.1" height="61.3" fill="#2a78d6" opacity="0.4"/>
<rect x="107.5" y="308.0" width="5.1" height="55.2" fill="#2a78d6" opacity="0.4"/>
<rect x="97.3" y="308.0" width="5.1" height="51.1" fill="#2a78d6" opacity="0.4"/>
<rect x="87.0" y="308.0" width="5.1" height="20.7" fill="#2a78d6" opacity="0.4"/>
<rect x="76.8" y="308.0" width="5.1" height="8.5" fill="#2a78d6" opacity="0.4"/>
<rect x="66.6" y="307.8" width="5.1" height="1.0" fill="#d64545" opacity="0.4"/>
<line x1="677" y1="24" x2="695" y2="24" stroke="#008300" stroke-width="2"/>
<text x="700" y="28" font-size="10.5" fill="#52514e">시그널</text>
<line x1="64" y1="530.0" x2="740" y2="530.0" stroke="#e1e0d9" stroke-width="1"/>
<text x="58" y="533.5" font-size="10" fill="#898781" text-anchor="end" style="font-variant-numeric:tabular-nums">-24만</text>
<line x1="64" y1="436.8" x2="740" y2="436.8" stroke="#e1e0d9" stroke-width="1"/>
<text x="58" y="440.3" font-size="10" fill="#898781" text-anchor="end" style="font-variant-numeric:tabular-nums">-14만</text>
<line x1="64" y1="343.6" x2="740" y2="343.6" stroke="#e1e0d9" stroke-width="1"/>
<text x="58" y="347.1" font-size="10" fill="#898781" text-anchor="end" style="font-variant-numeric:tabular-nums">-4만</text>
<line x1="64" y1="250.4" x2="740" y2="250.4" stroke="#e1e0d9" stroke-width="1"/>
<text x="58" y="253.9" font-size="10" fill="#898781" text-anchor="end" style="font-variant-numeric:tabular-nums">+6만</text>
<line x1="64" y1="157.2" x2="740" y2="157.2" stroke="#e1e0d9" stroke-width="1"/>
<text x="58" y="160.7" font-size="10" fill="#898781" text-anchor="end" style="font-variant-numeric:tabular-nums">+16만</text>
<line x1="64" y1="64.0" x2="740" y2="64.0" stroke="#e1e0d9" stroke-width="1"/>
<text x="58" y="67.5" font-size="10" fill="#898781" text-anchor="end" style="font-variant-numeric:tabular-nums">+26만</text>
<line x1="64" y1="308.0" x2="740" y2="308.0" stroke="#898781" stroke-width="1" stroke-dasharray="3 4"/>
<text x="742" y="311.0" font-size="9" fill="#898781">0</text>
<path d="M69.1,96.1 L79.4,107.0 L89.6,124.4 L99.8,167.5 L110.1,185.5 L120.3,206.9 L130.6,235.3 L140.8,267.6 L151.1,285.3 L161.3,299.8 L171.5,335.9 L181.8,358.9 L192.0,363.9 L202.3,384.8 L212.5,406.1 L222.8,416.3 L233.0,423.6 L243.2,421.4 L253.5,430.1 L263.7,431.4 L274.0,450.5 L284.2,474.9 L294.5,497.9 L304.7,484.6 L314.9,483.3 L325.2,479.5 L335.4,467.9 L345.7,469.7 L355.9,474.7 L366.2,476.8 L376.4,476.2 L386.6,468.0 L396.9,453.2 L407.1,436.1 L417.4,420.0 L427.6,418.0 L437.8,401.2 L448.1,384.1 L458.3,374.1 L468.6,365.1 L478.8,356.6 L489.1,346.3 L499.3,343.5 L509.5,339.3 L519.8,334.3 L530.0,335.9 L540.3,338.1 L550.5,335.8 L560.8,323.6 L571.0,313.2 L581.2,300.3 L591.5,290.6 L601.7,286.1 L612.0,291.3 L622.2,296.1 L632.5,294.9 L642.7,295.2 L652.9,287.3 L663.2,280.6 L673.4,277.6 L683.7,274.1 L693.9,278.6 L704.2,282.7 L714.4,285.4 L724.6,283.5 L734.9,281.8" fill="none" stroke="#2a78d6" stroke-width="1.8"/>
<path d="M69.1,96.3 L79.4,98.5 L89.6,103.7 L99.8,116.4 L110.1,130.2 L120.3,145.6 L130.6,163.5 L140.8,184.3 L151.1,204.5 L161.3,223.6 L171.5,246.1 L181.8,268.6 L192.0,287.7 L202.3,307.1 L212.5,326.9 L222.8,344.8 L233.0,360.5 L243.2,372.7 L253.5,384.2 L263.7,393.6 L274.0,405.0 L284.2,419.0 L294.5,434.8 L304.7,444.7 L314.9,452.4 L325.2,457.8 L335.4,459.9 L345.7,461.8 L355.9,464.4 L366.2,466.9 L376.4,468.7 L386.6,468.6 L396.9,465.5 L407.1,459.6 L417.4,451.7 L427.6,445.0 L437.8,436.2 L448.1,425.8 L458.3,415.4 L468.6,405.4 L478.8,395.6 L489.1,385.7 L499.3,377.3 L509.5,369.7 L519.8,362.6 L530.0,357.3 L540.3,353.4 L550.5,349.9 L560.8,344.7 L571.0,338.4 L581.2,330.8 L591.5,322.7 L601.7,315.4 L612.0,310.6 L622.2,307.7 L632.5,305.1 L642.7,303.2 L652.9,300.0 L663.2,296.1 L673.4,292.4 L683.7,288.7 L693.9,286.7 L704.2,285.9 L714.4,285.8 L724.6,285.3 L734.9,284.6" fill="none" stroke="#008300" stroke-width="1.8"/>
<text x="69.1" y="548" font-size="10" fill="#898781" text-anchor="middle">06/29</text>
<text x="181.8" y="548" font-size="10" fill="#898781" text-anchor="middle">07/14</text>
<text x="294.5" y="548" font-size="10" fill="#898781" text-anchor="middle">07/30</text>
<text x="407.1" y="548" font-size="10" fill="#898781" text-anchor="middle">08/14</text>
<text x="519.8" y="548" font-size="10" fill="#898781" text-anchor="middle">09/01</text>
<text x="632.5" y="548" font-size="10" fill="#898781" text-anchor="middle">09/16</text>
</svg>