<svg xmlns="http://www.w3.org/2000/svg" width="760" height="250" viewBox="0 0 760 250" font-family='system-ui,-apple-system,"Segoe UI","Malgun Gothic","Apple SD Gothic Neo",sans-serif'>
<rect width="760" height="250" fill="#1a1a19"/>
<text x="20" y="28" font-size="14.5" font-weight="700" fill="#ffffff">MACD (12,26,9)</text>
<text x="20" y="46" font-size="11" fill="#c3c2b7">원. 막대 = 히스토그램(MACD - 시그널).</text>
<line x1="603" y1="24" x2="621" y2="24" stroke="#3987e5" stroke-width="2"/>
<text x="626" y="28" font-size="10.5" fill="#c3c2b7">MACD</text>
<rect x="732.3" y="166.2" width="5.1" height="18.4" fill="#3987e5" opacity="0.4"/>
<rect x="722.1" y="166.2" width="5.1" height="23.4" fill="#3987e5" opacity="0.4"/>
<rect x="711.8" y="166.2" width="5.1" height="26.6" fill="#3987e5" opacity="0.4"/>
<rect x="701.6" y="166.2" width="5.1" height="29.5" fill="#3987e5" opacity="0.4"/>
<rect x="691.3" y="166.2" width="5.1" height="28.9" fill="#3987e5" opacity="0.4"/>
<rect x="681.1" y="166.2" width="5.1" height="28.4" fill="#3987e5" opacity="0.4"/>
<rect x="670.9" y="166.2" width="5.1" height="33.6" fill="#3987e5" opacity="0.4"/>
<rect x="660.6" y="166.2" width="5.1" height="33.4" fill="#3987e5" opacity="0.4"/>
<rect x="650.4" y="166.2" width="5.1" height="28.3" fill="#3987e5" opacity="0.4"/>
<rect x="640.1" y="166.2" width="5.1" height="30.0" fill="#3987e5" opacity="0.4"/>
<rect x="629.9" y="166.2" width="5.1" height="31.0" fill="#3987e5" opacity="0.4"/>
<rect x="619.7" y="166.2" width="5.1" height="26.7" fill="#3987e5" opacity="0.4"/>
<rect x="609.4" y="166.2" width="5.1" height="22.8" fill="#3987e5" opacity="0.4"/>
<rect x="599.2" y="166.2" width="5.1" height="20.5" fill="#3987e5" opacity="0.4"/>
<rect x="588.9" y="166.2" width="5.1" height="19.0" fill="#3987e5" opacity="0.4"/>
<rect x="578.7" y="166.2" width="5.1" height="7.7" fill="#3987e5" opacity="0.4"/>
<rect x="568.4" y="166.2" width="5.1" height="3.1" fill="#3987e5" opacity="0.4"/>
<rect x="558.2" y="166.0" width="5.1" height="1.0" fill="#e66767" opacity="0.4"/>
<rect x="548.0" y="161.2" width="5.1" height="4.9" fill="#e66767" opacity="0.4"/>
<rect x="537.7" y="156.7" width="5.1" height="9.5" fill="#e66767" opacity="0.4"/>
<rect x="527.5" y="159.9" width="5.1" height="6.2" fill="#e66767" opacity="0.4"/>
<rect x="517.2" y="156.3" width="5.1" height="9.8" fill="#e66767" opacity="0.4"/>
<rect x="507.0" y="150.2" width="5.1" height="16.0" fill="#e66767" opacity="0.4"/>
<rect x="496.7" y="155.5" width="5.1" height="10.7" fill="#e66767" opacity="0.4"/>
<rect x="486.5" y="160.4" width="5.1" height="5.8" fill="#e66767" opacity="0.4"/>
<rect x="476.3" y="166.2" width="5.1" height="1.0" fill="#3987e5" opacity="0.4"/>
<rect x="466.0" y="166.2" width="5.1" height="6.0" fill="#3987e5" opacity="0.4"/>
<rect x="455.8" y="166.2" width="5.1" height="10.2" fill="#3987e5" opacity="0.4"/>
<rect x="445.5" y="166.2" width="5.1" height="13.7" fill="#3987e5" opacity="0.4"/>
<rect x="435.3" y="166.2" width="5.1" height="14.2" fill="#3987e5" opacity="0.4"/>
<rect x="425.0" y="166.2" width="5.1" height="13.2" fill="#3987e5" opacity="0.4"/>
<rect x="414.8" y="166.2" width="5.1" height="9.8" fill="#3987e5" opacity="0.4"/>
<rect x="404.6" y="166.2" width="5.1" height="10.4" fill="#3987e5" opacity="0.4"/>
<rect x="394.3" y="166.2" width="5.1" height="1.0" fill="#3987e5" opacity="0.4"/>
<rect x="384.1" y="158.9" width="5.1" height="7.2" fill="#e66767" opacity="0.4"/>
<rect x="373.8" y="155.5" width="5.1" height="10.6" fill="#e66767" opacity="0.4"/>
<rect x="363.6" y="154.3" width="5.1" height="11.8" fill="#e66767" opacity="0.4"/>
<rect x="353.3" y="154.7" width="5.1" height="11.5" fill="#e66767" opacity="0.4"/>
<rect x="343.1" y="156.2" width="5.1" height="10.0" fill="#e66767" opacity="0.4"/>
<rect x="332.9" y="159.0" width="5.1" height="7.2" fill="#e66767" opacity="0.4"/>
<rect x="322.6" y="163.4" width="5.1" height="2.8" fill="#e66767" opacity="0.4"/>
<rect x="312.4" y="165.1" width="5.1" height="1.1" fill="#e66767" opacity="0.4"/>
<rect x="302.1" y="164.9" width="5.1" height="1.3" fill="#e66767" opacity="0.4"/>
<rect x="291.9" y="165.6" width="5.1" height="1.0" fill="#e66767" opacity="0.4"/>
<rect x="281.7" y="161.0" width="5.1" height="5.2" fill="#e66767" opacity="0.4"/>
<rect x="271.4" y="155.1" width="5.1" height="11.1" fill="#e66767" opacity="0.4"/>
<rect x="261.2" y="150.8" width="5.1" height="15.4" fill="#e66767" opacity="0.4"/>
<rect x="250.9" y="145.4" width="5.1" height="20.7" fill="#e66767" opacity="0.4"/>
<rect x="240.7" y="144.7" width="5.1" height="21.4" fill="#e66767" opacity="0.4"/>
<rect x="230.4" y="146.4" width="5.1" height="19.8" fill="#e66767" opacity="0.4"/>
<rect x="220.2" y="146.5" width="5.1" height="19.7" fill="#e66767" opacity="0.4"/>
<rect x="210.0" y="150.5" width="5.1" height="15.7" fill="#e66767" opacity="0.4"/>
<rect x="199.7" y="151.9" width="5.1" height="14.3" fill="#e66767" opacity="0.4"/>
<rect x="189.5" y="154.8" width="5.1" height="11.4" fill="#e66767" opacity="0.4"/>
<rect x="179.2" y="159.0" width="5.1" height="7.2" fill="#e66767" opacity="0.4"/>
<rect x="169.0" y="161.2" width="5.1" height="5.0" fill="#e66767" opacity="0.4"/>
<rect x="158.7" y="160.0" width="5.1" height="6.2" fill="#e66767" opacity="0.4"/>
<rect x="148.5" y="159.1" width="5.1" height="7.1" fill="#e66767" opacity="0.4"/>
<rect x="138.3" y="158.9" width="5.1" height="7.3" fill="#e66767" opacity="0.4"/>
<rect x="128.0" y="159.2" width="5.1" height="7.0" fill="#e66767" opacity="0.4"/>
<rect x="117.8" y="158.2" width="5.1" height="8.0" fill="#e66767" opacity="0.4"/>
<rect x="107.5" y="157.5" width="5.1" height="8.7" fill="#e66767" opacity="0.4"/>
<rect x="97.3" y="157.3" width="5.1" height="8.8" fill="#e66767" opacity="0.4"/>
<rect x="87.0" y="158.1" width="5.1" height="8.1" fill="#e66767" opacity="0.4"/>
<rect x="76.8" y="158.0" width="5.1" height="8.2" fill="#e66767" opacity="0.4"/>
<rect x="66.6" y="157.4" width="5.1" height="8.8" fill="#e66767" opacity="0.4"/>
<line x1="677" y1="24" x2="695" y2="24" stroke="#008300" stroke-width="2"/>
<text x="700" y="28" font-size="10.5" fill="#c3c2b7">시그널</text>
<line x1="64" y1="220.0" x2="740" y2="220.0" stroke="#2c2c2a" stroke-width="1"/>
<text x="58" y="223.5" font-size="10" fill="#898781" text-anchor="end" style="font-variant-numeric:tabular-nums">-16만</text>
<line x1="64" y1="168.0" x2="740" y2="168.0" stroke="#2c2c2a" stroke-width="1"/>
<text x="58" y="171.5" font-size="10" fill="#898781" text-anchor="end" style="font-variant-numeric:tabular-nums">-1만</text>
<line x1="64" y1="116.0" x2="740" y2="116.0" stroke="#2c2c2a" stroke-width="1"/>
<text x="58" y="119.5" font-size="10" fill="#898781" text-anchor="end" style="font-variant-numeric:tabular-nums">+15만</text>
<line x1="64" y1="64.0" x2="740" y2="64.0" stroke="#2c2c2a" stroke-width="1"/>
<text x="58" y="67.5" font-size="10" fill="#898781" text-anchor="end" style="font-variant-numeric:tabular-nums">+30만</text>
<line x1="64" y1="166.2" x2="740" y2="166.2" stroke="#898781" stroke-width="1" stroke-dasharray="3 4"/>
<text x="742" y="169.2" font-size="9" fill="#898781">0</text>
<path d="M69.1,149.9 L79.4,148.5 L89.6,146.5 L99.8,143.6 L110.1,141.5 L120.3,140.2 L130.6,139.5 L140.8,137.4 L151.1,135.8 L161.3,135.1 L171.5,135.1 L181.8,131.1 L192.0,124.1 L202.3,117.6 L212.5,112.3 L222.8,103.4 L233.0,98.3 L243.2,91.3 L253.5,86.8 L263.7,88.3 L274.0,89.8 L284.2,94.5 L294.5,98.9 L304.7,97.9 L314.9,97.8 L325.2,95.4 L335.4,89.2 L345.7,83.9 L355.9,79.5 L366.2,76.2 L376.4,74.8 L386.6,76.4 L396.9,84.9 L407.1,96.8 L417.4,98.6 L427.6,105.4 L437.8,110.0 L448.1,112.8 L458.3,111.9 L468.6,109.2 L478.8,104.0 L489.1,96.1 L499.3,88.5 L509.5,79.2 L519.8,82.9 L530.0,85.0 L540.3,79.4 L550.5,82.7 L560.8,87.4 L571.0,91.5 L581.2,97.9 L591.5,114.0 L601.7,120.7 L612.0,128.6 L622.2,139.2 L632.5,151.2 L642.7,157.8 L652.9,163.2 L663.2,176.6 L673.4,185.2 L683.7,187.0 L693.9,194.8 L704.2,202.7 L714.4,206.6 L724.6,209.2 L734.9,208.8" fill="none" stroke="#3987e5" stroke-width="1.8"/>
<path d="M69.1,158.7 L79.4,156.6 L89.6,154.6 L99.8,152.4 L110.1,150.2 L120.3,148.2 L130.6,146.5 L140.8,144.7 L151.1,142.9 L161.3,141.3 L171.5,140.1 L181.8,138.3 L192.0,135.5 L202.3,131.9 L212.5,128.0 L222.8,123.0 L233.0,118.1 L243.2,112.7 L253.5,107.6 L263.7,103.7 L274.0,100.9 L284.2,99.6 L294.5,99.5 L304.7,99.2 L314.9,98.9 L325.2,98.2 L335.4,96.4 L345.7,93.9 L355.9,91.0 L366.2,88.1 L376.4,85.4 L386.6,83.6 L396.9,83.8 L407.1,86.4 L417.4,88.9 L427.6,92.2 L437.8,95.7 L448.1,99.2 L458.3,101.7 L468.6,103.2 L478.8,103.4 L489.1,101.9 L499.3,99.2 L509.5,95.2 L519.8,92.8 L530.0,91.2 L540.3,88.8 L550.5,87.6 L560.8,87.6 L571.0,88.3 L581.2,90.3 L591.5,95.0 L601.7,100.1 L612.0,105.8 L622.2,112.5 L632.5,120.3 L642.7,127.8 L652.9,134.8 L663.2,143.2 L673.4,151.6 L683.7,158.7 L693.9,165.9 L704.2,173.3 L714.4,179.9 L724.6,185.8 L734.9,190.4" fill="none" stroke="#008300" stroke-width="1.8"/>
<text x="69.1" y="238" font-size="10" fill="#898781" text-anchor="middle">04/16</text>
<text x="181.8" y="238" font-size="10" fill="#898781" text-anchor="middle">05/04</text>
<text x="294.5" y="238" font-size="10" fill="#898781" text-anchor="middle">05/20</text>
<text x="407.1" y="238" font-size="10" fill="#898781" text-anchor="middle">06/08</text>
<text x="519.8" y="238" font-size="10" fill="#898781" text-anchor="middle">06/23</text>
<text x="632.5" y="238" font-size="10" fill="#898781" text-anchor="middle">07/08</text>
</svg>