<svg xmlns="http://www.w3.org/2000/svg" width="760" height="560" viewBox="0 0 760 560" font-family='system-ui,-apple-system,"Segoe UI","Malgun Gothic","Apple SD Gothic Neo",sans-serif'>
<rect width="760" height="560" fill="#fcfcfb"/>
<text x="20" y="28" font-size="14.5" font-weight="700" fill="#0b0b0b">MACD (12,26,9)</text>
<text x="20" y="46" font-size="11" fill="#52514e">원. 막대 = 히스토그램(MACD - 시그널).</text>
<line x1="603" y1="24" x2="621" y2="24" stroke="#2a78d6" stroke-width="2"/>
<text x="626" y="28" font-size="10.5" fill="#52514e">MACD</text>
<rect x="732.3" y="310.1" width="5.1" height="12.8" fill="#d64545" opacity="0.4"/>
<rect x="722.1" y="308.8" width="5.1" height="14.1" fill="#d64545" opacity="0.4"/>
<rect x="711.8" y="303.2" width="5.1" height="19.7" fill="#d64545" opacity="0.4"/>
<rect x="701.6" y="296.8" width="5.1" height="26.1" fill="#d64545" opacity="0.4"/>
<rect x="691.3" y="294.9" width="5.1" height="28.0" fill="#d64545" opacity="0.4"/>
<rect x="681.1" y="291.7" width="5.1" height="31.2" fill="#d64545" opacity="0.4"/>
<rect x="670.9" y="286.5" width="5.1" height="36.4" fill="#d64545" opacity="0.4"/>
<rect x="660.6" y="286.9" width="5.1" height="36.0" fill="#d64545" opacity="0.4"/>
<rect x="650.4" y="285.7" width="5.1" height="37.2" fill="#d64545" opacity="0.4"/>
<rect x="640.1" y="284.8" width="5.1" height="38.1" fill="#d64545" opacity="0.4"/>
<rect x="629.9" y="284.4" width="5.1" height="38.5" fill="#d64545" opacity="0.4"/>
<rect x="619.7" y="290.6" width="5.1" height="32.3" fill="#d64545" opacity="0.4"/>
<rect x="609.4" y="298.0" width="5.1" height="24.8" fill="#d64545" opacity="0.4"/>
<rect x="599.2" y="293.7" width="5.1" height="29.2" fill="#d64545" opacity="0.4"/>
<rect x="588.9" y="301.2" width="5.1" height="21.7" fill="#d64545" opacity="0.4"/>
<rect x="578.7" y="311.5" width="5.1" height="11.4" fill="#d64545" opacity="0.4"/>
<rect x="568.4" y="322.3" width="5.1" height="1.0" fill="#d64545" opacity="0.4"/>
<rect x="558.2" y="322.9" width="5.1" height="6.8" fill="#2a78d6" opacity="0.4"/>
<rect x="548.0" y="322.9" width="5.1" height="9.1" fill="#2a78d6" opacity="0.4"/>
<rect x="537.7" y="322.9" width="5.1" height="9.5" fill="#2a78d6" opacity="0.4"/>
<rect x="527.5" y="322.9" width="5.1" height="7.3" fill="#2a78d6" opacity="0.4"/>
<rect x="517.2" y="322.9" width="5.1" height="7.4" fill="#2a78d6" opacity="0.4"/>
<rect x="507.0" y="322.9" width="5.1" height="19.9" fill="#2a78d6" opacity="0.4"/>
<rect x="496.7" y="322.9" width="5.1" height="28.4" fill="#2a78d6" opacity="0.4"/>
<rect x="486.5" y="322.9" width="5.1" height="36.7" fill="#2a78d6" opacity="0.4"/>
<rect x="476.3" y="322.9" width="5.1" height="58.1" fill="#2a78d6" opacity="0.4"/>
<rect x="466.0" y="322.9" width="5.1" height="51.5" fill="#2a78d6" opacity="0.4"/>
<rect x="455.8" y="322.9" width="5.1" height="41.9" fill="#2a78d6" opacity="0.4"/>
<rect x="445.5" y="322.9" width="5.1" height="34.8" fill="#2a78d6" opacity="0.4"/>
<rect x="435.3" y="322.9" width="5.1" height="42.3" fill="#2a78d6" opacity="0.4"/>
<rect x="425.0" y="322.9" width="5.1" height="44.8" fill="#2a78d6" opacity="0.4"/>
<rect x="414.8" y="322.9" width="5.1" height="58.0" fill="#2a78d6" opacity="0.4"/>
<rect x="404.6" y="322.9" width="5.1" height="65.9" fill="#2a78d6" opacity="0.4"/>
<rect x="394.3" y="322.9" width="5.1" height="72.9" fill="#2a78d6" opacity="0.4"/>
<rect x="384.1" y="322.9" width="5.1" height="71.6" fill="#2a78d6" opacity="0.4"/>
<rect x="373.8" y="322.9" width="5.1" height="70.2" fill="#2a78d6" opacity="0.4"/>
<rect x="363.6" y="322.9" width="5.1" height="83.2" fill="#2a78d6" opacity="0.4"/>
<rect x="353.3" y="322.9" width="5.1" height="82.8" fill="#2a78d6" opacity="0.4"/>
<rect x="343.1" y="322.9" width="5.1" height="70.2" fill="#2a78d6" opacity="0.4"/>
<rect x="332.9" y="322.9" width="5.1" height="74.4" fill="#2a78d6" opacity="0.4"/>
<rect x="322.6" y="322.9" width="5.1" height="76.7" fill="#2a78d6" opacity="0.4"/>
<rect x="312.4" y="322.9" width="5.1" height="66.1" fill="#2a78d6" opacity="0.4"/>
<rect x="302.1" y="322.9" width="5.1" height="56.5" fill="#2a78d6" opacity="0.4"/>
<rect x="291.9" y="322.9" width="5.1" height="50.8" fill="#2a78d6" opacity="0.4"/>
<rect x="281.7" y="322.9" width="5.1" height="47.0" fill="#2a78d6" opacity="0.4"/>
<rect x="271.4" y="322.9" width="5.1" height="19.0" fill="#2a78d6" opacity="0.4"/>
<rect x="261.2" y="322.9" width="5.1" height="7.7" fill="#2a78d6" opacity="0.4"/>
<rect x="250.9" y="322.6" width="5.1" height="1.0" fill="#d64545" opacity="0.4"/>
<rect x="240.7" y="310.7" width="5.1" height="12.2" fill="#d64545" opacity="0.4"/>
<rect x="230.4" y="299.5" width="5.1" height="23.4" fill="#d64545" opacity="0.4"/>
<rect x="220.2" y="307.5" width="5.1" height="15.4" fill="#d64545" opacity="0.4"/>
<rect x="210.0" y="298.6" width="5.1" height="24.3" fill="#d64545" opacity="0.4"/>
<rect x="199.7" y="283.4" width="5.1" height="39.5" fill="#d64545" opacity="0.4"/>
<rect x="189.5" y="296.4" width="5.1" height="26.4" fill="#d64545" opacity="0.4"/>
<rect x="179.2" y="308.5" width="5.1" height="14.4" fill="#d64545" opacity="0.4"/>
<rect x="169.0" y="322.9" width="5.1" height="1.6" fill="#2a78d6" opacity="0.4"/>
<rect x="158.7" y="322.9" width="5.1" height="15.0" fill="#2a78d6" opacity="0.4"/>
<rect x="148.5" y="322.9" width="5.1" height="25.3" fill="#2a78d6" opacity="0.4"/>
<rect x="138.3" y="322.9" width="5.1" height="34.0" fill="#2a78d6" opacity="0.4"/>
<rect x="128.0" y="322.9" width="5.1" height="35.3" fill="#2a78d6" opacity="0.4"/>
<rect x="117.8" y="322.9" width="5.1" height="32.9" fill="#2a78d6" opacity="0.4"/>
<rect x="107.5" y="322.9" width="5.1" height="24.3" fill="#2a78d6" opacity="0.4"/>
<rect x="97.3" y="322.9" width="5.1" height="25.8" fill="#2a78d6" opacity="0.4"/>
<rect x="87.0" y="322.9" width="5.1" height="2.7" fill="#2a78d6" opacity="0.4"/>
<rect x="76.8" y="305.1" width="5.1" height="17.7" fill="#d64545" opacity="0.4"/>
<rect x="66.6" y="296.7" width="5.1" height="26.2" fill="#d64545" opacity="0.4"/>
<line x1="677" y1="24" x2="695" y2="24" stroke="#008300" stroke-width="2"/>
<text x="700" y="28" font-size="10.5" fill="#52514e">시그널</text>
<line x1="64" y1="530.0" x2="740" y2="530.0" stroke="#e1e0d9" stroke-width="1"/>
<text x="58" y="533.5" font-size="10" fill="#898781" text-anchor="end" style="font-variant-numeric:tabular-nums">-24만</text>
<line x1="64" y1="436.8" x2="740" y2="436.8" stroke="#e1e0d9" stroke-width="1"/>
<text x="58" y="440.3" font-size="10" fill="#898781" text-anchor="end" style="font-variant-numeric:tabular-nums">-13만</text>
<line x1="64" y1="343.6" x2="740" y2="343.6" stroke="#e1e0d9" stroke-width="1"/>
<text x="58" y="347.1" font-size="10" fill="#898781" text-anchor="end" style="font-variant-numeric:tabular-nums">-2만</text>
<line x1="64" y1="250.4" x2="740" y2="250.4" stroke="#e1e0d9" stroke-width="1"/>
<text x="58" y="253.9" font-size="10" fill="#898781" text-anchor="end" style="font-variant-numeric:tabular-nums">+9만</text>
<line x1="64" y1="157.2" x2="740" y2="157.2" stroke="#e1e0d9" stroke-width="1"/>
<text x="58" y="160.7" font-size="10" fill="#898781" text-anchor="end" style="font-variant-numeric:tabular-nums">+20만</text>
<line x1="64" y1="64.0" x2="740" y2="64.0" stroke="#e1e0d9" stroke-width="1"/>
<text x="58" y="67.5" font-size="10" fill="#898781" text-anchor="end" style="font-variant-numeric:tabular-nums">+30만</text>
<line x1="64" y1="322.9" x2="740" y2="322.9" stroke="#898781" stroke-width="1" stroke-dasharray="3 4"/>
<text x="742" y="325.9" font-size="9" fill="#898781">0</text>
<path d="M69.1,96.1 L79.4,100.1 L89.6,121.2 L99.8,150.8 L110.1,155.4 L120.3,172.2 L130.6,183.4 L140.8,190.6 L151.1,188.3 L161.3,181.7 L171.5,168.7 L181.8,149.1 L192.0,130.4 L202.3,107.5 L212.5,116.6 L222.8,121.7 L233.0,107.9 L243.2,116.0 L253.5,127.8 L263.7,137.8 L274.0,153.8 L284.2,193.6 L294.5,210.1 L304.7,229.8 L314.9,256.0 L325.2,285.8 L335.4,302.0 L345.7,315.4 L355.9,348.7 L366.2,369.9 L376.4,374.5 L386.6,393.7 L396.9,413.3 L407.1,422.7 L417.4,429.4 L427.6,427.4 L437.8,435.4 L448.1,436.6 L458.3,454.3 L468.6,476.7 L478.8,497.9 L489.1,485.6 L499.3,484.4 L509.5,480.9 L519.8,470.2 L530.0,471.9 L540.3,476.5 L550.5,478.4 L560.8,477.9 L571.0,470.3 L581.2,456.6 L591.5,440.9 L601.7,426.1 L612.0,424.3 L622.2,408.7 L632.5,393.0 L642.7,383.8 L652.9,375.4 L663.2,367.6 L673.4,358.1 L683.7,355.5 L693.9,351.7 L704.2,347.1 L714.4,348.6 L724.6,350.6 L734.9,348.7" fill="none" stroke="#2a78d6" stroke-width="1.8"/>
<path d="M69.1,122.3 L79.4,117.9 L89.6,118.5 L99.8,125.0 L110.1,131.1 L120.3,139.3 L130.6,148.1 L140.8,156.6 L151.1,162.9 L161.3,166.7 L171.5,167.1 L181.8,163.5 L192.0,156.9 L202.3,147.0 L212.5,140.9 L222.8,137.1 L233.0,131.2 L243.2,128.2 L253.5,128.1 L263.7,130.1 L274.0,134.8 L284.2,146.6 L294.5,159.3 L304.7,173.4 L314.9,189.9 L325.2,209.1 L335.4,227.7 L345.7,245.2 L355.9,265.9 L366.2,286.7 L376.4,304.2 L386.6,322.1 L396.9,340.4 L407.1,356.9 L417.4,371.4 L427.6,382.6 L437.8,393.1 L448.1,401.8 L458.3,412.3 L468.6,425.2 L478.8,439.7 L489.1,448.9 L499.3,456.0 L509.5,461.0 L519.8,462.8 L530.0,464.7 L540.3,467.0 L550.5,469.3 L560.8,471.0 L571.0,470.9 L581.2,468.0 L591.5,462.6 L601.7,455.3 L612.0,449.1 L622.2,441.0 L632.5,431.4 L642.7,421.9 L652.9,412.6 L663.2,403.6 L673.4,394.5 L683.7,386.7 L693.9,379.7 L704.2,373.2 L714.4,368.3 L724.6,364.7 L734.9,361.5" fill="none" stroke="#008300" stroke-width="1.8"/>
<text x="69.1" y="548" font-size="10" fill="#898781" text-anchor="middle">06/02</text>
<text x="181.8" y="548" font-size="10" fill="#898781" text-anchor="middle">06/18</text>
<text x="294.5" y="548" font-size="10" fill="#898781" text-anchor="middle">07/03</text>
<text x="407.1" y="548" font-size="10" fill="#898781" text-anchor="middle">07/21</text>
<text x="519.8" y="548" font-size="10" fill="#898781" text-anchor="middle">08/05</text>
<text x="632.5" y="548" font-size="10" fill="#898781" text-anchor="middle">08/21</text>
</svg>