<svg xmlns="http://www.w3.org/2000/svg" width="760" height="250" viewBox="0 0 760 250" font-family='system-ui,-apple-system,"Segoe UI","Malgun Gothic","Apple SD Gothic Neo",sans-serif'>
<rect width="760" height="250" fill="#1a1a19"/>
<text x="20" y="28" font-size="14.5" font-weight="700" fill="#ffffff">MACD (12,26,9)</text>
<text x="20" y="46" font-size="11" fill="#c3c2b7">원. 막대 = 히스토그램(MACD - 시그널).</text>
<line x1="603" y1="24" x2="621" y2="24" stroke="#3987e5" stroke-width="2"/>
<text x="626" y="28" font-size="10.5" fill="#c3c2b7">MACD</text>
<rect x="732.3" y="164.6" width="5.1" height="16.8" fill="#3987e5" opacity="0.4"/>
<rect x="722.1" y="164.6" width="5.1" height="17.8" fill="#3987e5" opacity="0.4"/>
<rect x="711.8" y="164.6" width="5.1" height="23.0" fill="#3987e5" opacity="0.4"/>
<rect x="701.6" y="164.6" width="5.1" height="26.1" fill="#3987e5" opacity="0.4"/>
<rect x="691.3" y="164.6" width="5.1" height="28.9" fill="#3987e5" opacity="0.4"/>
<rect x="681.1" y="164.6" width="5.1" height="28.4" fill="#3987e5" opacity="0.4"/>
<rect x="670.9" y="164.6" width="5.1" height="27.8" fill="#3987e5" opacity="0.4"/>
<rect x="660.6" y="164.6" width="5.1" height="33.0" fill="#3987e5" opacity="0.4"/>
<rect x="650.4" y="164.6" width="5.1" height="32.8" fill="#3987e5" opacity="0.4"/>
<rect x="640.1" y="164.6" width="5.1" height="27.8" fill="#3987e5" opacity="0.4"/>
<rect x="629.9" y="164.6" width="5.1" height="29.5" fill="#3987e5" opacity="0.4"/>
<rect x="619.7" y="164.6" width="5.1" height="30.4" fill="#3987e5" opacity="0.4"/>
<rect x="609.4" y="164.6" width="5.1" height="26.2" fill="#3987e5" opacity="0.4"/>
<rect x="599.2" y="164.6" width="5.1" height="22.4" fill="#3987e5" opacity="0.4"/>
<rect x="588.9" y="164.6" width="5.1" height="20.1" fill="#3987e5" opacity="0.4"/>
<rect x="578.7" y="164.6" width="5.1" height="18.6" fill="#3987e5" opacity="0.4"/>
<rect x="568.4" y="164.6" width="5.1" height="7.5" fill="#3987e5" opacity="0.4"/>
<rect x="558.2" y="164.6" width="5.1" height="3.1" fill="#3987e5" opacity="0.4"/>
<rect x="548.0" y="164.4" width="5.1" height="1.0" fill="#e66767" opacity="0.4"/>
<rect x="537.7" y="159.7" width="5.1" height="4.8" fill="#e66767" opacity="0.4"/>
<rect x="527.5" y="155.3" width="5.1" height="9.3" fill="#e66767" opacity="0.4"/>
<rect x="517.2" y="158.4" width="5.1" height="6.1" fill="#e66767" opacity="0.4"/>
<rect x="507.0" y="154.9" width="5.1" height="9.7" fill="#e66767" opacity="0.4"/>
<rect x="496.7" y="148.9" width="5.1" height="15.7" fill="#e66767" opacity="0.4"/>
<rect x="486.5" y="154.1" width="5.1" height="10.5" fill="#e66767" opacity="0.4"/>
<rect x="476.3" y="158.8" width="5.1" height="5.7" fill="#e66767" opacity="0.4"/>
<rect x="466.0" y="164.6" width="5.1" height="1.0" fill="#3987e5" opacity="0.4"/>
<rect x="455.8" y="164.6" width="5.1" height="5.9" fill="#3987e5" opacity="0.4"/>
<rect x="445.5" y="164.6" width="5.1" height="10.0" fill="#3987e5" opacity="0.4"/>
<rect x="435.3" y="164.6" width="5.1" height="13.4" fill="#3987e5" opacity="0.4"/>
<rect x="425.0" y="164.6" width="5.1" height="14.0" fill="#3987e5" opacity="0.4"/>
<rect x="414.8" y="164.6" width="5.1" height="13.0" fill="#3987e5" opacity="0.4"/>
<rect x="404.6" y="164.6" width="5.1" height="9.6" fill="#3987e5" opacity="0.4"/>
<rect x="394.3" y="164.6" width="5.1" height="10.2" fill="#3987e5" opacity="0.4"/>
<rect x="384.1" y="164.6" width="5.1" height="1.0" fill="#3987e5" opacity="0.4"/>
<rect x="373.8" y="157.5" width="5.1" height="7.1" fill="#e66767" opacity="0.4"/>
<rect x="363.6" y="154.1" width="5.1" height="10.4" fill="#e66767" opacity="0.4"/>
<rect x="353.3" y="152.9" width="5.1" height="11.6" fill="#e66767" opacity="0.4"/>
<rect x="343.1" y="153.3" width="5.1" height="11.3" fill="#e66767" opacity="0.4"/>
<rect x="332.9" y="154.8" width="5.1" height="9.8" fill="#e66767" opacity="0.4"/>
<rect x="322.6" y="157.5" width="5.1" height="7.1" fill="#e66767" opacity="0.4"/>
<rect x="312.4" y="161.9" width="5.1" height="2.7" fill="#e66767" opacity="0.4"/>
<rect x="302.1" y="163.5" width="5.1" height="1.1" fill="#e66767" opacity="0.4"/>
<rect x="291.9" y="163.3" width="5.1" height="1.3" fill="#e66767" opacity="0.4"/>
<rect x="281.7" y="164.0" width="5.1" height="1.0" fill="#e66767" opacity="0.4"/>
<rect x="271.4" y="159.5" width="5.1" height="5.1" fill="#e66767" opacity="0.4"/>
<rect x="261.2" y="153.7" width="5.1" height="10.9" fill="#e66767" opacity="0.4"/>
<rect x="250.9" y="149.5" width="5.1" height="15.1" fill="#e66767" opacity="0.4"/>
<rect x="240.7" y="144.2" width="5.1" height="20.4" fill="#e66767" opacity="0.4"/>
<rect x="230.4" y="143.5" width="5.1" height="21.0" fill="#e66767" opacity="0.4"/>
<rect x="220.2" y="145.2" width="5.1" height="19.4" fill="#e66767" opacity="0.4"/>
<rect x="210.0" y="145.3" width="5.1" height="19.3" fill="#e66767" opacity="0.4"/>
<rect x="199.7" y="149.2" width="5.1" height="15.4" fill="#e66767" opacity="0.4"/>
<rect x="189.5" y="150.6" width="5.1" height="14.0" fill="#e66767" opacity="0.4"/>
<rect x="179.2" y="153.4" width="5.1" height="11.1" fill="#e66767" opacity="0.4"/>
<rect x="169.0" y="157.5" width="5.1" height="7.1" fill="#e66767" opacity="0.4"/>
<rect x="158.7" y="159.7" width="5.1" height="4.8" fill="#e66767" opacity="0.4"/>
<rect x="148.5" y="158.5" width="5.1" height="6.1" fill="#e66767" opacity="0.4"/>
<rect x="138.3" y="157.7" width="5.1" height="6.9" fill="#e66767" opacity="0.4"/>
<rect x="128.0" y="157.5" width="5.1" height="7.1" fill="#e66767" opacity="0.4"/>
<rect x="117.8" y="157.8" width="5.1" height="6.8" fill="#e66767" opacity="0.4"/>
<rect x="107.5" y="156.7" width="5.1" height="7.8" fill="#e66767" opacity="0.4"/>
<rect x="97.3" y="156.1" width="5.1" height="8.5" fill="#e66767" opacity="0.4"/>
<rect x="87.0" y="155.9" width="5.1" height="8.6" fill="#e66767" opacity="0.4"/>
<rect x="76.8" y="156.6" width="5.1" height="7.9" fill="#e66767" opacity="0.4"/>
<rect x="66.6" y="156.6" width="5.1" height="8.0" fill="#e66767" opacity="0.4"/>
<line x1="677" y1="24" x2="695" y2="24" stroke="#008300" stroke-width="2"/>
<text x="700" y="28" font-size="10.5" fill="#c3c2b7">시그널</text>
<line x1="64" y1="220.0" x2="740" y2="220.0" stroke="#2c2c2a" stroke-width="1"/>
<text x="58" y="223.5" font-size="10" fill="#898781" text-anchor="end" style="font-variant-numeric:tabular-nums">-16만</text>
<line x1="64" y1="168.0" x2="740" y2="168.0" stroke="#2c2c2a" stroke-width="1"/>
<text x="58" y="171.5" font-size="10" fill="#898781" text-anchor="end" style="font-variant-numeric:tabular-nums">-1만</text>
<line x1="64" y1="116.0" x2="740" y2="116.0" stroke="#2c2c2a" stroke-width="1"/>
<text x="58" y="119.5" font-size="10" fill="#898781" text-anchor="end" style="font-variant-numeric:tabular-nums">+14만</text>
<line x1="64" y1="64.0" x2="740" y2="64.0" stroke="#2c2c2a" stroke-width="1"/>
<text x="58" y="67.5" font-size="10" fill="#898781" text-anchor="end" style="font-variant-numeric:tabular-nums">+30만</text>
<line x1="64" y1="164.6" x2="740" y2="164.6" stroke="#898781" stroke-width="1" stroke-dasharray="3 4"/>
<text x="742" y="167.6" font-size="9" fill="#898781">0</text>
<path d="M69.1,147.0 L79.4,145.1 L89.6,142.2 L99.8,140.3 L110.1,138.9 L120.3,138.3 L130.6,136.2 L140.8,134.7 L151.1,134.0 L161.3,134.0 L171.5,130.0 L181.8,123.2 L192.0,116.8 L202.3,111.6 L212.5,102.8 L222.8,97.9 L233.0,91.0 L243.2,86.6 L253.5,88.1 L263.7,89.5 L274.0,94.1 L284.2,98.5 L294.5,97.4 L304.7,97.4 L314.9,95.1 L325.2,88.9 L335.4,83.7 L345.7,79.4 L355.9,76.2 L366.2,74.8 L376.4,76.3 L386.6,84.7 L396.9,96.4 L407.1,98.2 L417.4,104.9 L427.6,109.3 L437.8,112.2 L448.1,111.2 L458.3,108.6 L468.6,103.5 L478.8,95.7 L489.1,88.3 L499.3,79.2 L509.5,82.8 L519.8,84.8 L530.0,79.3 L540.3,82.5 L550.5,87.2 L560.8,91.2 L571.0,97.5 L581.2,113.3 L591.5,119.8 L601.7,127.7 L612.0,138.1 L622.2,149.9 L632.5,156.3 L642.7,161.6 L652.9,174.8 L663.2,183.2 L673.4,185.0 L683.7,192.7 L693.9,200.5 L704.2,204.2 L714.4,206.8 L724.6,206.0 L734.9,209.2" fill="none" stroke="#3987e5" stroke-width="1.8"/>
<path d="M69.1,155.0 L79.4,153.0 L89.6,150.9 L99.8,148.7 L110.1,146.8 L120.3,145.1 L130.6,143.3 L140.8,141.6 L151.1,140.1 L161.3,138.8 L171.5,137.1 L181.8,134.3 L192.0,130.8 L202.3,127.0 L212.5,122.1 L222.8,117.3 L233.0,112.0 L243.2,106.9 L253.5,103.2 L263.7,100.4 L274.0,99.2 L284.2,99.0 L294.5,98.7 L304.7,98.4 L314.9,97.8 L325.2,96.0 L335.4,93.5 L345.7,90.7 L355.9,87.8 L366.2,85.2 L376.4,83.4 L386.6,83.7 L396.9,86.2 L407.1,88.6 L417.4,91.9 L427.6,95.4 L437.8,98.7 L448.1,101.2 L458.3,102.7 L468.6,102.9 L478.8,101.4 L489.1,98.8 L499.3,94.9 L509.5,92.5 L519.8,90.9 L530.0,88.6 L540.3,87.4 L550.5,87.4 L560.8,88.1 L571.0,90.0 L581.2,94.7 L591.5,99.7 L601.7,105.3 L612.0,111.8 L622.2,119.5 L632.5,126.8 L642.7,133.8 L652.9,142.0 L663.2,150.2 L673.4,157.2 L683.7,164.3 L693.9,171.5 L704.2,178.1 L714.4,183.8 L724.6,188.3 L734.9,192.5" fill="none" stroke="#008300" stroke-width="1.8"/>
<text x="69.1" y="238" font-size="10" fill="#898781" text-anchor="middle">04/17</text>
<text x="181.8" y="238" font-size="10" fill="#898781" text-anchor="middle">05/06</text>
<text x="294.5" y="238" font-size="10" fill="#898781" text-anchor="middle">05/21</text>
<text x="407.1" y="238" font-size="10" fill="#898781" text-anchor="middle">06/09</text>
<text x="519.8" y="238" font-size="10" fill="#898781" text-anchor="middle">06/24</text>
<text x="632.5" y="238" font-size="10" fill="#898781" text-anchor="middle">07/09</text>
</svg>