<svg xmlns="http://www.w3.org/2000/svg" width="760" height="250" viewBox="0 0 760 250" font-family='system-ui,-apple-system,"Segoe UI","Malgun Gothic","Apple SD Gothic Neo",sans-serif'>
<rect width="760" height="250" fill="#1a1a19"/>
<text x="20" y="28" font-size="14.5" font-weight="700" fill="#ffffff">MACD (12,26,9)</text>
<text x="20" y="46" font-size="11" fill="#c3c2b7">원. 막대 = 히스토그램(MACD - 시그널).</text>
<line x1="603" y1="24" x2="621" y2="24" stroke="#3987e5" stroke-width="2"/>
<text x="626" y="28" font-size="10.5" fill="#c3c2b7">MACD</text>
<rect x="732.3" y="177.2" width="5.1" height="32.4" fill="#3987e5" opacity="0.4"/>
<rect x="722.1" y="177.2" width="5.1" height="31.8" fill="#3987e5" opacity="0.4"/>
<rect x="711.8" y="177.2" width="5.1" height="37.6" fill="#3987e5" opacity="0.4"/>
<rect x="701.6" y="177.2" width="5.1" height="37.4" fill="#3987e5" opacity="0.4"/>
<rect x="691.3" y="177.2" width="5.1" height="31.7" fill="#3987e5" opacity="0.4"/>
<rect x="681.1" y="177.2" width="5.1" height="33.6" fill="#3987e5" opacity="0.4"/>
<rect x="670.9" y="177.2" width="5.1" height="34.7" fill="#3987e5" opacity="0.4"/>
<rect x="660.6" y="177.2" width="5.1" height="29.9" fill="#3987e5" opacity="0.4"/>
<rect x="650.4" y="177.2" width="5.1" height="25.5" fill="#3987e5" opacity="0.4"/>
<rect x="640.1" y="177.2" width="5.1" height="23.0" fill="#3987e5" opacity="0.4"/>
<rect x="629.9" y="177.2" width="5.1" height="21.3" fill="#3987e5" opacity="0.4"/>
<rect x="619.7" y="177.2" width="5.1" height="8.6" fill="#3987e5" opacity="0.4"/>
<rect x="609.4" y="177.2" width="5.1" height="3.5" fill="#3987e5" opacity="0.4"/>
<rect x="599.2" y="177.0" width="5.1" height="1.0" fill="#e66767" opacity="0.4"/>
<rect x="588.9" y="171.6" width="5.1" height="5.5" fill="#e66767" opacity="0.4"/>
<rect x="578.7" y="166.6" width="5.1" height="10.6" fill="#e66767" opacity="0.4"/>
<rect x="568.4" y="170.2" width="5.1" height="7.0" fill="#e66767" opacity="0.4"/>
<rect x="558.2" y="166.1" width="5.1" height="11.0" fill="#e66767" opacity="0.4"/>
<rect x="548.0" y="159.3" width="5.1" height="17.9" fill="#e66767" opacity="0.4"/>
<rect x="537.7" y="165.2" width="5.1" height="12.0" fill="#e66767" opacity="0.4"/>
<rect x="527.5" y="170.6" width="5.1" height="6.5" fill="#e66767" opacity="0.4"/>
<rect x="517.2" y="177.2" width="5.1" height="1.0" fill="#3987e5" opacity="0.4"/>
<rect x="507.0" y="177.2" width="5.1" height="6.7" fill="#3987e5" opacity="0.4"/>
<rect x="496.7" y="177.2" width="5.1" height="11.4" fill="#3987e5" opacity="0.4"/>
<rect x="486.5" y="177.2" width="5.1" height="15.3" fill="#3987e5" opacity="0.4"/>
<rect x="476.3" y="177.2" width="5.1" height="15.9" fill="#3987e5" opacity="0.4"/>
<rect x="466.0" y="177.2" width="5.1" height="14.8" fill="#3987e5" opacity="0.4"/>
<rect x="455.8" y="177.2" width="5.1" height="10.9" fill="#3987e5" opacity="0.4"/>
<rect x="445.5" y="177.2" width="5.1" height="11.6" fill="#3987e5" opacity="0.4"/>
<rect x="435.3" y="177.2" width="5.1" height="1.1" fill="#3987e5" opacity="0.4"/>
<rect x="425.0" y="169.1" width="5.1" height="8.1" fill="#e66767" opacity="0.4"/>
<rect x="414.8" y="165.2" width="5.1" height="11.9" fill="#e66767" opacity="0.4"/>
<rect x="404.6" y="163.9" width="5.1" height="13.3" fill="#e66767" opacity="0.4"/>
<rect x="394.3" y="164.3" width="5.1" height="12.9" fill="#e66767" opacity="0.4"/>
<rect x="384.1" y="166.0" width="5.1" height="11.2" fill="#e66767" opacity="0.4"/>
<rect x="373.8" y="169.1" width="5.1" height="8.1" fill="#e66767" opacity="0.4"/>
<rect x="363.6" y="174.1" width="5.1" height="3.1" fill="#e66767" opacity="0.4"/>
<rect x="353.3" y="175.9" width="5.1" height="1.3" fill="#e66767" opacity="0.4"/>
<rect x="343.1" y="175.7" width="5.1" height="1.5" fill="#e66767" opacity="0.4"/>
<rect x="332.9" y="176.5" width="5.1" height="1.0" fill="#e66767" opacity="0.4"/>
<rect x="322.6" y="171.4" width="5.1" height="5.8" fill="#e66767" opacity="0.4"/>
<rect x="312.4" y="164.7" width="5.1" height="12.4" fill="#e66767" opacity="0.4"/>
<rect x="302.1" y="159.9" width="5.1" height="17.2" fill="#e66767" opacity="0.4"/>
<rect x="291.9" y="153.9" width="5.1" height="23.2" fill="#e66767" opacity="0.4"/>
<rect x="281.7" y="153.2" width="5.1" height="24.0" fill="#e66767" opacity="0.4"/>
<rect x="271.4" y="155.0" width="5.1" height="22.1" fill="#e66767" opacity="0.4"/>
<rect x="261.2" y="155.1" width="5.1" height="22.0" fill="#e66767" opacity="0.4"/>
<rect x="250.9" y="159.6" width="5.1" height="17.6" fill="#e66767" opacity="0.4"/>
<rect x="240.7" y="161.2" width="5.1" height="15.9" fill="#e66767" opacity="0.4"/>
<rect x="230.4" y="164.4" width="5.1" height="12.7" fill="#e66767" opacity="0.4"/>
<rect x="220.2" y="169.1" width="5.1" height="8.1" fill="#e66767" opacity="0.4"/>
<rect x="210.0" y="171.6" width="5.1" height="5.6" fill="#e66767" opacity="0.4"/>
<rect x="199.7" y="170.2" width="5.1" height="6.9" fill="#e66767" opacity="0.4"/>
<rect x="189.5" y="169.3" width="5.1" height="7.9" fill="#e66767" opacity="0.4"/>
<rect x="179.2" y="169.0" width="5.1" height="8.1" fill="#e66767" opacity="0.4"/>
<rect x="169.0" y="169.4" width="5.1" height="7.8" fill="#e66767" opacity="0.4"/>
<rect x="158.7" y="168.2" width="5.1" height="9.0" fill="#e66767" opacity="0.4"/>
<rect x="148.5" y="167.5" width="5.1" height="9.7" fill="#e66767" opacity="0.4"/>
<rect x="138.3" y="167.3" width="5.1" height="9.9" fill="#e66767" opacity="0.4"/>
<rect x="128.0" y="168.1" width="5.1" height="9.1" fill="#e66767" opacity="0.4"/>
<rect x="117.8" y="168.0" width="5.1" height="9.1" fill="#e66767" opacity="0.4"/>
<rect x="107.5" y="167.4" width="5.1" height="9.8" fill="#e66767" opacity="0.4"/>
<rect x="97.3" y="168.4" width="5.1" height="8.8" fill="#e66767" opacity="0.4"/>
<rect x="87.0" y="170.0" width="5.1" height="7.2" fill="#e66767" opacity="0.4"/>
<rect x="76.8" y="172.0" width="5.1" height="5.2" fill="#e66767" opacity="0.4"/>
<rect x="66.6" y="173.1" width="5.1" height="4.0" fill="#e66767" opacity="0.4"/>
<line x1="677" y1="24" x2="695" y2="24" stroke="#008300" stroke-width="2"/>
<text x="700" y="28" font-size="10.5" fill="#c3c2b7">시그널</text>
<line x1="64" y1="220.0" x2="740" y2="220.0" stroke="#2c2c2a" stroke-width="1"/>
<text x="58" y="223.5" font-size="10" fill="#898781" text-anchor="end" style="font-variant-numeric:tabular-nums">-11만</text>
<line x1="64" y1="168.0" x2="740" y2="168.0" stroke="#2c2c2a" stroke-width="1"/>
<text x="58" y="171.5" font-size="10" fill="#898781" text-anchor="end" style="font-variant-numeric:tabular-nums">+2만</text>
<line x1="64" y1="116.0" x2="740" y2="116.0" stroke="#2c2c2a" stroke-width="1"/>
<text x="58" y="119.5" font-size="10" fill="#898781" text-anchor="end" style="font-variant-numeric:tabular-nums">+16만</text>
<line x1="64" y1="64.0" x2="740" y2="64.0" stroke="#2c2c2a" stroke-width="1"/>
<text x="58" y="67.5" font-size="10" fill="#898781" text-anchor="end" style="font-variant-numeric:tabular-nums">+29만</text>
<line x1="64" y1="177.2" x2="740" y2="177.2" stroke="#898781" stroke-width="1" stroke-dasharray="3 4"/>
<text x="742" y="180.2" font-size="9" fill="#898781">0</text>
<path d="M69.1,172.4 L79.4,169.9 L89.6,166.2 L99.8,162.3 L110.1,158.9 L120.3,157.3 L130.6,155.0 L140.8,151.8 L151.1,149.5 L161.3,148.0 L171.5,147.3 L181.8,144.9 L192.0,143.1 L202.3,142.3 L212.5,142.3 L222.8,137.8 L233.0,130.0 L243.2,122.8 L253.5,116.7 L263.7,106.8 L274.0,101.1 L284.2,93.3 L294.5,88.2 L304.7,89.9 L314.9,91.6 L325.2,96.8 L335.4,101.8 L345.7,100.6 L355.9,100.5 L366.2,97.9 L376.4,90.9 L386.6,85.0 L396.9,80.1 L407.1,76.4 L417.4,74.8 L427.6,76.5 L437.8,86.1 L448.1,99.5 L458.3,101.5 L468.6,109.1 L478.8,114.2 L489.1,117.4 L499.3,116.4 L509.5,113.4 L519.8,107.5 L530.0,98.6 L540.3,90.2 L550.5,79.8 L560.8,83.9 L571.0,86.2 L581.2,79.9 L591.5,83.6 L601.7,89.0 L612.0,93.5 L622.2,100.7 L632.5,118.7 L642.7,126.2 L652.9,135.1 L663.2,146.9 L673.4,160.4 L683.7,167.8 L693.9,173.8 L704.2,188.9 L714.4,198.4 L724.6,200.5 L734.9,209.2" fill="none" stroke="#3987e5" stroke-width="1.8"/>
<path d="M69.1,176.4 L79.4,175.1 L89.6,173.3 L99.8,171.1 L110.1,168.7 L120.3,166.4 L130.6,164.1 L140.8,161.6 L151.1,159.2 L161.3,157.0 L171.5,155.0 L181.8,153.0 L192.0,151.0 L202.3,149.3 L212.5,147.9 L222.8,145.9 L233.0,142.7 L243.2,138.7 L253.5,134.3 L263.7,128.8 L274.0,123.3 L284.2,117.3 L294.5,111.5 L304.7,107.2 L314.9,104.1 L325.2,102.6 L335.4,102.5 L345.7,102.1 L355.9,101.8 L366.2,101.0 L376.4,99.0 L386.6,96.2 L396.9,93.0 L407.1,89.7 L417.4,86.7 L427.6,84.6 L437.8,84.9 L448.1,87.8 L458.3,90.6 L468.6,94.3 L478.8,98.3 L489.1,102.1 L499.3,104.9 L509.5,106.6 L519.8,106.8 L530.0,105.2 L540.3,102.2 L550.5,97.7 L560.8,94.9 L571.0,93.2 L581.2,90.5 L591.5,89.2 L601.7,89.1 L612.0,90.0 L622.2,92.1 L632.5,97.4 L642.7,103.2 L652.9,109.6 L663.2,117.0 L673.4,125.7 L683.7,134.1 L693.9,142.1 L704.2,151.4 L714.4,160.8 L724.6,168.8 L734.9,176.9" fill="none" stroke="#008300" stroke-width="1.8"/>
<text x="69.1" y="238" font-size="10" fill="#898781" text-anchor="middle">04/10</text>
<text x="181.8" y="238" font-size="10" fill="#898781" text-anchor="middle">04/27</text>
<text x="294.5" y="238" font-size="10" fill="#898781" text-anchor="middle">05/14</text>
<text x="407.1" y="238" font-size="10" fill="#898781" text-anchor="middle">06/01</text>
<text x="519.8" y="238" font-size="10" fill="#898781" text-anchor="middle">06/17</text>
<text x="632.5" y="238" font-size="10" fill="#898781" text-anchor="middle">07/02</text>
</svg>