<svg xmlns="http://www.w3.org/2000/svg" width="760" height="250" viewBox="0 0 760 250" font-family='system-ui,-apple-system,"Segoe UI","Malgun Gothic","Apple SD Gothic Neo",sans-serif'>
<rect width="760" height="250" fill="#1a1a19"/>
<text x="20" y="28" font-size="14.5" font-weight="700" fill="#ffffff">MACD (12,26,9)</text>
<text x="20" y="46" font-size="11" fill="#c3c2b7">원. 막대 = 히스토그램(MACD - 시그널).</text>
<line x1="603" y1="24" x2="621" y2="24" stroke="#3987e5" stroke-width="2"/>
<text x="626" y="28" font-size="10.5" fill="#c3c2b7">MACD</text>
<rect x="732.3" y="166.2" width="5.1" height="23.4" fill="#3987e5" opacity="0.4"/>
<rect x="722.1" y="166.2" width="5.1" height="26.6" fill="#3987e5" opacity="0.4"/>
<rect x="711.8" y="166.2" width="5.1" height="29.5" fill="#3987e5" opacity="0.4"/>
<rect x="701.6" y="166.2" width="5.1" height="28.9" fill="#3987e5" opacity="0.4"/>
<rect x="691.3" y="166.2" width="5.1" height="28.4" fill="#3987e5" opacity="0.4"/>
<rect x="681.1" y="166.2" width="5.1" height="33.6" fill="#3987e5" opacity="0.4"/>
<rect x="670.9" y="166.2" width="5.1" height="33.4" fill="#3987e5" opacity="0.4"/>
<rect x="660.6" y="166.2" width="5.1" height="28.3" fill="#3987e5" opacity="0.4"/>
<rect x="650.4" y="166.2" width="5.1" height="30.0" fill="#3987e5" opacity="0.4"/>
<rect x="640.1" y="166.2" width="5.1" height="31.0" fill="#3987e5" opacity="0.4"/>
<rect x="629.9" y="166.2" width="5.1" height="26.7" fill="#3987e5" opacity="0.4"/>
<rect x="619.7" y="166.2" width="5.1" height="22.8" fill="#3987e5" opacity="0.4"/>
<rect x="609.4" y="166.2" width="5.1" height="20.5" fill="#3987e5" opacity="0.4"/>
<rect x="599.2" y="166.2" width="5.1" height="19.0" fill="#3987e5" opacity="0.4"/>
<rect x="588.9" y="166.2" width="5.1" height="7.7" fill="#3987e5" opacity="0.4"/>
<rect x="578.7" y="166.2" width="5.1" height="3.1" fill="#3987e5" opacity="0.4"/>
<rect x="568.4" y="166.0" width="5.1" height="1.0" fill="#e66767" opacity="0.4"/>
<rect x="558.2" y="161.2" width="5.1" height="4.9" fill="#e66767" opacity="0.4"/>
<rect x="548.0" y="156.7" width="5.1" height="9.5" fill="#e66767" opacity="0.4"/>
<rect x="537.7" y="159.9" width="5.1" height="6.2" fill="#e66767" opacity="0.4"/>
<rect x="527.5" y="156.3" width="5.1" height="9.8" fill="#e66767" opacity="0.4"/>
<rect x="517.2" y="150.2" width="5.1" height="16.0" fill="#e66767" opacity="0.4"/>
<rect x="507.0" y="155.5" width="5.1" height="10.7" fill="#e66767" opacity="0.4"/>
<rect x="496.7" y="160.4" width="5.1" height="5.8" fill="#e66767" opacity="0.4"/>
<rect x="486.5" y="166.2" width="5.1" height="1.0" fill="#3987e5" opacity="0.4"/>
<rect x="476.3" y="166.2" width="5.1" height="6.0" fill="#3987e5" opacity="0.4"/>
<rect x="466.0" y="166.2" width="5.1" height="10.2" fill="#3987e5" opacity="0.4"/>
<rect x="455.8" y="166.2" width="5.1" height="13.7" fill="#3987e5" opacity="0.4"/>
<rect x="445.5" y="166.2" width="5.1" height="14.2" fill="#3987e5" opacity="0.4"/>
<rect x="435.3" y="166.2" width="5.1" height="13.2" fill="#3987e5" opacity="0.4"/>
<rect x="425.0" y="166.2" width="5.1" height="9.8" fill="#3987e5" opacity="0.4"/>
<rect x="414.8" y="166.2" width="5.1" height="10.4" fill="#3987e5" opacity="0.4"/>
<rect x="404.6" y="166.2" width="5.1" height="1.0" fill="#3987e5" opacity="0.4"/>
<rect x="394.3" y="158.9" width="5.1" height="7.2" fill="#e66767" opacity="0.4"/>
<rect x="384.1" y="155.5" width="5.1" height="10.6" fill="#e66767" opacity="0.4"/>
<rect x="373.8" y="154.3" width="5.1" height="11.8" fill="#e66767" opacity="0.4"/>
<rect x="363.6" y="154.7" width="5.1" height="11.5" fill="#e66767" opacity="0.4"/>
<rect x="353.3" y="156.2" width="5.1" height="10.0" fill="#e66767" opacity="0.4"/>
<rect x="343.1" y="159.0" width="5.1" height="7.2" fill="#e66767" opacity="0.4"/>
<rect x="332.9" y="163.4" width="5.1" height="2.8" fill="#e66767" opacity="0.4"/>
<rect x="322.6" y="165.1" width="5.1" height="1.1" fill="#e66767" opacity="0.4"/>
<rect x="312.4" y="164.9" width="5.1" height="1.3" fill="#e66767" opacity="0.4"/>
<rect x="302.1" y="165.6" width="5.1" height="1.0" fill="#e66767" opacity="0.4"/>
<rect x="291.9" y="161.0" width="5.1" height="5.2" fill="#e66767" opacity="0.4"/>
<rect x="281.7" y="155.1" width="5.1" height="11.1" fill="#e66767" opacity="0.4"/>
<rect x="271.4" y="150.8" width="5.1" height="15.4" fill="#e66767" opacity="0.4"/>
<rect x="261.2" y="145.4" width="5.1" height="20.7" fill="#e66767" opacity="0.4"/>
<rect x="250.9" y="144.7" width="5.1" height="21.4" fill="#e66767" opacity="0.4"/>
<rect x="240.7" y="146.4" width="5.1" height="19.8" fill="#e66767" opacity="0.4"/>
<rect x="230.4" y="146.5" width="5.1" height="19.7" fill="#e66767" opacity="0.4"/>
<rect x="220.2" y="150.5" width="5.1" height="15.7" fill="#e66767" opacity="0.4"/>
<rect x="210.0" y="151.9" width="5.1" height="14.3" fill="#e66767" opacity="0.4"/>
<rect x="199.7" y="154.8" width="5.1" height="11.4" fill="#e66767" opacity="0.4"/>
<rect x="189.5" y="159.0" width="5.1" height="7.2" fill="#e66767" opacity="0.4"/>
<rect x="179.2" y="161.2" width="5.1" height="5.0" fill="#e66767" opacity="0.4"/>
<rect x="169.0" y="160.0" width="5.1" height="6.2" fill="#e66767" opacity="0.4"/>
<rect x="158.7" y="159.1" width="5.1" height="7.1" fill="#e66767" opacity="0.4"/>
<rect x="148.5" y="158.9" width="5.1" height="7.3" fill="#e66767" opacity="0.4"/>
<rect x="138.3" y="159.2" width="5.1" height="7.0" fill="#e66767" opacity="0.4"/>
<rect x="128.0" y="158.2" width="5.1" height="8.0" fill="#e66767" opacity="0.4"/>
<rect x="117.8" y="157.5" width="5.1" height="8.7" fill="#e66767" opacity="0.4"/>
<rect x="107.5" y="157.3" width="5.1" height="8.8" fill="#e66767" opacity="0.4"/>
<rect x="97.3" y="158.1" width="5.1" height="8.1" fill="#e66767" opacity="0.4"/>
<rect x="87.0" y="158.0" width="5.1" height="8.2" fill="#e66767" opacity="0.4"/>
<rect x="76.8" y="157.4" width="5.1" height="8.8" fill="#e66767" opacity="0.4"/>
<rect x="66.6" y="158.3" width="5.1" height="7.9" fill="#e66767" opacity="0.4"/>
<line x1="677" y1="24" x2="695" y2="24" stroke="#008300" stroke-width="2"/>
<text x="700" y="28" font-size="10.5" fill="#c3c2b7">시그널</text>
<line x1="64" y1="220.0" x2="740" y2="220.0" stroke="#2c2c2a" stroke-width="1"/>
<text x="58" y="223.5" font-size="10" fill="#898781" text-anchor="end" style="font-variant-numeric:tabular-nums">-16만</text>
<line x1="64" y1="168.0" x2="740" y2="168.0" stroke="#2c2c2a" stroke-width="1"/>
<text x="58" y="171.5" font-size="10" fill="#898781" text-anchor="end" style="font-variant-numeric:tabular-nums">-1만</text>
<line x1="64" y1="116.0" x2="740" y2="116.0" stroke="#2c2c2a" stroke-width="1"/>
<text x="58" y="119.5" font-size="10" fill="#898781" text-anchor="end" style="font-variant-numeric:tabular-nums">+15만</text>
<line x1="64" y1="64.0" x2="740" y2="64.0" stroke="#2c2c2a" stroke-width="1"/>
<text x="58" y="67.5" font-size="10" fill="#898781" text-anchor="end" style="font-variant-numeric:tabular-nums">+30만</text>
<line x1="64" y1="166.2" x2="740" y2="166.2" stroke="#898781" stroke-width="1" stroke-dasharray="3 4"/>
<text x="742" y="169.2" font-size="9" fill="#898781">0</text>
<path d="M69.1,153.0 L79.4,149.9 L89.6,148.5 L99.8,146.5 L110.1,143.6 L120.3,141.5 L130.6,140.2 L140.8,139.5 L151.1,137.4 L161.3,135.8 L171.5,135.1 L181.8,135.1 L192.0,131.1 L202.3,124.1 L212.5,117.6 L222.8,112.3 L233.0,103.4 L243.2,98.3 L253.5,91.3 L263.7,86.8 L274.0,88.3 L284.2,89.8 L294.5,94.5 L304.7,98.9 L314.9,97.9 L325.2,97.8 L335.4,95.4 L345.7,89.2 L355.9,83.9 L366.2,79.5 L376.4,76.2 L386.6,74.8 L396.9,76.4 L407.1,84.9 L417.4,96.8 L427.6,98.6 L437.8,105.4 L448.1,110.0 L458.3,112.8 L468.6,111.9 L478.8,109.2 L489.1,104.0 L499.3,96.1 L509.5,88.5 L519.8,79.2 L530.0,82.9 L540.3,85.0 L550.5,79.4 L560.8,82.7 L571.0,87.4 L581.2,91.5 L591.5,97.9 L601.7,114.0 L612.0,120.7 L622.2,128.6 L632.5,139.2 L642.7,151.2 L652.9,157.8 L663.2,163.2 L673.4,176.6 L683.7,185.2 L693.9,187.0 L704.2,194.8 L714.4,202.7 L724.6,206.6 L734.9,209.2" fill="none" stroke="#3987e5" stroke-width="1.8"/>
<path d="M69.1,160.9 L79.4,158.7 L89.6,156.6 L99.8,154.6 L110.1,152.4 L120.3,150.2 L130.6,148.2 L140.8,146.5 L151.1,144.7 L161.3,142.9 L171.5,141.3 L181.8,140.1 L192.0,138.3 L202.3,135.5 L212.5,131.9 L222.8,128.0 L233.0,123.0 L243.2,118.1 L253.5,112.7 L263.7,107.6 L274.0,103.7 L284.2,100.9 L294.5,99.6 L304.7,99.5 L314.9,99.2 L325.2,98.9 L335.4,98.2 L345.7,96.4 L355.9,93.9 L366.2,91.0 L376.4,88.1 L386.6,85.4 L396.9,83.6 L407.1,83.8 L417.4,86.4 L427.6,88.9 L437.8,92.2 L448.1,95.7 L458.3,99.2 L468.6,101.7 L478.8,103.2 L489.1,103.4 L499.3,101.9 L509.5,99.2 L519.8,95.2 L530.0,92.8 L540.3,91.2 L550.5,88.8 L560.8,87.6 L571.0,87.6 L581.2,88.3 L591.5,90.3 L601.7,95.0 L612.0,100.1 L622.2,105.8 L632.5,112.5 L642.7,120.3 L652.9,127.8 L663.2,134.8 L673.4,143.2 L683.7,151.6 L693.9,158.7 L704.2,165.9 L714.4,173.3 L724.6,179.9 L734.9,185.8" fill="none" stroke="#008300" stroke-width="1.8"/>
<text x="69.1" y="238" font-size="10" fill="#898781" text-anchor="middle">04/15</text>
<text x="181.8" y="238" font-size="10" fill="#898781" text-anchor="middle">04/30</text>
<text x="294.5" y="238" font-size="10" fill="#898781" text-anchor="middle">05/19</text>
<text x="407.1" y="238" font-size="10" fill="#898781" text-anchor="middle">06/05</text>
<text x="519.8" y="238" font-size="10" fill="#898781" text-anchor="middle">06/22</text>
<text x="632.5" y="238" font-size="10" fill="#898781" text-anchor="middle">07/07</text>
</svg>