<svg xmlns="http://www.w3.org/2000/svg" width="760" height="400" viewBox="0 0 760 400" font-family='system-ui,-apple-system,"Segoe UI","Malgun Gothic","Apple SD Gothic Neo",sans-serif'>
<rect width="760" height="400" fill="#1a1a19" stroke="rgba(11,11,11,0.10)"/>
<text x="24" y="34" font-size="17" font-weight="700" fill="#ffffff">SK하이닉스 주가 흐름 (7/10 ~ 8/28)</text>
<text x="24" y="54" font-size="12" fill="#c3c2b7">종가 기준, 원. 확정 종가 166.5만(-3.76%). 저가=종가로 최저점 마감. 매수 복귀선 173.5만에 -4.03% 미달 — 중립 유지. 7/17·8/15~17·8/22~23(주말) 휴장.</text>
<line x1="88" y1="331.4" x2="724" y2="331.4" stroke="#2c2c2a" stroke-width="1"/>
<text x="80" y="335.4" font-size="11" fill="#898781" text-anchor="end" style="font-variant-numeric:tabular-nums">130만</text>
<line x1="88" y1="305.2" x2="724" y2="305.2" stroke="#2c2c2a" stroke-width="1"/>
<text x="80" y="309.2" font-size="11" fill="#898781" text-anchor="end" style="font-variant-numeric:tabular-nums">140만</text>
<line x1="88" y1="279.0" x2="724" y2="279.0" stroke="#2c2c2a" stroke-width="1"/>
<text x="80" y="283.0" font-size="11" fill="#898781" text-anchor="end" style="font-variant-numeric:tabular-nums">150만</text>
<line x1="88" y1="252.9" x2="724" y2="252.9" stroke="#2c2c2a" stroke-width="1"/>
<text x="80" y="256.9" font-size="11" fill="#898781" text-anchor="end" style="font-variant-numeric:tabular-nums">160만</text>
<line x1="88" y1="226.7" x2="724" y2="226.7" stroke="#2c2c2a" stroke-width="1"/>
<text x="80" y="230.7" font-size="11" fill="#898781" text-anchor="end" style="font-variant-numeric:tabular-nums">170만</text>
<line x1="88" y1="200.5" x2="724" y2="200.5" stroke="#2c2c2a" stroke-width="1"/>
<text x="80" y="204.5" font-size="11" fill="#898781" text-anchor="end" style="font-variant-numeric:tabular-nums">180만</text>
<line x1="88" y1="174.4" x2="724" y2="174.4" stroke="#2c2c2a" stroke-width="1"/>
<text x="80" y="178.4" font-size="11" fill="#898781" text-anchor="end" style="font-variant-numeric:tabular-nums">190만</text>
<line x1="88" y1="148.2" x2="724" y2="148.2" stroke="#2c2c2a" stroke-width="1"/>
<text x="80" y="152.2" font-size="11" fill="#898781" text-anchor="end" style="font-variant-numeric:tabular-nums">200만</text>
<line x1="88" y1="122.0" x2="724" y2="122.0" stroke="#2c2c2a" stroke-width="1"/>
<text x="80" y="126.0" font-size="11" fill="#898781" text-anchor="end" style="font-variant-numeric:tabular-nums">210만</text>
<line x1="88" y1="95.9" x2="724" y2="95.9" stroke="#2c2c2a" stroke-width="1"/>
<text x="80" y="99.9" font-size="11" fill="#898781" text-anchor="end" style="font-variant-numeric:tabular-nums">220만</text>
<line x1="88" y1="336" x2="724" y2="336" stroke="#383835" stroke-width="1"/>
<path d="M88.0,101.1 L107.3,188.8 L126.5,171.0 L145.8,126.8 L165.1,189.6 L184.4,210.0 L203.6,191.1 L222.9,192.7 L242.2,169.4 L261.5,211.3 L280.7,196.4 L300.0,266.0 L319.3,305.0 L338.5,325.6 L357.8,222.0 L377.1,261.5 L396.4,258.9 L415.6,235.1 L434.9,280.4 L454.2,299.5 L473.5,300.0 L492.7,298.7 L512.0,278.0 L531.3,254.7 L550.5,241.1 L569.8,236.7 L589.1,279.0 L608.4,229.1 L627.6,218.9 L646.9,234.3 L666.2,232.5 L685.5,229.9 L704.7,218.9 L724.0,235.9" fill="none" stroke="#3987e5" stroke-width="2"/>
<circle cx="88.0" cy="101.1" r="4.5" fill="#1a1a19" stroke="#3987e5" stroke-width="2"/>
<text x="88.0" y="356" font-size="11" fill="#898781" text-anchor="middle">7/10</text>
<text x="88.0" y="89.1" font-size="11.5" font-weight="600" fill="#c3c2b7" text-anchor="middle" style="font-variant-numeric:tabular-nums">218만</text>
<circle cx="107.3" cy="188.8" r="4.5" fill="#3987e5" stroke="#3987e5" stroke-width="2"/>
<text x="107.3" y="356" font-size="11" fill="#898781" text-anchor="middle">7/13</text>
<circle cx="126.5" cy="171.0" r="4.5" fill="#3987e5" stroke="#3987e5" stroke-width="2"/>
<text x="126.5" y="356" font-size="11" fill="#898781" text-anchor="middle">7/14</text>
<circle cx="145.8" cy="126.8" r="4.5" fill="#3987e5" stroke="#3987e5" stroke-width="2"/>
<text x="145.8" y="356" font-size="11" fill="#898781" text-anchor="middle">7/15</text>
<circle cx="165.1" cy="189.6" r="4.5" fill="#3987e5" stroke="#3987e5" stroke-width="2"/>
<text x="165.1" y="356" font-size="11" fill="#898781" text-anchor="middle">7/16</text>
<circle cx="184.4" cy="210.0" r="4.5" fill="#3987e5" stroke="#3987e5" stroke-width="2"/>
<text x="184.4" y="356" font-size="11" fill="#898781" text-anchor="middle">7/20</text>
<circle cx="203.6" cy="191.1" r="4.5" fill="#3987e5" stroke="#3987e5" stroke-width="2"/>
<text x="203.6" y="356" font-size="11" fill="#898781" text-anchor="middle">7/21</text>
<circle cx="222.9" cy="192.7" r="4.5" fill="#3987e5" stroke="#3987e5" stroke-width="2"/>
<text x="222.9" y="356" font-size="11" fill="#898781" text-anchor="middle">7/22</text>
<circle cx="242.2" cy="169.4" r="4.5" fill="#3987e5" stroke="#3987e5" stroke-width="2"/>
<text x="242.2" y="356" font-size="11" fill="#898781" text-anchor="middle">7/23</text>
<circle cx="261.5" cy="211.3" r="4.5" fill="#3987e5" stroke="#3987e5" stroke-width="2"/>
<text x="261.5" y="356" font-size="11" fill="#898781" text-anchor="middle">7/24</text>
<circle cx="280.7" cy="196.4" r="4.5" fill="#3987e5" stroke="#3987e5" stroke-width="2"/>
<text x="280.7" y="356" font-size="11" fill="#898781" text-anchor="middle">7/27</text>
<circle cx="300.0" cy="266.0" r="4.5" fill="#3987e5" stroke="#3987e5" stroke-width="2"/>
<text x="300.0" y="356" font-size="11" fill="#898781" text-anchor="middle">7/28</text>
<circle cx="319.3" cy="305.0" r="4.5" fill="#3987e5" stroke="#3987e5" stroke-width="2"/>
<text x="319.3" y="356" font-size="11" fill="#898781" text-anchor="middle">7/29</text>
<circle cx="338.5" cy="325.6" r="4.5" fill="#3987e5" stroke="#3987e5" stroke-width="2"/>
<text x="338.5" y="356" font-size="11" fill="#898781" text-anchor="middle">7/30</text>
<text x="338.5" y="347.6" font-size="11.5" font-weight="600" fill="#c3c2b7" text-anchor="middle" style="font-variant-numeric:tabular-nums">132만</text>
<circle cx="357.8" cy="222.0" r="4.5" fill="#3987e5" stroke="#3987e5" stroke-width="2"/>
<text x="357.8" y="356" font-size="11" fill="#898781" text-anchor="middle">7/31</text>
<circle cx="377.1" cy="261.5" r="4.5" fill="#3987e5" stroke="#3987e5" stroke-width="2"/>
<text x="377.1" y="356" font-size="11" fill="#898781" text-anchor="middle">8/3</text>
<circle cx="396.4" cy="258.9" r="4.5" fill="#3987e5" stroke="#3987e5" stroke-width="2"/>
<text x="396.4" y="356" font-size="11" fill="#898781" text-anchor="middle">8/4</text>
<circle cx="415.6" cy="235.1" r="4.5" fill="#3987e5" stroke="#3987e5" stroke-width="2"/>
<text x="415.6" y="356" font-size="11" fill="#898781" text-anchor="middle">8/5</text>
<circle cx="434.9" cy="280.4" r="4.5" fill="#3987e5" stroke="#3987e5" stroke-width="2"/>
<text x="434.9" y="356" font-size="11" fill="#898781" text-anchor="middle">8/6</text>
<circle cx="454.2" cy="299.5" r="4.5" fill="#3987e5" stroke="#3987e5" stroke-width="2"/>
<text x="454.2" y="356" font-size="11" fill="#898781" text-anchor="middle">8/7</text>
<circle cx="473.5" cy="300.0" r="4.5" fill="#3987e5" stroke="#3987e5" stroke-width="2"/>
<text x="473.5" y="356" font-size="11" fill="#898781" text-anchor="middle">8/10</text>
<circle cx="492.7" cy="298.7" r="4.5" fill="#3987e5" stroke="#3987e5" stroke-width="2"/>
<text x="492.7" y="356" font-size="11" fill="#898781" text-anchor="middle">8/11</text>
<circle cx="512.0" cy="278.0" r="4.5" fill="#3987e5" stroke="#3987e5" stroke-width="2"/>
<text x="512.0" y="356" font-size="11" fill="#898781" text-anchor="middle">8/12</text>
<circle cx="531.3" cy="254.7" r="4.5" fill="#3987e5" stroke="#3987e5" stroke-width="2"/>
<text x="531.3" y="356" font-size="11" fill="#898781" text-anchor="middle">8/13</text>
<circle cx="550.5" cy="241.1" r="4.5" fill="#3987e5" stroke="#3987e5" stroke-width="2"/>
<text x="550.5" y="356" font-size="11" fill="#898781" text-anchor="middle">8/14</text>
<circle cx="569.8" cy="236.7" r="4.5" fill="#3987e5" stroke="#3987e5" stroke-width="2"/>
<text x="569.8" y="356" font-size="11" fill="#898781" text-anchor="middle">8/18</text>
<circle cx="589.1" cy="279.0" r="4.5" fill="#3987e5" stroke="#3987e5" stroke-width="2"/>
<text x="589.1" y="356" font-size="11" fill="#898781" text-anchor="middle">8/19</text>
<circle cx="608.4" cy="229.1" r="4.5" fill="#3987e5" stroke="#3987e5" stroke-width="2"/>
<text x="608.4" y="356" font-size="11" fill="#898781" text-anchor="middle">8/20</text>
<circle cx="627.6" cy="218.9" r="4.5" fill="#3987e5" stroke="#3987e5" stroke-width="2"/>
<text x="627.6" y="356" font-size="11" fill="#898781" text-anchor="middle">8/21</text>
<circle cx="646.9" cy="234.3" r="4.5" fill="#3987e5" stroke="#3987e5" stroke-width="2"/>
<text x="646.9" y="356" font-size="11" fill="#898781" text-anchor="middle">8/24</text>
<circle cx="666.2" cy="232.5" r="4.5" fill="#3987e5" stroke="#3987e5" stroke-width="2"/>
<text x="666.2" y="356" font-size="11" fill="#898781" text-anchor="middle">8/25</text>
<circle cx="685.5" cy="229.9" r="4.5" fill="#3987e5" stroke="#3987e5" stroke-width="2"/>
<text x="685.5" y="356" font-size="11" fill="#898781" text-anchor="middle">8/26</text>
<circle cx="704.7" cy="218.9" r="4.5" fill="#3987e5" stroke="#3987e5" stroke-width="2"/>
<text x="704.7" y="356" font-size="11" fill="#898781" text-anchor="middle">8/27</text>
<circle cx="724.0" cy="235.9" r="4.5" fill="#3987e5" stroke="#3987e5" stroke-width="2"/>
<text x="724.0" y="356" font-size="11" fill="#898781" text-anchor="middle">8/28</text>
<text x="724.0" y="223.9" font-size="11.5" font-weight="600" fill="#c3c2b7" text-anchor="middle" style="font-variant-numeric:tabular-nums">166만</text>
<circle cx="484" cy="66" r="4.5" fill="#3987e5" stroke="#3987e5" stroke-width="2"/>
<text x="494" y="70" font-size="11" fill="#c3c2b7">확인 종가</text>
<circle cx="564" cy="66" r="4.5" fill="#1a1a19" stroke="#3987e5" stroke-width="2"/>
<text x="574" y="70" font-size="11" fill="#c3c2b7">역산·장중(점선)</text>
<text x="24" y="386" font-size="10.5" fill="#898781">출처: 야후 파이낸스(8/28 확정 종가)·과거 리포트 종합</text>
</svg>