<svg xmlns="http://www.w3.org/2000/svg" width="760" height="400" viewBox="0 0 760 400" font-family='system-ui,-apple-system,"Segoe UI","Malgun Gothic","Apple SD Gothic Neo",sans-serif'>
<rect width="760" height="400" fill="#fcfcfb" stroke="rgba(11,11,11,0.10)"/>
<text x="24" y="34" font-size="17" font-weight="700" fill="#0b0b0b">SK하이닉스 주가 흐름 (7/10 ~ 7/24 장중)</text>
<text x="24" y="54" font-size="12" fill="#52514e">종가 기준, 원. 7/24는 09:42 KST 장중가. 흰 마커는 역산치. 7/17 휴장.</text>
<line x1="88" y1="294.1" x2="724" y2="294.1" stroke="#e1e0d9" stroke-width="1"/>
<text x="80" y="298.1" font-size="11" fill="#898781" text-anchor="end" style="font-variant-numeric:tabular-nums">180만</text>
<line x1="88" y1="246.9" x2="724" y2="246.9" stroke="#e1e0d9" stroke-width="1"/>
<text x="80" y="250.9" font-size="11" fill="#898781" text-anchor="end" style="font-variant-numeric:tabular-nums">190만</text>
<line x1="88" y1="199.7" x2="724" y2="199.7" stroke="#e1e0d9" stroke-width="1"/>
<text x="80" y="203.7" font-size="11" fill="#898781" text-anchor="end" style="font-variant-numeric:tabular-nums">200만</text>
<line x1="88" y1="152.6" x2="724" y2="152.6" stroke="#e1e0d9" stroke-width="1"/>
<text x="80" y="156.6" font-size="11" fill="#898781" text-anchor="end" style="font-variant-numeric:tabular-nums">210만</text>
<line x1="88" y1="105.4" x2="724" y2="105.4" stroke="#e1e0d9" stroke-width="1"/>
<text x="80" y="109.4" font-size="11" fill="#898781" text-anchor="end" style="font-variant-numeric:tabular-nums">220만</text>
<line x1="88" y1="336" x2="724" y2="336" stroke="#c3c2b7" stroke-width="1"/>
<path d="M88.0,114.8 L158.7,272.8 L229.3,240.8 L300.0,161.1 L370.7,274.3 L441.3,311.0 L512.0,277.1 L582.7,279.9 L653.3,237.9 L724.0,280.9" fill="none" stroke="#2a78d6" stroke-width="2"/>
<circle cx="88.0" cy="114.8" r="4.5" fill="#fcfcfb" stroke="#2a78d6" stroke-width="2"/>
<text x="88.0" y="356" font-size="11" fill="#898781" text-anchor="middle">7/10</text>
<text x="88.0" y="102.8" font-size="11.5" font-weight="600" fill="#52514e" text-anchor="middle" style="font-variant-numeric:tabular-nums">218만</text>
<circle cx="158.7" cy="272.8" r="4.5" fill="#2a78d6" stroke="#2a78d6" stroke-width="2"/>
<text x="158.7" y="356" font-size="11" fill="#898781" text-anchor="middle">7/13</text>
<circle cx="229.3" cy="240.8" r="4.5" fill="#2a78d6" stroke="#2a78d6" stroke-width="2"/>
<text x="229.3" y="356" font-size="11" fill="#898781" text-anchor="middle">7/14</text>
<circle cx="300.0" cy="161.1" r="4.5" fill="#2a78d6" stroke="#2a78d6" stroke-width="2"/>
<text x="300.0" y="356" font-size="11" fill="#898781" text-anchor="middle">7/15</text>
<circle cx="370.7" cy="274.3" r="4.5" fill="#2a78d6" stroke="#2a78d6" stroke-width="2"/>
<text x="370.7" y="356" font-size="11" fill="#898781" text-anchor="middle">7/16</text>
<circle cx="441.3" cy="311.0" r="4.5" fill="#2a78d6" stroke="#2a78d6" stroke-width="2"/>
<text x="441.3" y="356" font-size="11" fill="#898781" text-anchor="middle">7/20</text>
<text x="441.3" y="333.0" font-size="11.5" font-weight="600" fill="#52514e" text-anchor="middle" style="font-variant-numeric:tabular-nums">176만</text>
<circle cx="512.0" cy="277.1" r="4.5" fill="#2a78d6" stroke="#2a78d6" stroke-width="2"/>
<text x="512.0" y="356" font-size="11" fill="#898781" text-anchor="middle">7/21</text>
<circle cx="582.7" cy="279.9" r="4.5" fill="#2a78d6" stroke="#2a78d6" stroke-width="2"/>
<text x="582.7" y="356" font-size="11" fill="#898781" text-anchor="middle">7/22</text>
<circle cx="653.3" cy="237.9" r="4.5" fill="#2a78d6" stroke="#2a78d6" stroke-width="2"/>
<text x="653.3" y="356" font-size="11" fill="#898781" text-anchor="middle">7/23</text>
<circle cx="724.0" cy="280.9" r="4.5" fill="#2a78d6" stroke="#2a78d6" stroke-width="2"/>
<text x="724.0" y="356" font-size="11" fill="#898781" text-anchor="middle">7/24*</text>
<text x="724.0" y="268.9" font-size="11.5" font-weight="600" fill="#52514e" text-anchor="middle" style="font-variant-numeric:tabular-nums">183만</text>
<circle cx="484" cy="66" r="4.5" fill="#2a78d6" stroke="#2a78d6" stroke-width="2"/>
<text x="494" y="70" font-size="11" fill="#52514e">확인 종가</text>
<circle cx="564" cy="66" r="4.5" fill="#fcfcfb" stroke="#2a78d6" stroke-width="2"/>
<text x="574" y="70" font-size="11" fill="#52514e">역산·장중(점선)</text>
<text x="24" y="386" font-size="10.5" fill="#898781">출처: 야후 파이낸스(7/24 09:42 장중)·과거 리포트 종합</text>
</svg>