<svg xmlns="http://www.w3.org/2000/svg" width="760" height="400" viewBox="0 0 760 400" font-family='system-ui,-apple-system,"Segoe UI","Malgun Gothic","Apple SD Gothic Neo",sans-serif'>
<rect width="760" height="400" fill="#fcfcfb" stroke="rgba(11,11,11,0.10)"/>
<text x="24" y="34" font-size="17" font-weight="700" fill="#0b0b0b">SK하이닉스 주가 흐름 (7/2 ~ 7/15)</text>
<text x="24" y="54" font-size="12" fill="#52514e">종가 기준, 원. 흰 마커는 등락률 기사 기반 역산치.</text>
<line x1="88" y1="331.8" x2="724" y2="331.8" stroke="#e1e0d9" stroke-width="1"/>
<text x="80" y="335.8" font-size="11" fill="#898781" text-anchor="end" style="font-variant-numeric:tabular-nums">180만</text>
<line x1="88" y1="291.4" x2="724" y2="291.4" stroke="#e1e0d9" stroke-width="1"/>
<text x="80" y="295.4" font-size="11" fill="#898781" text-anchor="end" style="font-variant-numeric:tabular-nums">190만</text>
<line x1="88" y1="251.0" x2="724" y2="251.0" stroke="#e1e0d9" stroke-width="1"/>
<text x="80" y="255.0" font-size="11" fill="#898781" text-anchor="end" style="font-variant-numeric:tabular-nums">200만</text>
<line x1="88" y1="210.6" x2="724" y2="210.6" stroke="#e1e0d9" stroke-width="1"/>
<text x="80" y="214.6" font-size="11" fill="#898781" text-anchor="end" style="font-variant-numeric:tabular-nums">210만</text>
<line x1="88" y1="170.2" x2="724" y2="170.2" stroke="#e1e0d9" stroke-width="1"/>
<text x="80" y="174.2" font-size="11" fill="#898781" text-anchor="end" style="font-variant-numeric:tabular-nums">220만</text>
<line x1="88" y1="129.8" x2="724" y2="129.8" stroke="#e1e0d9" stroke-width="1"/>
<text x="80" y="133.8" font-size="11" fill="#898781" text-anchor="end" style="font-variant-numeric:tabular-nums">230만</text>
<line x1="88" y1="89.4" x2="724" y2="89.4" stroke="#e1e0d9" stroke-width="1"/>
<text x="80" y="93.4" font-size="11" fill="#898781" text-anchor="end" style="font-variant-numeric:tabular-nums">240만</text>
<line x1="88" y1="336" x2="724" y2="336" stroke="#c3c2b7" stroke-width="1"/>
<path d="M88.0,205.3 L167.5,112.4 L247.0,168.6 L326.5,220.3 L406.0,175.8 L485.5,178.3 L565.0,313.6 L644.5,286.2 L724.0,217.9" fill="none" stroke="#2a78d6" stroke-width="2"/>
<circle cx="88.0" cy="205.3" r="4.5" fill="#fcfcfb" stroke="#2a78d6" stroke-width="2"/>
<text x="88.0" y="356" font-size="11" fill="#898781" text-anchor="middle">7/2</text>
<circle cx="167.5" cy="112.4" r="4.5" fill="#fcfcfb" stroke="#2a78d6" stroke-width="2"/>
<text x="167.5" y="356" font-size="11" fill="#898781" text-anchor="middle">7/3</text>
<text x="167.5" y="100.4" font-size="11.5" font-weight="600" fill="#52514e" text-anchor="middle" style="font-variant-numeric:tabular-nums">234만</text>
<circle cx="247.0" cy="168.6" r="4.5" fill="#2a78d6" stroke="#2a78d6" stroke-width="2"/>
<text x="247.0" y="356" font-size="11" fill="#898781" text-anchor="middle">7/7</text>
<circle cx="326.5" cy="220.3" r="4.5" fill="#2a78d6" stroke="#2a78d6" stroke-width="2"/>
<text x="326.5" y="356" font-size="11" fill="#898781" text-anchor="middle">7/8</text>
<circle cx="406.0" cy="175.8" r="4.5" fill="#2a78d6" stroke="#2a78d6" stroke-width="2"/>
<text x="406.0" y="356" font-size="11" fill="#898781" text-anchor="middle">7/9</text>
<circle cx="485.5" cy="178.3" r="4.5" fill="#fcfcfb" stroke="#2a78d6" stroke-width="2"/>
<text x="485.5" y="356" font-size="11" fill="#898781" text-anchor="middle">7/10</text>
<circle cx="565.0" cy="313.6" r="4.5" fill="#2a78d6" stroke="#2a78d6" stroke-width="2"/>
<text x="565.0" y="356" font-size="11" fill="#898781" text-anchor="middle">7/13</text>
<text x="565.0" y="335.6" font-size="11.5" font-weight="600" fill="#52514e" text-anchor="middle" style="font-variant-numeric:tabular-nums">184만</text>
<circle cx="644.5" cy="286.2" r="4.5" fill="#2a78d6" stroke="#2a78d6" stroke-width="2"/>
<text x="644.5" y="356" font-size="11" fill="#898781" text-anchor="middle">7/14</text>
<circle cx="724.0" cy="217.9" r="4.5" fill="#2a78d6" stroke="#2a78d6" stroke-width="2"/>
<text x="724.0" y="356" font-size="11" fill="#898781" text-anchor="middle">7/15</text>
<text x="724.0" y="205.9" font-size="11.5" font-weight="600" fill="#52514e" text-anchor="middle" style="font-variant-numeric:tabular-nums">208만</text>
<circle cx="484" cy="66" r="4.5" fill="#2a78d6" stroke="#2a78d6" stroke-width="2"/>
<text x="494" y="70" font-size="11" fill="#52514e">확인 종가</text>
<circle cx="564" cy="66" r="4.5" fill="#fcfcfb" stroke="#2a78d6" stroke-width="2"/>
<text x="574" y="70" font-size="11" fill="#52514e">역산·장중(점선)</text>
<text x="24" y="386" font-size="10.5" fill="#898781">출처: 뉴스핌·톱스타뉴스·야후 파이낸스 종합 (2026-07-16 조사)</text>
</svg>