<svg xmlns="http://www.w3.org/2000/svg" width="760" height="338" viewBox="0 0 760 338" font-family='system-ui,-apple-system,"Segoe UI","Malgun Gothic","Apple SD Gothic Neo",sans-serif'>
<rect width="760" height="338" fill="#1a1a19" stroke="rgba(11,11,11,0.10)"/>
<text x="24" y="34" font-size="17" font-weight="700" fill="#ffffff">글로벌 HBM 시장 점유율 추이</text>
<text x="24" y="54" font-size="12" fill="#c3c2b7">매출 기준, %. 26년(E)는 카운터포인트 연간 전망.</text>
<rect x="110" y="78" width="12" height="12" rx="3" fill="#3987e5"/>
<text x="128" y="88" font-size="11.5" fill="#c3c2b7">SK하이닉스</text>
<rect x="212" y="78" width="12" height="12" rx="3" fill="#008300"/>
<text x="230" y="88" font-size="11.5" fill="#c3c2b7">삼성전자</text>
<rect x="290" y="78" width="12" height="12" rx="3" fill="#d55181"/>
<text x="308" y="88" font-size="11.5" fill="#c3c2b7">마이크론</text>
<text x="100" y="127.0" font-size="12" fill="#ffffff" text-anchor="end">25.1Q</text>
<rect x="111.0" y="108" width="421.7" height="30" rx="3" fill="#3987e5"/>
<text x="321.8" y="127.0" font-size="11.5" font-weight="600" fill="#ffffff" text-anchor="middle">69%</text>
<rect x="534.7" y="108" width="77.8" height="30" rx="3" fill="#008300"/>
<text x="573.6" y="127.0" font-size="11.5" font-weight="600" fill="#ffffff" text-anchor="middle">13%</text>
<rect x="614.5" y="108" width="108.5" height="30" rx="3" fill="#d55181"/>
<text x="668.7" y="127.0" font-size="11.5" font-weight="600" fill="#ffffff" text-anchor="middle">18%</text>
<text x="100" y="171.0" font-size="12" fill="#ffffff" text-anchor="end">25.4Q</text>
<rect x="111.0" y="152" width="348.0" height="30" rx="3" fill="#3987e5"/>
<text x="285.0" y="171.0" font-size="11.5" font-weight="600" fill="#ffffff" text-anchor="middle">57%</text>
<rect x="461.0" y="152" width="133.1" height="30" rx="3" fill="#008300"/>
<text x="527.5" y="171.0" font-size="11.5" font-weight="600" fill="#ffffff" text-anchor="middle">22%</text>
<rect x="596.1" y="152" width="126.9" height="30" rx="3" fill="#d55181"/>
<text x="659.5" y="171.0" font-size="11.5" font-weight="600" fill="#ffffff" text-anchor="middle">21%</text>
<text x="100" y="215.0" font-size="12" fill="#ffffff" text-anchor="end">26.1Q</text>
<rect x="111.0" y="196" width="354.1" height="30" rx="3" fill="#3987e5"/>
<text x="288.1" y="215.0" font-size="11.5" font-weight="600" fill="#ffffff" text-anchor="middle">58%</text>
<rect x="467.1" y="196" width="126.9" height="30" rx="3" fill="#008300"/>
<text x="530.6" y="215.0" font-size="11.5" font-weight="600" fill="#ffffff" text-anchor="middle">21%</text>
<rect x="596.1" y="196" width="126.9" height="30" rx="3" fill="#d55181"/>
<text x="659.5" y="215.0" font-size="11.5" font-weight="600" fill="#ffffff" text-anchor="middle">21%</text>
<text x="100" y="259.0" font-size="12" fill="#ffffff" text-anchor="end">26년(E)</text>
<rect x="111.0" y="240" width="305.0" height="30" rx="3" fill="#3987e5"/>
<text x="263.5" y="259.0" font-size="11.5" font-weight="600" fill="#ffffff" text-anchor="middle">50%</text>
<rect x="418.0" y="240" width="169.9" height="30" rx="3" fill="#008300"/>
<text x="503.0" y="259.0" font-size="11.5" font-weight="600" fill="#ffffff" text-anchor="middle">28%</text>
<rect x="589.9" y="240" width="133.1" height="30" rx="3" fill="#d55181"/>
<text x="656.5" y="259.0" font-size="11.5" font-weight="600" fill="#ffffff" text-anchor="middle">22%</text>
<text x="24" y="324" font-size="10.5" fill="#898781">출처: 카운터포인트리서치·포쓰저널 (2026-07 조사)</text>
</svg>