<svg xmlns="http://www.w3.org/2000/svg" width="760" height="400" viewBox="0 0 760 400" font-family='system-ui,-apple-system,"Segoe UI","Malgun Gothic","Apple SD Gothic Neo",sans-serif'>
<rect width="760" height="400" fill="#1a1a19" stroke="rgba(11,11,11,0.10)"/>
<text x="24" y="34" font-size="17" font-weight="700" fill="#ffffff">SK하이닉스 주가 흐름 (7/10 ~ 7/22 종가)</text>
<text x="24" y="54" font-size="12" fill="#c3c2b7">종가 기준, 원. 7/22는 확정 종가. 흰 마커는 역산치. 7/17 휴장.</text>
<line x1="88" y1="294.1" x2="724" y2="294.1" stroke="#2c2c2a" stroke-width="1"/>
<text x="80" y="298.1" font-size="11" fill="#898781" text-anchor="end" style="font-variant-numeric:tabular-nums">180만</text>
<line x1="88" y1="246.9" x2="724" y2="246.9" stroke="#2c2c2a" stroke-width="1"/>
<text x="80" y="250.9" font-size="11" fill="#898781" text-anchor="end" style="font-variant-numeric:tabular-nums">190만</text>
<line x1="88" y1="199.7" x2="724" y2="199.7" stroke="#2c2c2a" stroke-width="1"/>
<text x="80" y="203.7" font-size="11" fill="#898781" text-anchor="end" style="font-variant-numeric:tabular-nums">200만</text>
<line x1="88" y1="152.6" x2="724" y2="152.6" stroke="#2c2c2a" stroke-width="1"/>
<text x="80" y="156.6" font-size="11" fill="#898781" text-anchor="end" style="font-variant-numeric:tabular-nums">210만</text>
<line x1="88" y1="105.4" x2="724" y2="105.4" stroke="#2c2c2a" stroke-width="1"/>
<text x="80" y="109.4" font-size="11" fill="#898781" text-anchor="end" style="font-variant-numeric:tabular-nums">220만</text>
<line x1="88" y1="336" x2="724" y2="336" stroke="#383835" stroke-width="1"/>
<path d="M88.0,114.8 L178.9,272.8 L269.7,240.8 L360.6,161.1 L451.4,274.3 L542.3,311.0 L633.1,277.1 L724.0,277.1" fill="none" stroke="#3987e5" stroke-width="2"/>
<circle cx="88.0" cy="114.8" r="4.5" fill="#1a1a19" stroke="#3987e5" stroke-width="2"/>
<text x="88.0" y="356" font-size="11" fill="#898781" text-anchor="middle">7/10</text>
<text x="88.0" y="102.8" font-size="11.5" font-weight="600" fill="#c3c2b7" text-anchor="middle" style="font-variant-numeric:tabular-nums">218만</text>
<circle cx="178.9" cy="272.8" r="4.5" fill="#3987e5" stroke="#3987e5" stroke-width="2"/>
<text x="178.9" y="356" font-size="11" fill="#898781" text-anchor="middle">7/13</text>
<circle cx="269.7" cy="240.8" r="4.5" fill="#3987e5" stroke="#3987e5" stroke-width="2"/>
<text x="269.7" y="356" font-size="11" fill="#898781" text-anchor="middle">7/14</text>
<circle cx="360.6" cy="161.1" r="4.5" fill="#3987e5" stroke="#3987e5" stroke-width="2"/>
<text x="360.6" y="356" font-size="11" fill="#898781" text-anchor="middle">7/15</text>
<circle cx="451.4" cy="274.3" r="4.5" fill="#3987e5" stroke="#3987e5" stroke-width="2"/>
<text x="451.4" y="356" font-size="11" fill="#898781" text-anchor="middle">7/16</text>
<circle cx="542.3" cy="311.0" r="4.5" fill="#3987e5" stroke="#3987e5" stroke-width="2"/>
<text x="542.3" y="356" font-size="11" fill="#898781" text-anchor="middle">7/20</text>
<text x="542.3" y="333.0" font-size="11.5" font-weight="600" fill="#c3c2b7" text-anchor="middle" style="font-variant-numeric:tabular-nums">176만</text>
<circle cx="633.1" cy="277.1" r="4.5" fill="#3987e5" stroke="#3987e5" stroke-width="2"/>
<text x="633.1" y="356" font-size="11" fill="#898781" text-anchor="middle">7/21</text>
<circle cx="724.0" cy="277.1" r="4.5" fill="#3987e5" stroke="#3987e5" stroke-width="2"/>
<text x="724.0" y="356" font-size="11" fill="#898781" text-anchor="middle">7/22</text>
<text x="724.0" y="265.1" font-size="11.5" font-weight="600" fill="#c3c2b7" text-anchor="middle" style="font-variant-numeric:tabular-nums">184만</text>
<circle cx="484" cy="66" r="4.5" fill="#3987e5" stroke="#3987e5" stroke-width="2"/>
<text x="494" y="70" font-size="11" fill="#c3c2b7">확인 종가</text>
<circle cx="564" cy="66" r="4.5" fill="#1a1a19" stroke="#3987e5" stroke-width="2"/>
<text x="574" y="70" font-size="11" fill="#c3c2b7">역산·장중(점선)</text>
<text x="24" y="386" font-size="10.5" fill="#898781">출처: 야후 파이낸스(7/22 확정 종가)·과거 리포트 종합</text>
</svg>