<svg xmlns="http://www.w3.org/2000/svg" width="760" height="400" viewBox="0 0 760 400" font-family='system-ui,-apple-system,"Segoe UI","Malgun Gothic","Apple SD Gothic Neo",sans-serif'>
<rect width="760" height="400" fill="#1a1a19" stroke="rgba(11,11,11,0.10)"/>
<text x="24" y="34" font-size="17" font-weight="700" fill="#ffffff">SK하이닉스 주가 흐름 (7/10 ~ 7/24 종가)</text>
<text x="24" y="54" font-size="12" fill="#c3c2b7">종가 기준, 원. 7/24는 확정 종가. 흰 마커는 역산치. 7/17 휴장.</text>
<line x1="88" y1="292.2" x2="724" y2="292.2" stroke="#2c2c2a" stroke-width="1"/>
<text x="80" y="296.2" font-size="11" fill="#898781" text-anchor="end" style="font-variant-numeric:tabular-nums">180만</text>
<line x1="88" y1="245.4" x2="724" y2="245.4" stroke="#2c2c2a" stroke-width="1"/>
<text x="80" y="249.4" font-size="11" fill="#898781" text-anchor="end" style="font-variant-numeric:tabular-nums">190만</text>
<line x1="88" y1="198.7" x2="724" y2="198.7" stroke="#2c2c2a" stroke-width="1"/>
<text x="80" y="202.7" font-size="11" fill="#898781" text-anchor="end" style="font-variant-numeric:tabular-nums">200만</text>
<line x1="88" y1="152.0" x2="724" y2="152.0" stroke="#2c2c2a" stroke-width="1"/>
<text x="80" y="156.0" font-size="11" fill="#898781" text-anchor="end" style="font-variant-numeric:tabular-nums">210만</text>
<line x1="88" y1="105.2" x2="724" y2="105.2" stroke="#2c2c2a" stroke-width="1"/>
<text x="80" y="109.2" font-size="11" fill="#898781" text-anchor="end" style="font-variant-numeric:tabular-nums">220만</text>
<line x1="88" y1="336" x2="724" y2="336" stroke="#383835" stroke-width="1"/>
<path d="M88.0,114.6 L158.7,271.1 L229.3,239.4 L300.0,160.4 L370.7,272.5 L441.3,309.0 L512.0,275.3 L582.7,278.2 L653.3,236.6 L724.0,311.3" fill="none" stroke="#3987e5" stroke-width="2"/>
<circle cx="88.0" cy="114.6" r="4.5" fill="#1a1a19" stroke="#3987e5" stroke-width="2"/>
<text x="88.0" y="356" font-size="11" fill="#898781" text-anchor="middle">7/10</text>
<text x="88.0" y="102.6" font-size="11.5" font-weight="600" fill="#c3c2b7" text-anchor="middle" style="font-variant-numeric:tabular-nums">218만</text>
<circle cx="158.7" cy="271.1" r="4.5" fill="#3987e5" stroke="#3987e5" stroke-width="2"/>
<text x="158.7" y="356" font-size="11" fill="#898781" text-anchor="middle">7/13</text>
<circle cx="229.3" cy="239.4" r="4.5" fill="#3987e5" stroke="#3987e5" stroke-width="2"/>
<text x="229.3" y="356" font-size="11" fill="#898781" text-anchor="middle">7/14</text>
<circle cx="300.0" cy="160.4" r="4.5" fill="#3987e5" stroke="#3987e5" stroke-width="2"/>
<text x="300.0" y="356" font-size="11" fill="#898781" text-anchor="middle">7/15</text>
<circle cx="370.7" cy="272.5" r="4.5" fill="#3987e5" stroke="#3987e5" stroke-width="2"/>
<text x="370.7" y="356" font-size="11" fill="#898781" text-anchor="middle">7/16</text>
<circle cx="441.3" cy="309.0" r="4.5" fill="#3987e5" stroke="#3987e5" stroke-width="2"/>
<text x="441.3" y="356" font-size="11" fill="#898781" text-anchor="middle">7/20</text>
<circle cx="512.0" cy="275.3" r="4.5" fill="#3987e5" stroke="#3987e5" stroke-width="2"/>
<text x="512.0" y="356" font-size="11" fill="#898781" text-anchor="middle">7/21</text>
<circle cx="582.7" cy="278.2" r="4.5" fill="#3987e5" stroke="#3987e5" stroke-width="2"/>
<text x="582.7" y="356" font-size="11" fill="#898781" text-anchor="middle">7/22</text>
<circle cx="653.3" cy="236.6" r="4.5" fill="#3987e5" stroke="#3987e5" stroke-width="2"/>
<text x="653.3" y="356" font-size="11" fill="#898781" text-anchor="middle">7/23</text>
<circle cx="724.0" cy="311.3" r="4.5" fill="#3987e5" stroke="#3987e5" stroke-width="2"/>
<text x="724.0" y="356" font-size="11" fill="#898781" text-anchor="middle">7/24</text>
<text x="724.0" y="333.3" font-size="11.5" font-weight="600" fill="#c3c2b7" text-anchor="middle" style="font-variant-numeric:tabular-nums">176만</text>
<circle cx="484" cy="66" r="4.5" fill="#3987e5" stroke="#3987e5" stroke-width="2"/>
<text x="494" y="70" font-size="11" fill="#c3c2b7">확인 종가</text>
<circle cx="564" cy="66" r="4.5" fill="#1a1a19" stroke="#3987e5" stroke-width="2"/>
<text x="574" y="70" font-size="11" fill="#c3c2b7">역산·장중(점선)</text>
<text x="24" y="386" font-size="10.5" fill="#898781">출처: 야후 파이낸스(7/24 확정 종가 1,759,000)·과거 리포트 종합</text>
</svg>