<svg xmlns="http://www.w3.org/2000/svg" width="760" height="400" viewBox="0 0 760 400" font-family='system-ui,-apple-system,"Segoe UI","Malgun Gothic","Apple SD Gothic Neo",sans-serif'>
<rect width="760" height="400" fill="#fcfcfb" stroke="rgba(11,11,11,0.10)"/>
<text x="24" y="34" font-size="17" font-weight="700" fill="#0b0b0b">SK하이닉스 주가 흐름 (7/10 ~ 9/10)</text>
<text x="24" y="54" font-size="12" fill="#52514e">종가 기준, 원(9/10은 장중 잠정). 9/10 장중 185.5만(-0.05%), 전일 종가 근접 수준 유지.</text>
<line x1="88" y1="331.4" x2="724" y2="331.4" stroke="#e1e0d9" stroke-width="1"/>
<text x="80" y="335.4" font-size="11" fill="#898781" text-anchor="end" style="font-variant-numeric:tabular-nums">130만</text>
<line x1="88" y1="305.2" x2="724" y2="305.2" stroke="#e1e0d9" stroke-width="1"/>
<text x="80" y="309.2" font-size="11" fill="#898781" text-anchor="end" style="font-variant-numeric:tabular-nums">140만</text>
<line x1="88" y1="279.0" x2="724" y2="279.0" stroke="#e1e0d9" stroke-width="1"/>
<text x="80" y="283.0" font-size="11" fill="#898781" text-anchor="end" style="font-variant-numeric:tabular-nums">150만</text>
<line x1="88" y1="252.9" x2="724" y2="252.9" stroke="#e1e0d9" stroke-width="1"/>
<text x="80" y="256.9" font-size="11" fill="#898781" text-anchor="end" style="font-variant-numeric:tabular-nums">160만</text>
<line x1="88" y1="226.7" x2="724" y2="226.7" stroke="#e1e0d9" stroke-width="1"/>
<text x="80" y="230.7" font-size="11" fill="#898781" text-anchor="end" style="font-variant-numeric:tabular-nums">170만</text>
<line x1="88" y1="200.5" x2="724" y2="200.5" stroke="#e1e0d9" stroke-width="1"/>
<text x="80" y="204.5" font-size="11" fill="#898781" text-anchor="end" style="font-variant-numeric:tabular-nums">180만</text>
<line x1="88" y1="174.4" x2="724" y2="174.4" stroke="#e1e0d9" stroke-width="1"/>
<text x="80" y="178.4" font-size="11" fill="#898781" text-anchor="end" style="font-variant-numeric:tabular-nums">190만</text>
<line x1="88" y1="148.2" x2="724" y2="148.2" stroke="#e1e0d9" stroke-width="1"/>
<text x="80" y="152.2" font-size="11" fill="#898781" text-anchor="end" style="font-variant-numeric:tabular-nums">200만</text>
<line x1="88" y1="122.0" x2="724" y2="122.0" stroke="#e1e0d9" stroke-width="1"/>
<text x="80" y="126.0" font-size="11" fill="#898781" text-anchor="end" style="font-variant-numeric:tabular-nums">210만</text>
<line x1="88" y1="95.9" x2="724" y2="95.9" stroke="#e1e0d9" stroke-width="1"/>
<text x="80" y="99.9" font-size="11" fill="#898781" text-anchor="end" style="font-variant-numeric:tabular-nums">220만</text>
<line x1="88" y1="336" x2="724" y2="336" stroke="#c3c2b7" stroke-width="1"/>
<path d="M88.0,101.1 L102.8,188.8 L117.6,171.0 L132.4,126.8 L147.2,189.6 L162.0,210.0 L176.7,191.1 L191.5,192.7 L206.3,169.4 L221.1,211.3 L235.9,196.4 L250.7,266.0 L265.5,305.0 L280.3,325.6 L295.1,222.0 L309.9,261.5 L324.7,258.9 L339.4,235.1 L354.2,280.4 L369.0,299.5 L383.8,300.0 L398.6,298.7 L413.4,278.0 L428.2,254.7 L443.0,241.1 L457.8,236.7 L472.6,279.0 L487.3,229.1 L502.1,218.9 L516.9,234.3 L531.7,232.5 L546.5,229.9 L561.3,218.9 L576.1,239.0 L590.9,233.5 L605.7,228.5 L620.5,249.5 L635.3,253.9 L650.0,240.6 L664.8,205.3 L679.6,202.4 L694.4,185.9 L709.2,186.7" fill="none" stroke="#2a78d6" stroke-width="2"/>
<path d="M709.2,186.7 L724.0,203.4" fill="none" stroke="#2a78d6" stroke-width="2" stroke-dasharray="5 4"/>
<circle cx="88.0" cy="101.1" r="4.5" fill="#fcfcfb" stroke="#2a78d6" stroke-width="2"/>
<text x="88.0" y="356" font-size="11" fill="#898781" text-anchor="middle">7/10</text>
<text x="88.0" y="89.1" font-size="11.5" font-weight="600" fill="#52514e" text-anchor="middle" style="font-variant-numeric:tabular-nums">218만</text>
<circle cx="102.8" cy="188.8" r="4.5" fill="#2a78d6" stroke="#2a78d6" stroke-width="2"/>
<text x="102.8" y="356" font-size="11" fill="#898781" text-anchor="middle">7/13</text>
<circle cx="117.6" cy="171.0" r="4.5" fill="#2a78d6" stroke="#2a78d6" stroke-width="2"/>
<text x="117.6" y="356" font-size="11" fill="#898781" text-anchor="middle">7/14</text>
<circle cx="132.4" cy="126.8" r="4.5" fill="#2a78d6" stroke="#2a78d6" stroke-width="2"/>
<text x="132.4" y="356" font-size="11" fill="#898781" text-anchor="middle">7/15</text>
<circle cx="147.2" cy="189.6" r="4.5" fill="#2a78d6" stroke="#2a78d6" stroke-width="2"/>
<text x="147.2" y="356" font-size="11" fill="#898781" text-anchor="middle">7/16</text>
<circle cx="162.0" cy="210.0" r="4.5" fill="#2a78d6" stroke="#2a78d6" stroke-width="2"/>
<text x="162.0" y="356" font-size="11" fill="#898781" text-anchor="middle">7/20</text>
<circle cx="176.7" cy="191.1" r="4.5" fill="#2a78d6" stroke="#2a78d6" stroke-width="2"/>
<text x="176.7" y="356" font-size="11" fill="#898781" text-anchor="middle">7/21</text>
<circle cx="191.5" cy="192.7" r="4.5" fill="#2a78d6" stroke="#2a78d6" stroke-width="2"/>
<text x="191.5" y="356" font-size="11" fill="#898781" text-anchor="middle">7/22</text>
<circle cx="206.3" cy="169.4" r="4.5" fill="#2a78d6" stroke="#2a78d6" stroke-width="2"/>
<text x="206.3" y="356" font-size="11" fill="#898781" text-anchor="middle">7/23</text>
<circle cx="221.1" cy="211.3" r="4.5" fill="#2a78d6" stroke="#2a78d6" stroke-width="2"/>
<text x="221.1" y="356" font-size="11" fill="#898781" text-anchor="middle">7/24</text>
<circle cx="235.9" cy="196.4" r="4.5" fill="#2a78d6" stroke="#2a78d6" stroke-width="2"/>
<text x="235.9" y="356" font-size="11" fill="#898781" text-anchor="middle">7/27</text>
<circle cx="250.7" cy="266.0" r="4.5" fill="#2a78d6" stroke="#2a78d6" stroke-width="2"/>
<text x="250.7" y="356" font-size="11" fill="#898781" text-anchor="middle">7/28</text>
<circle cx="265.5" cy="305.0" r="4.5" fill="#2a78d6" stroke="#2a78d6" stroke-width="2"/>
<text x="265.5" y="356" font-size="11" fill="#898781" text-anchor="middle">7/29</text>
<circle cx="280.3" cy="325.6" r="4.5" fill="#2a78d6" stroke="#2a78d6" stroke-width="2"/>
<text x="280.3" y="356" font-size="11" fill="#898781" text-anchor="middle">7/30</text>
<text x="280.3" y="347.6" font-size="11.5" font-weight="600" fill="#52514e" text-anchor="middle" style="font-variant-numeric:tabular-nums">132만</text>
<circle cx="295.1" cy="222.0" r="4.5" fill="#2a78d6" stroke="#2a78d6" stroke-width="2"/>
<text x="295.1" y="356" font-size="11" fill="#898781" text-anchor="middle">7/31</text>
<circle cx="309.9" cy="261.5" r="4.5" fill="#2a78d6" stroke="#2a78d6" stroke-width="2"/>
<text x="309.9" y="356" font-size="11" fill="#898781" text-anchor="middle">8/3</text>
<circle cx="324.7" cy="258.9" r="4.5" fill="#2a78d6" stroke="#2a78d6" stroke-width="2"/>
<text x="324.7" y="356" font-size="11" fill="#898781" text-anchor="middle">8/4</text>
<circle cx="339.4" cy="235.1" r="4.5" fill="#2a78d6" stroke="#2a78d6" stroke-width="2"/>
<text x="339.4" y="356" font-size="11" fill="#898781" text-anchor="middle">8/5</text>
<circle cx="354.2" cy="280.4" r="4.5" fill="#2a78d6" stroke="#2a78d6" stroke-width="2"/>
<text x="354.2" y="356" font-size="11" fill="#898781" text-anchor="middle">8/6</text>
<circle cx="369.0" cy="299.5" r="4.5" fill="#2a78d6" stroke="#2a78d6" stroke-width="2"/>
<text x="369.0" y="356" font-size="11" fill="#898781" text-anchor="middle">8/7</text>
<circle cx="383.8" cy="300.0" r="4.5" fill="#2a78d6" stroke="#2a78d6" stroke-width="2"/>
<text x="383.8" y="356" font-size="11" fill="#898781" text-anchor="middle">8/10</text>
<circle cx="398.6" cy="298.7" r="4.5" fill="#2a78d6" stroke="#2a78d6" stroke-width="2"/>
<text x="398.6" y="356" font-size="11" fill="#898781" text-anchor="middle">8/11</text>
<circle cx="413.4" cy="278.0" r="4.5" fill="#2a78d6" stroke="#2a78d6" stroke-width="2"/>
<text x="413.4" y="356" font-size="11" fill="#898781" text-anchor="middle">8/12</text>
<circle cx="428.2" cy="254.7" r="4.5" fill="#2a78d6" stroke="#2a78d6" stroke-width="2"/>
<text x="428.2" y="356" font-size="11" fill="#898781" text-anchor="middle">8/13</text>
<circle cx="443.0" cy="241.1" r="4.5" fill="#2a78d6" stroke="#2a78d6" stroke-width="2"/>
<text x="443.0" y="356" font-size="11" fill="#898781" text-anchor="middle">8/14</text>
<circle cx="457.8" cy="236.7" r="4.5" fill="#2a78d6" stroke="#2a78d6" stroke-width="2"/>
<text x="457.8" y="356" font-size="11" fill="#898781" text-anchor="middle">8/18</text>
<circle cx="472.6" cy="279.0" r="4.5" fill="#2a78d6" stroke="#2a78d6" stroke-width="2"/>
<text x="472.6" y="356" font-size="11" fill="#898781" text-anchor="middle">8/19</text>
<circle cx="487.3" cy="229.1" r="4.5" fill="#2a78d6" stroke="#2a78d6" stroke-width="2"/>
<text x="487.3" y="356" font-size="11" fill="#898781" text-anchor="middle">8/20</text>
<circle cx="502.1" cy="218.9" r="4.5" fill="#2a78d6" stroke="#2a78d6" stroke-width="2"/>
<text x="502.1" y="356" font-size="11" fill="#898781" text-anchor="middle">8/21</text>
<circle cx="516.9" cy="234.3" r="4.5" fill="#2a78d6" stroke="#2a78d6" stroke-width="2"/>
<text x="516.9" y="356" font-size="11" fill="#898781" text-anchor="middle">8/24</text>
<circle cx="531.7" cy="232.5" r="4.5" fill="#2a78d6" stroke="#2a78d6" stroke-width="2"/>
<text x="531.7" y="356" font-size="11" fill="#898781" text-anchor="middle">8/25</text>
<circle cx="546.5" cy="229.9" r="4.5" fill="#2a78d6" stroke="#2a78d6" stroke-width="2"/>
<text x="546.5" y="356" font-size="11" fill="#898781" text-anchor="middle">8/26</text>
<circle cx="561.3" cy="218.9" r="4.5" fill="#2a78d6" stroke="#2a78d6" stroke-width="2"/>
<text x="561.3" y="356" font-size="11" fill="#898781" text-anchor="middle">8/27</text>
<circle cx="576.1" cy="239.0" r="4.5" fill="#2a78d6" stroke="#2a78d6" stroke-width="2"/>
<text x="576.1" y="356" font-size="11" fill="#898781" text-anchor="middle">8/28</text>
<circle cx="590.9" cy="233.5" r="4.5" fill="#2a78d6" stroke="#2a78d6" stroke-width="2"/>
<text x="590.9" y="356" font-size="11" fill="#898781" text-anchor="middle">8/31</text>
<circle cx="605.7" cy="228.5" r="4.5" fill="#2a78d6" stroke="#2a78d6" stroke-width="2"/>
<text x="605.7" y="356" font-size="11" fill="#898781" text-anchor="middle">9/1</text>
<circle cx="620.5" cy="249.5" r="4.5" fill="#2a78d6" stroke="#2a78d6" stroke-width="2"/>
<text x="620.5" y="356" font-size="11" fill="#898781" text-anchor="middle">9/2</text>
<circle cx="635.3" cy="253.9" r="4.5" fill="#2a78d6" stroke="#2a78d6" stroke-width="2"/>
<text x="635.3" y="356" font-size="11" fill="#898781" text-anchor="middle">9/3</text>
<circle cx="650.0" cy="240.6" r="4.5" fill="#2a78d6" stroke="#2a78d6" stroke-width="2"/>
<text x="650.0" y="356" font-size="11" fill="#898781" text-anchor="middle">9/4</text>
<circle cx="664.8" cy="205.3" r="4.5" fill="#2a78d6" stroke="#2a78d6" stroke-width="2"/>
<text x="664.8" y="356" font-size="11" fill="#898781" text-anchor="middle">9/7</text>
<circle cx="679.6" cy="202.4" r="4.5" fill="#2a78d6" stroke="#2a78d6" stroke-width="2"/>
<text x="679.6" y="356" font-size="11" fill="#898781" text-anchor="middle">9/8</text>
<circle cx="694.4" cy="185.9" r="4.5" fill="#2a78d6" stroke="#2a78d6" stroke-width="2"/>
<text x="694.4" y="356" font-size="11" fill="#898781" text-anchor="middle">9/9</text>
<circle cx="709.2" cy="186.7" r="4.5" fill="#2a78d6" stroke="#2a78d6" stroke-width="2"/>
<text x="709.2" y="356" font-size="11" fill="#898781" text-anchor="middle">9/10</text>
<circle cx="724.0" cy="203.4" r="4.5" fill="#fcfcfb" stroke="#2a78d6" stroke-width="2"/>
<text x="724.0" y="356" font-size="11" fill="#898781" text-anchor="middle">9/11</text>
<text x="724.0" y="191.4" font-size="11.5" font-weight="600" fill="#52514e" text-anchor="middle" style="font-variant-numeric:tabular-nums">179만</text>
<circle cx="484" cy="66" r="4.5" fill="#2a78d6" stroke="#2a78d6" stroke-width="2"/>
<text x="494" y="70" font-size="11" fill="#52514e">확인 종가</text>
<circle cx="564" cy="66" r="4.5" fill="#fcfcfb" stroke="#2a78d6" stroke-width="2"/>
<text x="574" y="70" font-size="11" fill="#52514e">역산·장중(점선)</text>
<text x="24" y="386" font-size="10.5" fill="#898781">출처: 야후 파이낸스(9/10 장중 잠정)·과거 리포트 종합</text>
</svg>